<svg width="16" height="16" viewBox="0 0 16 16" fill="none" xmlns="http://www.w3.org/2000/svg">
<g id="icon / 16 / globe">
<path id="Vector" d="M7.83301 2.0835C11.0086 2.0835 13.583 4.65786 13.583 7.8335C13.583 11.0091 11.0086 13.5835 7.83301 13.5835C4.65737 13.5835 2.08301 11.0091 2.08301 7.8335C2.08301 4.65786 4.65737 2.0835 7.83301 2.0835Z" stroke="#9A9A9A" stroke-width="1.5" stroke-miterlimit="10"/>
<path id="Vector_2" d="M7.83301 2.0835C7.89418 2.0835 8.03634 2.11309 8.25098 2.34912C8.46577 2.58533 8.69361 2.96878 8.90039 3.50635C9.3121 4.57679 9.58301 6.10656 9.58301 7.8335C9.58301 9.56043 9.3121 11.0902 8.90039 12.1606C8.69361 12.6982 8.46577 13.0817 8.25098 13.3179C8.03634 13.5539 7.89418 13.5835 7.83301 13.5835C7.77184 13.5835 7.62967 13.5539 7.41504 13.3179C7.20025 13.0817 6.97241 12.6982 6.76562 12.1606C6.35392 11.0902 6.08301 9.56043 6.08301 7.8335C6.08301 6.10656 6.35392 4.57679 6.76562 3.50635C6.97241 2.96878 7.20025 2.58533 7.41504 2.34912C7.62967 2.11309 7.77184 2.0835 7.83301 2.0835Z" stroke="#9A9A9A" stroke-width="1.5" stroke-miterlimit="10"/>
<path id="Vector_3" d="M7.83301 6.0835C9.55995 6.0835 11.0897 6.35441 12.1602 6.76611C12.6977 6.9729 13.0812 7.20074 13.3174 7.41553C13.5534 7.63016 13.583 7.77232 13.583 7.8335C13.583 7.89467 13.5534 8.03683 13.3174 8.25146C13.0812 8.46625 12.6977 8.6941 12.1602 8.90088C11.0897 9.31259 9.55995 9.5835 7.83301 9.5835C6.10607 9.5835 4.5763 9.31259 3.50586 8.90088C2.9683 8.6941 2.58484 8.46625 2.34863 8.25146C2.1126 8.03683 2.08301 7.89467 2.08301 7.8335C2.08301 7.77232 2.1126 7.63016 2.34863 7.41553C2.58484 7.20074 2.9683 6.9729 3.50586 6.76611C4.5763 6.35441 6.10607 6.0835 7.83301 6.0835Z" stroke="#9A9A9A" stroke-width="1.5" stroke-miterlimit="10"/>
</g>
</svg>
