<svg width="277" height="48" viewBox="0 0 277 48" fill="none" xmlns="http://www.w3.org/2000/svg">
<g clip-path="url(#clip0_73_6922)">
<path d="M64.3629 40.8051C62.3513 40.8051 61.9746 39.619 62.0598 38.2766H63.6876C63.6876 39.0223 63.7231 39.6403 64.6116 39.6403C65.159 39.6403 65.4291 39.2851 65.4291 38.7595C65.4291 37.3603 62.1523 37.2751 62.1523 34.9596C62.1523 33.745 62.7351 32.772 64.7183 32.772C66.3033 32.772 67.0852 33.4822 66.9786 35.1088H65.3935C65.3935 34.5263 65.294 33.9368 64.6401 33.9368C64.1141 33.9368 63.8013 34.228 63.8013 34.7678C63.8013 36.2452 67.0781 36.1173 67.0781 38.5607C67.0781 40.5707 65.5997 40.8051 64.3629 40.8051Z" fill="#002F67"/>
<path d="M69.5673 38.1983C69.5673 38.8446 69.5886 39.8106 70.2568 39.8106C70.797 39.8106 70.9036 39.2921 70.9036 38.8375H72.446C72.4247 39.4271 72.2328 39.91 71.8632 40.2439C71.5078 40.5777 70.9676 40.7695 70.2568 40.7695C68.2949 40.7695 68.0391 39.5762 68.0391 37.8716C68.0391 36.3871 68.2523 35.1157 70.2568 35.1157C72.2612 35.1157 72.5313 36.4368 72.4745 38.1841H69.5673V38.1983ZM70.9605 37.346C70.9605 36.8204 70.9818 36.0675 70.2639 36.0675C69.546 36.0675 69.5744 36.8843 69.5744 37.346H70.9676H70.9605Z" fill="#002F67"/>
<path d="M73.418 37.886C73.418 36.4015 73.6312 35.1301 75.6357 35.1301C77.6401 35.1301 77.8534 36.4015 77.8534 37.886C77.8534 39.5906 77.5975 40.7839 75.6357 40.7839C73.6739 40.7839 73.418 39.5906 73.418 37.886ZM76.3394 37.8007C76.3394 36.6714 76.2825 36.0961 75.6357 36.0961C74.9888 36.0961 74.9391 36.6643 74.9391 37.8007C74.9391 39.4557 75.0813 39.8108 75.6357 39.8108C76.1901 39.8108 76.3394 39.4557 76.3394 37.8007Z" fill="#002F67"/>
<path d="M81.592 40.1232H81.5707C81.2721 40.6062 80.8599 40.7767 80.2912 40.7767C79.5662 40.7767 78.9336 40.3505 78.9336 39.5905V35.2295H80.4547V39.001C80.4547 39.484 80.54 39.8391 81.0234 39.8391C81.5067 39.8391 81.592 39.484 81.592 39.001V35.2295H83.1131V39.5905C83.1131 39.9457 83.1344 40.3079 83.17 40.6702H81.5991V40.1232H81.592Z" fill="#002F67"/>
<path d="M85.9703 32.8999V40.6702H84.4492V32.8999H85.9703Z" fill="#002F67"/>
<path d="M89.7454 40.6773V32.907H92.3611L93.5766 38.1914H93.5979L94.8916 32.907H97.4221V40.6773H95.837V34.6827H95.8157L94.3159 40.6773H92.7663L91.3447 34.6827H91.3234V40.6773H89.7383H89.7454Z" fill="#002F67"/>
<path d="M100.081 38.1983C100.081 38.8446 100.102 39.8106 100.77 39.8106C101.311 39.8106 101.417 39.2921 101.417 38.8375H102.96C102.938 39.4271 102.746 39.91 102.377 40.2439C102.021 40.5777 101.481 40.7695 100.77 40.7695C98.8086 40.7695 98.5527 39.5762 98.5527 37.8716C98.5527 36.3871 98.766 35.1157 100.77 35.1157C102.775 35.1157 103.045 36.4368 102.988 38.1841H100.081V38.1983ZM101.467 37.346C101.467 36.8204 101.488 36.0675 100.77 36.0675C100.053 36.0675 100.081 36.8843 100.081 37.346H101.467Z" fill="#002F67"/>
<path d="M103.449 35.2366H104.06V34.3772L105.574 33.6953V35.2295H106.363V36.167H105.574V39.0721C105.574 39.484 105.567 39.7468 106.057 39.7468C106.157 39.7468 106.249 39.7468 106.327 39.7255V40.6631C106.121 40.6844 105.908 40.7128 105.538 40.7128C104.223 40.7128 104.053 39.8391 104.053 39.5053V36.1599H103.441V35.2224L103.449 35.2366Z" fill="#002F67"/>
<path d="M108.503 35.2367V35.9398H108.524C108.801 35.3148 109.32 35.1301 109.931 35.1301V36.4867C108.595 36.4015 108.574 37.1757 108.574 37.7155V40.6773H107.053V35.2367H108.496H108.503Z" fill="#002F67"/>
<path d="M110.516 37.886C110.516 36.4015 110.729 35.1301 112.733 35.1301C114.738 35.1301 114.951 36.4015 114.951 37.886C114.951 39.5906 114.695 40.7839 112.733 40.7839C110.772 40.7839 110.516 39.5906 110.516 37.886ZM113.437 37.8007C113.437 36.6714 113.38 36.0961 112.733 36.0961C112.087 36.0961 112.037 36.6643 112.037 37.8007C112.037 39.4557 112.179 39.8108 112.733 39.8108C113.288 39.8108 113.437 39.4557 113.437 37.8007Z" fill="#002F67"/>
<path d="M117.474 35.2367V35.8404H117.496C117.773 35.3148 118.199 35.1301 118.775 35.1301C120.346 35.1301 120.296 36.8774 120.296 37.9925C120.296 39.1076 120.339 40.7768 118.81 40.7768C118.263 40.7768 117.886 40.6134 117.574 40.1517H117.552V43.007H116.031V35.2367H117.474ZM118.81 37.9073C118.81 36.8206 118.825 36.0677 118.164 36.0677C117.503 36.0677 117.552 36.8206 117.552 37.9073C117.552 39.271 117.652 39.8463 118.164 39.8463C118.711 39.8463 118.81 39.2781 118.81 37.9073Z" fill="#002F67"/>
<path d="M121.283 37.886C121.283 36.4015 121.496 35.1301 123.501 35.1301C125.505 35.1301 125.719 36.4015 125.719 37.886C125.719 39.5906 125.463 40.7839 123.501 40.7839C121.539 40.7839 121.283 39.5906 121.283 37.886ZM124.205 37.8007C124.205 36.6714 124.148 36.0961 123.501 36.0961C122.854 36.0961 122.797 36.6643 122.797 37.8007C122.797 39.4557 122.939 39.8108 123.501 39.8108C124.062 39.8108 124.205 39.4557 124.205 37.8007Z" fill="#002F67"/>
<path d="M128.449 32.8999V40.6702H126.928V32.8999H128.449Z" fill="#002F67"/>
<path d="M131.441 32.8999V34.0932H129.92V32.8999H131.441ZM131.441 40.6702H129.92V35.2296H131.441V40.6702Z" fill="#002F67"/>
<path d="M132.174 35.2366H132.785V34.3772L134.306 33.6953V35.2295H135.095V36.167H134.306V39.0721C134.306 39.484 134.299 39.7468 134.79 39.7468C134.889 39.7468 134.981 39.7468 135.06 39.7255V40.6631C134.854 40.6844 134.64 40.7128 134.271 40.7128C132.956 40.7128 132.785 39.8391 132.785 39.5053V36.1599H132.174V35.2224V35.2366Z" fill="#002F67"/>
<path d="M139.908 39.6616C139.908 39.9954 139.951 40.3364 139.986 40.6773H138.579L138.515 39.9528H138.493C138.174 40.5139 137.733 40.7838 137.072 40.7838C136.013 40.7838 135.629 40.0026 135.629 39.0508C135.629 37.2538 137.015 37.1757 138.429 37.2041V36.785C138.429 36.3234 138.365 35.9895 137.818 35.9895C137.271 35.9895 137.25 36.3873 137.25 36.8205H135.764C135.764 36.1671 135.97 35.7409 136.325 35.4923C136.674 35.2366 137.164 35.1372 137.747 35.1372C139.673 35.1372 139.922 35.9682 139.922 36.9555V39.6687L139.908 39.6616ZM137.107 38.9869C137.107 39.3775 137.171 39.8463 137.669 39.8463C138.565 39.8463 138.422 38.6388 138.422 38.0493C137.669 38.0848 137.107 38.0209 137.107 38.9869Z" fill="#002F67"/>
<path d="M142.687 35.7907H142.708C142.858 35.5421 143.043 35.3787 143.249 35.2864C143.462 35.1798 143.711 35.1372 143.988 35.1372C144.713 35.1372 145.346 35.5634 145.346 36.3234V40.6844H143.824V36.9413C143.824 36.4583 143.739 36.0748 143.256 36.0748C142.772 36.0748 142.687 36.4512 142.687 36.9413V40.6844H141.166V35.2437H142.687V35.7978V35.7907Z" fill="#002F67"/>
<path d="M148.99 40.6773V32.907H153.028V34.1002H150.618V36.089H152.921V37.2822H150.618V40.6773H148.99Z" fill="#002F67"/>
<path d="M155.373 32.8999V34.0932H153.852V32.8999H155.373ZM155.373 40.6702H153.852V35.2296H155.373V40.6702Z" fill="#002F67"/>
<path d="M158.166 35.2367V35.9398H158.188C158.465 35.3148 158.984 35.1301 159.602 35.1301V36.4867C158.266 36.4015 158.244 37.1757 158.244 37.7155V40.6773H156.73V35.2367H158.173H158.166Z" fill="#002F67"/>
<path d="M161.708 38.1983C161.708 38.8446 161.729 39.8106 162.397 39.8106C162.938 39.8106 163.044 39.2921 163.044 38.8375H164.587C164.565 39.4271 164.373 39.91 164.004 40.2439C163.648 40.5777 163.108 40.7695 162.397 40.7695C160.436 40.7695 160.18 39.5762 160.18 37.8716C160.18 36.3871 160.393 35.1157 162.397 35.1157C164.402 35.1157 164.672 36.4368 164.615 38.1841H161.708V38.1983ZM163.094 37.346C163.094 36.8204 163.115 36.0675 162.39 36.0675C161.665 36.0675 161.701 36.8843 161.701 37.346H163.087H163.094Z" fill="#002F67"/>
<path d="M172.555 40.0593C171.943 40.6631 171.218 40.798 170.387 40.798C168.603 40.798 167.607 39.9599 167.607 38.4399C167.607 37.4029 168.332 36.7495 169.136 36.2239C168.723 35.6983 168.276 35.0803 168.276 34.2777C168.276 33.4183 169.299 32.772 170.628 32.772C171.368 32.772 172.597 33.12 172.597 34.2919C172.597 35.3005 171.894 35.819 171.268 36.3801L172.484 37.9711C172.626 37.4669 172.654 37.1756 172.654 36.4228H173.969C173.969 37.2325 173.969 38.241 173.436 39.0792L174.609 40.6702H173.017L172.54 40.0593H172.555ZM170.024 37.1827C169.633 37.4882 169.235 37.9285 169.235 38.447C169.235 39.1857 169.676 39.6403 170.422 39.6403C170.884 39.6403 171.325 39.4911 171.609 39.1218L170.024 37.1827ZM171.112 34.4056C171.112 33.9936 170.863 33.7379 170.444 33.7379C170.102 33.7379 169.768 33.9865 169.768 34.3559C169.768 34.7962 170.06 35.1514 170.337 35.471C170.714 35.2366 171.112 34.8886 171.112 34.4056Z" fill="#002F67"/>
<path d="M177.766 32.8999H180.481C182.613 32.8999 183.011 34.3204 183.011 36.7425C183.011 37.9357 183.196 40.6702 180.417 40.6702H177.766V32.8999ZM179.393 39.477H180.182C181.17 39.477 181.369 38.7383 181.369 36.7851C181.369 35.3574 181.369 34.0932 180.239 34.0932H179.4V39.477H179.393Z" fill="#002F67"/>
<path d="M185.881 32.8999V34.0932H184.367V32.8999H185.881ZM185.881 40.6702H184.367V35.2296H185.881V40.6702Z" fill="#002F67"/>
<path d="M188.425 38.9301C188.418 39.1787 188.425 39.4131 188.496 39.5906C188.581 39.7611 188.745 39.8463 189.051 39.8463C189.356 39.8463 189.612 39.6545 189.612 39.2852C189.612 38.1346 186.939 38.3903 186.939 36.6572C186.939 35.4853 188.105 35.1301 189.079 35.1301C190.11 35.1301 191.048 35.6273 190.963 36.7993H189.477C189.477 36.4228 189.434 36.1955 189.328 36.1032C189.228 36.0038 189.1 35.9825 188.937 35.9825C188.603 35.9825 188.418 36.1955 188.418 36.5649C188.418 37.4243 191.091 37.3817 191.091 39.1289C191.091 40.0736 190.316 40.7839 189.051 40.7839C187.728 40.7839 186.84 40.45 186.932 38.9301H188.418H188.425Z" fill="#002F67"/>
<path d="M196.138 39.6616C196.138 39.9954 196.18 40.3364 196.216 40.6773H194.801L194.737 39.9528H194.716C194.389 40.5139 193.948 40.7838 193.294 40.7838C192.243 40.7838 191.852 40.0026 191.852 39.0508C191.852 37.2538 193.245 37.1757 194.652 37.2041V36.785C194.652 36.3234 194.588 35.9895 194.041 35.9895C193.494 35.9895 193.472 36.3873 193.472 36.8205H191.987C191.987 36.1671 192.193 35.7409 192.548 35.4923C192.896 35.2366 193.387 35.1372 193.97 35.1372C195.896 35.1372 196.145 35.9682 196.145 36.9555V39.6687L196.138 39.6616ZM193.337 38.9869C193.337 39.3775 193.401 39.8463 193.899 39.8463C194.794 39.8463 194.652 38.6388 194.652 38.0493C193.899 38.0848 193.337 38.0209 193.337 38.9869Z" fill="#002F67"/>
<path d="M198.59 38.9301C198.583 39.1787 198.59 39.4131 198.661 39.5906C198.746 39.7611 198.91 39.8463 199.216 39.8463C199.521 39.8463 199.777 39.6545 199.777 39.2852C199.777 38.1346 197.105 38.3903 197.105 36.6572C197.105 35.4853 198.27 35.1301 199.251 35.1301C200.282 35.1301 201.22 35.6273 201.135 36.7993H199.649C199.649 36.4228 199.607 36.1955 199.5 36.1032C199.4 36.0038 199.272 35.9825 199.109 35.9825C198.775 35.9825 198.59 36.1955 198.59 36.5649C198.59 37.4243 201.263 37.3817 201.263 39.1289C201.263 40.0736 200.488 40.7839 199.223 40.7839C197.901 40.7839 197.012 40.45 197.097 38.9301H198.583H198.59Z" fill="#002F67"/>
<path d="M201.562 35.2366H202.174V34.3772L203.695 33.6953V35.2295H204.484V36.167H203.695V39.0721C203.695 39.484 203.688 39.7468 204.178 39.7468C204.278 39.7468 204.37 39.7468 204.448 39.7255V40.6631C204.242 40.6844 204.029 40.7128 203.659 40.7128C202.344 40.7128 202.174 39.8391 202.174 39.5053V36.1599H201.562V35.2224V35.2366Z" fill="#002F67"/>
<path d="M206.573 38.1985C206.573 38.8449 206.594 39.8108 207.263 39.8108C207.803 39.8108 207.909 39.2924 207.909 38.8378H209.452C209.431 39.4273 209.239 39.9103 208.869 40.2441C208.514 40.5779 207.973 40.7697 207.263 40.7697C205.301 40.7697 205.045 39.5765 205.045 37.8718C205.045 36.3873 205.258 35.116 207.263 35.116C209.267 35.116 209.537 36.4371 209.48 38.1843H206.573V38.1985ZM207.966 37.3462C207.966 36.8206 207.988 36.0677 207.263 36.0677C206.538 36.0677 206.573 36.8845 206.573 37.3462H207.966Z" fill="#002F67"/>
<path d="M212.005 35.2367V35.9398H212.026C212.303 35.3148 212.822 35.1301 213.433 35.1301V36.4867C212.097 36.4015 212.076 37.1757 212.076 37.7155V40.6773H210.555V35.2367H211.998H212.005Z" fill="#002F67"/>
<path d="M220.158 36.0109V32.8999H221.786V40.6702H220.158V37.2041H218.296V40.6702H216.668V32.8999H218.296V36.0109H220.158Z" fill="#002F67"/>
<path d="M224.52 38.1983C224.52 38.8446 224.542 39.8106 225.21 39.8106C225.75 39.8106 225.857 39.2921 225.857 38.8375H227.399C227.378 39.4271 227.179 39.91 226.816 40.2439C226.461 40.5777 225.921 40.7695 225.21 40.7695C223.248 40.7695 222.992 39.5762 222.992 37.8716C222.992 36.3871 223.205 35.1157 225.21 35.1157C227.214 35.1157 227.484 36.4368 227.428 38.1841H224.52V38.1983ZM225.906 37.346C225.906 36.8204 225.928 36.0675 225.203 36.0675C224.478 36.0675 224.513 36.8843 224.513 37.346H225.899H225.906Z" fill="#002F67"/>
<path d="M232.63 39.6616C232.63 39.9954 232.673 40.3364 232.708 40.6773H231.294L231.23 39.9528H231.208C230.881 40.5139 230.441 40.7838 229.787 40.7838C228.728 40.7838 228.344 40.0026 228.344 39.0508C228.344 37.2538 229.737 37.1757 231.144 37.2041V36.785C231.144 36.3234 231.08 35.9895 230.533 35.9895C229.986 35.9895 229.957 36.3873 229.957 36.8205H228.472C228.472 36.1671 228.678 35.7409 229.033 35.4923C229.382 35.2366 229.872 35.1372 230.455 35.1372C232.381 35.1372 232.63 35.9682 232.63 36.9555V39.6687V39.6616ZM229.829 38.9869C229.829 39.3775 229.893 39.8463 230.391 39.8463C231.286 39.8463 231.144 38.6388 231.144 38.0493C230.391 38.0848 229.829 38.0209 229.829 38.9869Z" fill="#002F67"/>
<path d="M236.603 40.6773V40.0736H236.582C236.305 40.5992 235.885 40.7839 235.303 40.7839C233.732 40.7839 233.781 39.0437 233.781 37.9215C233.781 36.7993 233.739 35.1372 235.267 35.1372C235.814 35.1372 236.191 35.3006 236.504 35.7623H236.525V32.907H238.039V40.6773H236.596H236.603ZM236.525 37.9073C236.525 36.8206 236.539 36.0677 235.907 36.0677C235.274 36.0677 235.26 36.8206 235.26 37.9073C235.26 39.271 235.359 39.8463 235.907 39.8463C236.426 39.8463 236.525 39.2781 236.525 37.9073Z" fill="#002F67"/>
<path d="M243.456 43.007H241.935V40.1517H241.914C241.601 40.6134 241.225 40.7768 240.677 40.7768C239.142 40.7768 239.192 39.0863 239.192 37.9925C239.192 36.8987 239.135 35.1301 240.713 35.1301C241.296 35.1301 241.715 35.3148 241.992 35.8404H242.014V35.2367H243.456V43.007ZM241.935 37.9073C241.935 36.8206 241.95 36.0677 241.324 36.0677C240.67 36.0677 240.677 36.8206 240.677 37.9073C240.677 39.271 240.77 39.8463 241.324 39.8463C241.843 39.8463 241.935 39.2781 241.935 37.9073Z" fill="#002F67"/>
<path d="M247.324 40.1232H247.303C247.005 40.6062 246.592 40.7767 246.024 40.7767C245.299 40.7767 244.666 40.3505 244.666 39.5905V35.2295H246.187V39.001C246.187 39.484 246.272 39.8391 246.756 39.8391C247.239 39.8391 247.324 39.484 247.324 39.001V35.2295H248.846V39.5905C248.846 39.9457 248.867 40.3079 248.895 40.6702H247.324V40.1232Z" fill="#002F67"/>
<path d="M254.168 39.6616C254.168 39.9954 254.21 40.3364 254.246 40.6773H252.839L252.775 39.9528H252.753C252.426 40.5139 251.986 40.7838 251.332 40.7838C250.28 40.7838 249.889 40.0026 249.889 39.0508C249.889 37.2538 251.275 37.1757 252.689 37.2041V36.785C252.689 36.3234 252.625 35.9895 252.078 35.9895C251.531 35.9895 251.509 36.3873 251.509 36.8205H250.024C250.024 36.1671 250.23 35.7409 250.585 35.4923C250.926 35.2366 251.424 35.1372 252.007 35.1372C253.94 35.1372 254.182 35.9682 254.182 36.9555V39.6687L254.168 39.6616ZM251.367 38.9869C251.367 39.3775 251.431 39.8463 251.929 39.8463C252.824 39.8463 252.682 38.6388 252.682 38.0493C251.929 38.0848 251.367 38.0209 251.367 38.9869Z" fill="#002F67"/>
<path d="M256.876 35.2367V35.9398H256.897C257.181 35.3148 257.693 35.1301 258.305 35.1301V36.4867C256.968 36.4015 256.947 37.1757 256.947 37.7155V40.6773H255.426V35.2367H256.869H256.876Z" fill="#002F67"/>
<path d="M258.406 35.2366H259.018V34.3772L260.539 33.6953V35.2295H261.328V36.167H260.539V39.0721C260.539 39.484 260.524 39.7468 261.022 39.7468C261.122 39.7468 261.214 39.7468 261.292 39.7255V40.6631C261.086 40.6844 260.873 40.7128 260.503 40.7128C259.188 40.7128 259.018 39.8391 259.018 39.5053V36.1599H258.406V35.2224V35.2366Z" fill="#002F67"/>
<path d="M263.415 38.1983C263.415 38.8446 263.436 39.8106 264.104 39.8106C264.645 39.8106 264.751 39.2921 264.751 38.8375H266.294C266.272 39.4271 266.073 39.91 265.711 40.2439C265.355 40.5777 264.815 40.7695 264.104 40.7695C262.143 40.7695 261.887 39.5762 261.887 37.8716C261.887 36.3871 262.1 35.1157 264.104 35.1157C266.109 35.1157 266.379 36.4368 266.322 38.1841H263.415V38.1983ZM264.808 37.346C264.808 36.8204 264.829 36.0675 264.104 36.0675C263.379 36.0675 263.415 36.8843 263.415 37.346H264.808Z" fill="#002F67"/>
<path d="M268.839 35.2367V35.9398H268.861C269.138 35.3148 269.657 35.1301 270.275 35.1301V36.4867C268.939 36.4015 268.918 37.1757 268.918 37.7155V40.6773H267.396V35.2367H268.839Z" fill="#002F67"/>
<path d="M272.181 38.9301C272.167 39.1787 272.181 39.4131 272.259 39.5906C272.344 39.7611 272.508 39.8463 272.806 39.8463C273.105 39.8463 273.368 39.6545 273.368 39.2852C273.368 38.1346 270.695 38.3903 270.695 36.6572C270.695 35.4853 271.861 35.1301 272.842 35.1301C273.88 35.1301 274.811 35.6273 274.726 36.7993H273.24C273.24 36.4228 273.197 36.1955 273.091 36.1032C272.991 36.0038 272.863 35.9825 272.707 35.9825C272.373 35.9825 272.188 36.1955 272.188 36.5649C272.188 37.4243 274.861 37.3817 274.861 39.1289C274.861 40.0736 274.086 40.7839 272.828 40.7839C271.506 40.7839 270.617 40.45 270.702 38.9301H272.188H272.181Z" fill="#002F67"/>
<path d="M67.7108 14.9795C67.8103 14.5463 67.8956 14.0846 67.9596 13.6229C68.0307 13.147 68.0591 12.6428 68.0591 12.1172V9.38262H65.4505V12.5575C65.4505 13.2039 65.3581 13.8786 65.1732 14.5534C64.9884 15.2281 64.697 15.9029 64.299 16.5492C63.9009 17.1956 63.382 17.8206 62.7565 18.4101C62.131 18.9997 61.3633 19.5253 60.4819 19.9656L60.418 19.994L60.4606 20.0438L62.0457 21.8478L62.0741 21.8763L62.1097 21.8549C62.9271 21.3933 63.7587 20.7895 64.5833 20.0509C65.3936 19.3264 66.1044 18.4386 66.6944 17.4087L71.1795 21.7839L71.2151 21.8194L71.2506 21.7839L72.8783 20.0864L72.9139 20.0509L72.8783 20.0154L67.6966 14.9724L67.7108 14.9795ZM75.622 7.37256V13.4454H70.682V15.8248H75.622V27.7928H78.0956V7.37256H75.622Z" fill="#002F67"/>
<path d="M98.9575 18.8861V16.5493H79.709V18.8861H87.997V19.8947H83.9098V22.1889H92.1125V22.9773H84.0236V28.5316H95.2329V26.1522H86.5896V25.2572H94.6998V19.9018H90.499V18.8932H98.9646L98.9575 18.8861ZM85.3812 14.8589C85.8717 15.2353 86.4474 15.5194 87.0871 15.7183C87.7197 15.9101 88.4021 16.0095 89.1271 16.0095C89.8877 16.0095 90.6056 15.903 91.2524 15.697C91.8993 15.491 92.475 15.1927 92.9584 14.8163C93.4275 14.4256 93.8042 13.9568 94.0814 13.4241C94.3586 12.8914 94.5008 12.2948 94.5008 11.6485C94.5008 11.0021 94.3586 10.3558 94.0672 9.80886C93.7829 9.26195 93.3919 8.79317 92.9157 8.41673C92.4395 8.02608 91.8637 7.72777 91.2098 7.51469C90.5558 7.30161 89.8593 7.19507 89.1271 7.19507C88.395 7.19507 87.6771 7.30161 87.0303 7.51469C86.3834 7.72067 85.8219 8.02608 85.3599 8.41673C84.8765 8.80738 84.4998 9.28326 84.2297 9.83017C83.9596 10.3771 83.8245 10.995 83.8245 11.6698C83.8245 12.3445 83.9667 12.9554 84.2439 13.4952C84.5211 14.0279 84.905 14.4895 85.3883 14.8589H85.3812ZM87.1298 10.0077C87.6629 9.62419 88.331 9.42531 89.12 9.42531C89.909 9.42531 90.5487 9.62419 91.1032 10.0148C91.6505 10.4055 91.9348 10.9453 91.9348 11.6271C91.9348 12.3516 91.6576 12.8914 91.1103 13.2395C90.5558 13.5875 89.8877 13.7651 89.1271 13.7651C88.3666 13.7651 87.67 13.5733 87.1369 13.1968C86.6109 12.8204 86.3408 12.2948 86.3408 11.6343C86.3408 10.9737 86.6109 10.3984 87.1369 10.0148L87.1298 10.0077Z" fill="#002F67"/>
<path d="M103.863 23.8934H112.421V28.7801H114.916V21.5069H103.863V23.8934ZM99.8398 18.0053V20.3634H119.067V18.0053H99.8398ZM114.866 14.5889H106.422V13.6443H114.468V11.2649H106.422V10.4125H114.731V8.05444H103.948V16.9541H114.866V14.596V14.5889Z" fill="#002F67"/>
<path d="M129.344 8.4664H126.849V11.1441H122.62V8.4664H120.146V17.8562H129.344V8.4664ZM126.849 15.4981H122.62V13.5022H126.849V15.4981ZM127.603 25.1293H135.535V19.4259H124.888V21.7839H132.969V22.8422H124.994V28.5528H136.068V26.1947H127.603V25.1364V25.1293ZM133.801 7.36548V10.512H129.956V12.8701H133.801V14.3758H129.956V16.7126H133.801V18.8789H136.253V7.37258H133.801V7.36548Z" fill="#002F67"/>
<path d="M144.932 15.0009C145.032 14.5818 145.117 14.1343 145.181 13.6797C145.252 13.211 145.288 12.7067 145.288 12.1882V9.38972H142.679V12.6357C142.679 13.282 142.587 13.9497 142.402 14.6102C142.217 15.2708 141.933 15.9384 141.549 16.5848C141.151 17.2169 140.632 17.8348 140.006 18.4243C139.381 19.0139 138.606 19.5608 137.703 20.0509L137.646 20.0793L137.689 20.129L139.274 21.9331L139.303 21.9615L139.338 21.9402C140.191 21.4785 141.037 20.8748 141.862 20.1361C142.672 19.4116 143.376 18.5167 143.951 17.4655L148.415 21.8621L148.451 21.8976L148.486 21.8549L150.114 20.1574L150.15 20.1219L150.114 20.0864L144.932 14.9937V15.0009ZM152.531 7.37966V27.7999H155.026V7.37256H152.531V7.37966Z" fill="#002F67"/>
<path d="M171.139 22.9277V17.9984H168.665V22.9277H160.555V25.2858H179.761V22.9277H171.139ZM164.08 20.2926L164.102 20.321L164.137 20.3068C165.388 19.8167 166.533 19.1278 167.535 18.2683C168.523 17.4231 169.34 16.4643 169.98 15.4273L175.723 20.2571L175.759 20.2926L175.794 20.2571L177.379 18.5169L177.415 18.4743L177.372 18.4388L171.032 13.0976C171.131 12.7211 171.217 12.3376 171.288 11.9683C171.352 11.5776 171.387 11.187 171.387 10.7963V9.13428H168.715V10.7963C168.715 11.6202 168.551 12.4228 168.224 13.1828C167.904 13.9499 167.449 14.6744 166.895 15.3349C166.334 15.9884 165.672 16.585 164.926 17.1106C164.18 17.6433 163.369 18.0837 162.517 18.4246L162.445 18.453L162.495 18.5098L164.08 20.2926Z" fill="#002F67"/>
<path d="M189.172 8.69366H186.677V11.8402H182.448V8.69366H179.953V18.5309H189.172V8.69366ZM186.677 16.1941H182.448V14.1769H186.677V16.1941ZM193.622 20.9174C193.139 20.5125 192.577 20.1929 191.959 19.9727C191.34 19.7455 190.679 19.6318 190.011 19.6318C189.343 19.6318 188.66 19.7526 188.035 19.9798C187.417 20.2142 186.869 20.5338 186.4 20.9387C185.917 21.3436 185.54 21.8336 185.27 22.3948C185 22.9559 184.865 23.5667 184.865 24.213C184.865 24.8594 184.993 25.4702 185.249 26.0313C185.504 26.5924 185.867 27.0896 186.336 27.5087C186.798 27.9135 187.353 28.2403 187.971 28.4818C188.589 28.7233 189.286 28.844 190.032 28.844C190.736 28.844 191.404 28.7233 192.03 28.4818C192.648 28.2403 193.202 27.9064 193.665 27.4874C194.134 27.0683 194.503 26.5711 194.773 26.01C195.043 25.4489 195.179 24.8381 195.179 24.1917C195.179 23.5454 195.029 22.9133 194.752 22.3592C194.468 21.8052 194.084 21.3151 193.622 20.9103V20.9174ZM191.888 25.8822C191.397 26.2941 190.779 26.5072 190.032 26.5072C189.236 26.5072 188.582 26.2799 188.113 25.8325C187.637 25.385 187.402 24.831 187.402 24.1988C187.402 23.5667 187.658 23.0624 188.156 22.622C188.66 22.1817 189.286 21.9544 190.011 21.9544C190.736 21.9544 191.383 22.1746 191.873 22.6007C192.364 23.0269 192.613 23.5809 192.613 24.2486C192.613 24.9162 192.371 25.4844 191.88 25.8964L191.888 25.8822ZM195.292 12.1314V7.37256H192.776V19.5608H195.292V14.4895H198.797V12.1314H195.292Z" fill="#002F67"/>
<path d="M206.766 16.1728C207.292 15.2565 207.739 14.2977 208.08 13.3104C208.429 12.3018 208.663 11.2719 208.763 10.2491V10.1923H200.347V12.5504H205.578C205.387 13.2181 205.109 13.907 204.747 14.596C204.37 15.3063 203.901 15.9952 203.354 16.6416C202.792 17.2879 202.145 17.913 201.442 18.4883C200.731 19.0636 199.942 19.5679 199.103 20.0011L199.039 20.0296L199.089 20.0793L200.788 21.8407L200.816 21.8692L200.852 21.8549C201.697 21.4572 202.515 20.9387 203.275 20.3066C204.022 19.6957 204.704 18.9997 205.323 18.2468L208.571 21.8407L208.606 21.8834L208.642 21.8478L210.32 20.1929L210.355 20.1574L210.32 20.1219L206.773 16.1728H206.766ZM215.316 7.37966V14.1627H213.056V7.82003H210.583V26.4078H213.056V16.5208H215.316V27.7928H217.79V7.37256H215.316V7.37966Z" fill="#002F67"/>
<path d="M230.315 16.0378H222.589V8.71497H220.137V18.4172H230.315V16.0378ZM226.832 20.7682H224.316V28.3539H235.568V25.9745H226.832V20.7753V20.7682ZM235.298 12.0816V7.37256H232.803V22.1675H235.298V14.4681H238.781V12.0887H235.298V12.0816Z" fill="#002F67"/>
<path d="M244.544 21.8125H242.092V28.3256H253.408V25.9462H244.537V21.8125H244.544ZM248.589 18.531V17.0537H252.726V8.17529H250.231V10.7181H244.459V8.17529H241.986V17.0537H246.051V18.531H237.898V20.8678H257.147V18.531H248.589ZM244.459 14.6956V13.0122H250.231V14.6956H244.459Z" fill="#002F67"/>
<path d="M257.8 19.0565V21.4359H266.152V28.1763H268.668V21.4359H276.999V19.0565H257.793H257.8ZM272.67 8.45215H270.204V11.0872H264.233V8.45215H261.759V17.643H272.677V8.45215H272.67ZM270.204 15.3062H264.233V13.4453H270.204V15.3062Z" fill="#002F67"/>
<path d="M51.3486 24C51.3486 37.2607 40.5941 48.0071 27.3305 48.0071C14.067 48.0071 3.3125 37.2607 3.3125 24C3.3125 10.7393 14.0598 0 27.3305 0C40.6012 0 51.3486 10.7464 51.3486 24Z" fill="#FAA61A"/>
<path d="M48.9382 23.9999C48.9382 35.9253 39.2642 45.5921 27.3298 45.5921C15.3954 45.5921 5.72852 35.9253 5.72852 23.9999C5.72852 12.0745 15.3954 2.41479 27.3298 2.41479C39.2642 2.41479 48.9382 12.0816 48.9382 23.9999Z" fill="#002F67"/>
<path d="M6.93617 24.1775C6.81533 24.1207 6.794 24.1775 6.88641 24.2486H6.90773C7.41951 24.6321 7.53324 25.0796 7.32 25.4631C6.99303 26.0456 6.42439 26.074 6.20404 25.7259C5.92682 25.2785 6.36041 24.7529 6.77268 25.2287C7.2347 24.071 4.96724 24.1917 5.33686 25.7046C4.71135 25.5697 4.02187 25.2287 3.45323 24.6605C3.3395 24.5469 3.29685 24.6179 3.36793 24.7245C3.90814 25.5413 4.69003 26.0669 5.50745 26.4575C6.28223 26.7771 6.95749 27.1536 7.24181 27.7218C7.42662 28.084 7.12097 28.3326 6.85087 28.425C5.65672 28.8298 4.61184 29.9236 4.96724 31.9976H3.1618C3.01964 31.6496 2.89169 31.0601 3.19023 30.3214C3.21866 30.2645 3.19023 30.2148 3.14048 30.2574C2.72821 30.641 2.52208 31.2305 2.68556 31.9905H2.03873C1.89657 31.6851 1.72598 31.1027 2.03873 30.364C2.06005 30.3143 2.04584 30.2646 1.99608 30.3143C1.78995 30.506 1.35636 31.0529 1.49852 31.9905H0.951202C0.766393 31.9905 0.695312 31.8769 0.695312 31.7064C0.695312 28.9221 3.4248 28.773 4.64027 29.3341H4.64738C4.73978 29.3909 4.76822 29.3554 4.71135 29.2915L4.69713 29.2702C4.48389 29.0145 3.90814 28.5244 2.7211 28.6167C2.85615 28.2119 3.03385 27.1749 2.451 25.314C1.22131 21.3862 2.89169 16.7339 6.36041 14.8375C7.54746 14.1912 8.5639 14.0562 9.32446 14.3048C9.1823 14.4753 9.16809 14.8162 9.28182 14.9725C8.59234 14.6741 7.4124 15.2139 7.79624 15.7395L7.81756 15.7609C7.86732 15.8319 7.89575 15.8106 7.88153 15.7253V15.6969C7.86732 15.4767 8.02369 15.3276 8.25115 15.2566C7.95261 15.5123 8.26537 16.0237 8.64209 15.8106C8.17296 15.7609 8.34355 15.2139 8.61366 15.1997C9.05436 15.15 9.76516 15.5691 9.36 15.7111C9.26049 15.7466 8.9122 15.8248 8.7345 15.9668C8.66342 16.0165 8.67763 16.0308 8.74871 16.0237C9.15387 16.0094 9.33868 15.9455 9.67276 15.8887C11.926 15.491 12.6795 16.8476 12.5942 17.4016C12.5728 17.3163 12.4165 17.1175 12.3383 17.2524C12.2103 17.5152 11.7412 17.572 11.3431 17.1459C11.2081 16.9896 10.9096 16.947 10.5968 17.0038C10.0921 17.0891 9.85757 17.0749 9.63722 16.6203C9.58746 16.5919 9.58746 16.6203 9.59457 16.6558C9.61589 17.0038 9.68697 17.636 10.348 17.7425C10.5826 17.7993 10.8243 17.5294 11.1654 17.7425C11.3929 17.9485 11.6417 18.2113 12.0113 18.1189C12.3454 18.0408 12.3596 18.1758 12.4022 18.2823C12.4662 18.5735 12.3241 18.6943 12.0824 18.5238C11.9758 18.4528 11.8265 18.3746 11.6772 18.3533C10.5968 18.2184 9.56614 19.1417 8.72739 17.6573C8.62077 17.4726 8.44307 17.2808 8.24404 17.224C7.87443 17.1175 7.63986 17.3376 7.47638 17.6147C7.22759 18.055 7.4124 17.8988 7.68962 17.7141C7.83178 17.6289 8.09477 17.6431 8.22983 17.7567C8.30802 17.8348 8.3862 18.0337 8.27247 18.2113C8.05923 18.5238 7.81756 18.8363 7.66829 18.8789C7.46927 18.9287 7.41951 18.609 7.39819 18.4244C7.38397 18.3178 7.33421 18.3249 7.31289 18.4386C7.26313 18.7298 7.28446 19.1488 7.54035 19.163C7.9384 19.1915 8.28669 18.7653 8.54258 18.3604C8.59944 18.3036 8.65631 18.3107 8.71317 18.3604C9.24628 18.9358 9.90021 18.9855 10.7887 18.7866C11.0944 18.7156 11.4142 18.7014 11.663 18.744C12.253 18.8576 12.3667 19.2483 12.3169 19.646C12.2388 20.0154 12.1677 20.058 12.0042 20.1787C11.9331 20.2355 11.9331 20.2995 11.99 20.3066C11.99 20.3066 12.0539 20.3918 11.9544 20.5978C11.9189 20.6617 11.8834 20.7256 11.8407 20.7754C11.8194 20.8109 11.7981 20.8322 11.7981 20.8393C11.5848 21.1447 11.3645 21.3649 11.2294 21.4714C10.8314 21.7626 10.7105 21.9402 10.9877 21.9331C11.0588 21.9331 11.137 21.9189 11.201 21.8905C11.2223 21.9047 11.2365 21.926 11.265 21.9402C12.0326 22.4587 13.2765 23.8934 14.0868 25.2145C14.165 25.3495 14.5702 25.3779 15.1175 25.8964C16.859 27.5371 17.8754 29.3341 18.0389 31.7277C18.0389 31.884 17.9394 31.9976 17.783 31.9976H15.5156C15.4516 31.7561 15.4232 31.4081 15.6009 30.9961C15.6222 30.9535 15.608 30.9251 15.5724 30.9535C15.3094 31.1879 15.1602 31.5572 15.2241 31.9905H14.819C14.7408 31.7703 14.6768 31.4152 14.8687 30.9748C14.8829 30.9464 14.8687 30.9109 14.8403 30.9393C14.7052 31.0601 14.4494 31.33 14.4849 31.9905H14.2219C14.0797 31.9905 13.9305 31.9621 13.9376 31.7774C13.8736 30.4918 16.1055 29.0784 17.4703 30.9677V30.9819C17.5485 31.0956 17.5982 31.0672 17.5556 30.9535L17.5413 30.9251C17.2286 30.1296 16.1695 29.4335 15.0678 29.8242C14.6839 29.1991 14.3996 28.6806 14.4494 27.1252C14.4494 26.9973 14.3996 26.9973 14.3712 27.111C14.1792 27.9349 14.2077 29.1565 14.5489 30.0728C13.966 30.3853 13.6817 30.9038 13.568 31.4507C13.5324 31.6496 13.1557 31.6496 13.2197 31.4081C13.3263 31.0103 13.5182 29.0784 13.3263 28.2119C13.4258 27.3098 13.3263 26.5001 12.7292 26.0669C12.914 26.0029 13.042 25.8467 13.0349 25.6052C13.0562 25.0228 12.1464 24.2841 12.0682 24.9304C12.0682 24.9304 12.0682 25.0086 12.0753 24.9588C12.2103 24.6534 12.8643 25.1293 12.6084 25.4915C12.3738 25.8183 11.6914 25.3637 11.7341 24.8168C11.8123 23.794 12.8998 24.5682 13.5609 25.5271C14.0442 26.2302 14.5773 26.422 14.9043 26.4646C15.0322 26.4859 15.0393 26.4362 14.9327 26.3936H14.9043C14.5275 26.2373 14.0868 25.9035 13.4969 24.9304C11.8549 22.2172 10.3622 23.6661 11.3858 25.3495C11.5635 25.6336 11.791 25.8396 12.0184 25.9603C11.5777 26.5427 12.6937 27.5158 12.8358 27.0399C12.8643 26.9547 12.8216 26.8482 12.7505 26.7416C12.5373 27.1323 12.1321 26.1308 12.5657 26.3297C12.8998 26.4859 13.2339 27.253 13.0846 27.8638C12.9425 27.6437 12.5657 27.2317 12.2672 27.4164C12.1321 27.4945 12.1179 27.736 12.2388 27.9917C12.4093 28.3468 12.779 28.5102 12.8429 28.3113C12.8643 28.2474 12.8429 28.1551 12.7861 28.0698C12.7363 28.219 12.5231 28.0911 12.4946 27.8567C12.4804 27.7431 12.5302 27.6721 12.651 27.7431C12.9851 27.9207 13.042 28.2829 13.0562 28.9719C13.0277 32.1041 12.0397 32.0047 11.7128 32.0047H8.77715C8.5639 31.6567 8.23693 30.8967 8.5639 29.8739C8.58523 29.81 8.5639 29.7461 8.49993 29.8171C8.25826 30.087 7.80334 30.6694 8.05213 32.0118H7.24181C7.02146 31.6638 6.7016 30.9038 7.02857 29.881C7.04989 29.8171 7.02857 29.7532 6.9646 29.8242C6.72292 30.0941 6.26801 30.6765 6.51679 32.0189H5.97658C5.61407 32.0189 5.57142 31.82 5.52167 31.4578C5.2018 27.7502 10.1703 28.3042 12.0042 29.6679L12.0255 29.6821C12.125 29.7603 12.1606 29.7176 12.0824 29.6253L12.0682 29.604C11.4213 28.8582 9.97129 28.1622 8.26537 28.1977C7.80334 28.219 7.66829 27.9278 7.65408 27.6863C7.62564 27.1678 7.61143 26.9547 7.62564 26.7416C7.62564 25.6265 9.27471 24.6605 10.0495 23.2258C10.1632 23.0127 10.085 22.9559 9.94997 23.1477C9.34579 23.9716 8.64209 24.7102 7.86021 25.2003C7.86021 25.179 7.86021 25.1577 7.84599 25.1364C7.78202 24.76 7.34843 24.3622 6.94327 24.206H6.92906L6.93617 24.1775Z" fill="white"/>
<path d="M9.56004 14.596C9.67377 13.9994 10.6262 13.9923 10.5978 14.5463C10.5765 14.873 10.0647 14.873 10.1216 14.5818C10.1216 14.5676 10.1074 14.5534 10.086 14.5676C9.94388 14.6884 10.0078 15.0151 10.3206 15.0719C10.6973 15.1429 10.9106 15.3489 10.9461 15.5904C10.4485 15.427 9.39656 15.4696 9.56004 14.596Z" fill="white"/>
<path d="M3.53833 19.5394C3.75868 19.4045 4.00035 19.1559 4.00035 18.7652C4.00035 18.6161 3.92927 18.4598 3.92216 18.2539C3.90795 18.0337 4.00746 17.8419 4.18516 17.7212C4.34865 17.6146 4.56189 17.5862 4.73959 17.6501C4.93861 17.7212 4.98126 17.8987 4.94572 18.0408C4.90307 18.1686 4.80356 18.2823 4.66851 18.261H4.6614C4.51213 18.2183 4.45527 18.1047 4.44105 18.0053C4.31311 18.0763 4.25624 18.197 4.27046 18.3391C4.29889 18.4811 4.41973 18.6516 4.69694 18.7013C4.89596 18.7368 5.09499 18.6658 5.22293 18.5024C5.34377 18.3604 5.40063 18.1757 5.38642 17.9911C5.40063 17.8419 5.3722 17.6856 5.27269 17.5365C5.20161 17.4441 5.09499 17.3731 4.98837 17.2453C4.88175 17.1103 4.86042 16.947 4.91729 16.7836C4.96705 16.6344 5.09499 16.5279 5.23715 16.4853C5.39353 16.4427 5.50015 16.535 5.5428 16.6486C5.57123 16.741 5.55701 16.8688 5.46461 16.9043C5.46461 16.9043 5.46461 16.9043 5.45039 16.9043C5.35088 16.9541 5.25847 16.9043 5.20872 16.8475C5.15896 16.947 5.17318 17.0535 5.25137 17.1316C5.32955 17.2098 5.47882 17.2666 5.67785 17.1742C5.82001 17.1032 5.91241 16.9754 5.91952 16.8049C5.93374 16.5847 5.8129 16.3645 5.62098 16.2509C5.43617 16.1372 5.1021 16.123 4.86753 16.2651C4.64008 16.4072 4.54767 16.67 4.58321 16.9043C4.59743 17.0038 4.61875 17.089 4.65429 17.16C4.59743 17.1458 4.54767 17.1387 4.49791 17.1316C4.14962 17.1032 3.85819 17.3092 3.72314 17.5862C3.52411 17.9626 3.58809 18.2539 3.64495 18.538C3.6876 18.7723 3.73025 18.9854 3.62363 19.2198C3.58098 19.3051 3.53833 19.3832 3.48147 19.44L3.46014 19.4684C3.37485 19.5536 3.41039 19.5963 3.5099 19.5323L3.53122 19.5181L3.53833 19.5394Z" fill="#002F67"/>
<path d="M12.5663 32.6084C13.0639 32.6084 13.2345 32.3314 13.3197 32.1468C13.3553 32.0757 13.3624 32.0899 13.3624 32.1468C13.3766 32.4593 13.7178 32.6084 13.9097 32.6084H17.5064C18.5299 32.6084 18.6294 32.2107 18.5939 31.4365C18.4517 29.2134 16.7032 25.8893 14.5139 24.8736C13.8031 23.7798 12.5379 22.3237 11.7062 21.5993C12.0829 21.1873 12.5165 20.4557 12.6587 19.9514C12.8364 19.6744 12.8151 18.9784 12.6871 18.8789C12.8151 18.5309 12.7369 18.2468 12.6445 18.0479C13.0923 17.6289 13.0283 15.8816 11.294 15.6614C11.2797 15.2637 11.031 15.0577 10.7324 14.9156C11.2797 14.6386 10.8177 13.6443 9.77995 13.9213C9.5596 13.7863 9.15444 13.6656 8.62134 13.6727C8.0598 13.6727 7.349 13.694 6.15485 14.3474C2.45157 16.3717 0.475534 21.2086 1.81895 25.5342C2.65059 28.219 2.11038 28.4534 1.02996 29.3412C0.105916 30.1651 -0.0078125 30.8328 -0.0078125 31.4933C-0.0078125 32.1539 0.12724 32.6155 1.04418 32.6155H12.5663V32.6084ZM9.5596 14.596C9.67333 13.9994 10.6258 13.9923 10.5974 14.5463C10.576 14.873 10.0643 14.873 10.1211 14.5818C10.1211 14.5676 10.1069 14.5534 10.0856 14.5676C9.94343 14.6883 10.0074 15.0151 10.3202 15.0719C10.6969 15.1429 10.9101 15.3489 10.9457 15.5904C10.4481 15.427 9.39611 15.4696 9.5596 14.596ZM6.93673 24.1775C6.8159 24.1207 6.79457 24.1775 6.88698 24.2486H6.9083C7.42008 24.6321 7.53381 25.0796 7.32057 25.4631C6.9936 26.0456 6.42496 26.074 6.20461 25.7259C5.92739 25.2785 6.36098 24.7529 6.77325 25.2287C7.23527 24.071 4.96781 24.1917 5.33743 25.7046C4.71192 25.5697 4.02244 25.2287 3.4538 24.6605C3.34007 24.5469 3.29742 24.6179 3.3685 24.7245C3.90871 25.5413 4.6906 26.0669 5.50802 26.4575C6.2828 26.7771 6.95806 27.1536 7.24238 27.7218C7.42719 28.084 7.12154 28.3326 6.85144 28.425C5.65729 28.8298 4.61241 29.9236 4.96781 31.9976H3.16237C3.02021 31.6496 2.89226 31.0601 3.1908 30.3214C3.21923 30.2646 3.1908 30.2148 3.14105 30.2574C2.72878 30.641 2.52265 31.2305 2.68613 31.9905H2.0393C1.89714 31.6851 1.72655 31.1027 2.0393 30.364C2.06062 30.3143 2.04641 30.2646 1.99665 30.3143C1.79052 30.506 1.35693 31.053 1.49909 31.9905H0.951772C0.766963 31.9905 0.695883 31.8769 0.695883 31.7064C0.695883 28.9221 3.42537 28.773 4.64084 29.3341H4.64795C4.74035 29.3909 4.76878 29.3554 4.71192 29.2915L4.6977 29.2702C4.48446 29.0145 3.90871 28.5244 2.72167 28.6167C2.85672 28.2119 3.03443 27.1749 2.45157 25.314C1.22188 21.3862 2.89226 16.7339 6.36098 14.8375C7.54803 14.1912 8.56447 14.0562 9.32503 14.3048C9.18287 14.4753 9.16866 14.8162 9.28238 14.9725C8.59291 14.6741 7.41297 15.2139 7.79681 15.7395L7.81813 15.7609C7.86789 15.8319 7.89632 15.8106 7.8821 15.7253V15.6969C7.86789 15.4767 8.02426 15.3276 8.25172 15.2566C7.95318 15.5123 8.26594 16.0237 8.64266 15.8106C8.17353 15.7609 8.34412 15.2139 8.61423 15.1997C9.05493 15.15 9.76573 15.5691 9.36057 15.7111C9.26106 15.7466 8.91277 15.8248 8.73507 15.9668C8.66399 16.0165 8.6782 16.0308 8.74928 16.0237C9.15444 16.0094 9.33925 15.9455 9.67333 15.8887C11.9266 15.491 12.68 16.8476 12.5947 17.4016C12.5734 17.3163 12.417 17.1175 12.3388 17.2524C12.2109 17.5152 11.7418 17.572 11.3437 17.1459C11.2087 16.9896 10.9101 16.947 10.5974 17.0038C10.0927 17.0891 9.85814 17.0749 9.63779 16.6203C9.58803 16.5919 9.58803 16.6203 9.59514 16.6558C9.61646 17.0038 9.68754 17.636 10.3486 17.7425C10.5832 17.7993 10.8248 17.5294 11.166 17.7425C11.3935 17.9485 11.6423 18.2113 12.0119 18.1189C12.3459 18.0408 12.3602 18.1758 12.4028 18.2823C12.4668 18.5735 12.3246 18.6943 12.0829 18.5238C11.9763 18.4528 11.8271 18.3746 11.6778 18.3533C10.5974 18.2184 9.56671 19.1417 8.72796 17.6573C8.62134 17.4726 8.44364 17.2808 8.24461 17.224C7.87499 17.1175 7.64043 17.3377 7.47695 17.6147C7.22816 18.055 7.41297 17.8988 7.69019 17.7141C7.83235 17.6289 8.09534 17.6431 8.2304 17.7567C8.30858 17.8348 8.38677 18.0337 8.27304 18.2113C8.0598 18.5238 7.81813 18.8363 7.66886 18.8789C7.46984 18.9287 7.42008 18.609 7.39876 18.4244C7.38454 18.3178 7.33478 18.3249 7.31346 18.4386C7.2637 18.7298 7.28503 19.1488 7.54092 19.163C7.93897 19.1915 8.28726 18.7653 8.54315 18.3604C8.60001 18.3036 8.65688 18.3107 8.71374 18.3604C9.24685 18.9358 9.90078 18.9855 10.7893 18.7866C11.0949 18.7156 11.4148 18.7014 11.6636 18.744C12.2535 18.8576 12.3673 19.2483 12.3175 19.646C12.2393 20.0154 12.1682 20.058 12.0048 20.1787C11.9337 20.2355 11.9337 20.2995 11.9905 20.3066C11.9905 20.3066 12.0545 20.3918 11.955 20.5978C11.9195 20.6617 11.8839 20.7256 11.8413 20.7754C11.82 20.8109 11.7986 20.8322 11.7986 20.8393C11.5854 21.1447 11.365 21.3649 11.23 21.4714C10.8319 21.7626 10.7111 21.9402 10.9883 21.9331C11.0594 21.9331 11.1376 21.9189 11.2016 21.8905C11.2229 21.9047 11.2371 21.926 11.2655 21.9402C12.0332 22.4587 13.2771 23.8934 14.0874 25.2145C14.1656 25.3495 14.5708 25.3779 15.1181 25.8964C16.8595 27.5371 17.876 29.3341 18.0395 31.7277C18.0395 31.884 17.94 31.9976 17.7836 31.9976H15.5161C15.4522 31.7561 15.4237 31.4081 15.6014 30.9961C15.6227 30.9535 15.6085 30.9251 15.573 30.9535C15.31 31.1879 15.1607 31.5572 15.2247 31.9905H14.8195C14.7414 31.7703 14.6774 31.4152 14.8693 30.9748C14.8835 30.9464 14.8693 30.9109 14.8409 30.9393C14.7058 31.0601 14.4499 31.33 14.4855 31.9905H14.2225C14.0803 31.9905 13.931 31.9621 13.9381 31.7774C13.8742 30.4918 16.1061 29.0784 17.4708 30.9677V30.9819C17.549 31.0956 17.5988 31.0672 17.5561 30.9535L17.5419 30.9251C17.2292 30.1296 16.1701 29.4335 15.0683 29.8242C14.6845 29.1991 14.4002 28.6806 14.4499 27.1252C14.4499 26.9973 14.4002 26.9973 14.3717 27.111C14.1798 27.9349 14.2083 29.1565 14.5494 30.0728C13.9666 30.3853 13.6823 30.9038 13.5685 31.4507C13.533 31.6496 13.1563 31.6496 13.2202 31.4081C13.3269 31.0103 13.5188 29.0784 13.3269 28.2119C13.4264 27.3098 13.3269 26.5001 12.7298 26.0669C12.9146 26.0029 13.0425 25.8467 13.0354 25.6052C13.0567 25.0228 12.1469 24.2841 12.0687 24.9304C12.0687 24.9304 12.0687 25.0086 12.0758 24.9588C12.2109 24.6534 12.8648 25.1293 12.6089 25.4915C12.3744 25.8183 11.692 25.3637 11.7347 24.8168C11.8128 23.794 12.9004 24.5682 13.5614 25.5271C14.0448 26.2302 14.5779 26.422 14.9048 26.4646C15.0328 26.4859 15.0399 26.4362 14.9333 26.3936H14.9048C14.5281 26.2373 14.0874 25.9035 13.4974 24.9304C11.8555 22.2172 10.3628 23.6661 11.3864 25.3495C11.5641 25.6336 11.7915 25.8396 12.019 25.9603C11.5783 26.5427 12.6942 27.5158 12.8364 27.0399C12.8648 26.9547 12.8222 26.8482 12.7511 26.7416C12.5379 27.1323 12.1327 26.1308 12.5663 26.3297C12.9004 26.4859 13.2345 27.253 13.0852 27.8638C12.943 27.6437 12.5663 27.2317 12.2678 27.4164C12.1327 27.4945 12.1185 27.736 12.2393 27.9917C12.4099 28.3468 12.7795 28.5102 12.8435 28.3113C12.8648 28.2474 12.8435 28.1551 12.7866 28.0698C12.7369 28.219 12.5236 28.0911 12.4952 27.8567C12.481 27.7431 12.5308 27.6721 12.6516 27.7431C12.9857 27.9207 13.0425 28.2829 13.0568 28.9719C13.0283 32.1041 12.0403 32.0047 11.7133 32.0047H8.77771C8.56447 31.6567 8.2375 30.8967 8.56447 29.8739C8.5858 29.81 8.56447 29.7461 8.5005 29.8171C8.25883 30.087 7.80391 30.6694 8.0527 32.0118H7.24238C7.02203 31.6638 6.70217 30.9038 7.02914 29.881C7.05046 29.8171 7.02914 29.7532 6.96517 29.8242C6.72349 30.0941 6.26858 30.6765 6.51736 32.0189H5.97715C5.61464 32.0189 5.57199 31.82 5.52224 31.4578C5.20237 27.7502 10.1709 28.3042 12.0048 29.6679L12.0261 29.6821C12.1256 29.7603 12.1611 29.7176 12.0829 29.6253L12.0687 29.604C11.4219 28.8582 9.97186 28.1622 8.26594 28.1977C7.80391 28.219 7.66886 27.9278 7.65465 27.6863C7.62621 27.1678 7.612 26.9547 7.62621 26.7416C7.62621 25.6265 9.27528 24.6605 10.0501 23.2258C10.1638 23.0127 10.0856 22.9559 9.95054 23.1477C9.34636 23.9716 8.64266 24.7102 7.86078 25.2003C7.86078 25.179 7.86078 25.1577 7.84656 25.1364C7.78259 24.76 7.349 24.3622 6.94384 24.206H6.92963L6.93673 24.1775Z" fill="#002F67"/>
<path d="M20.164 39.008C20.1853 38.9085 20.2066 38.802 20.2208 38.6954C20.2351 38.5889 20.2422 38.4753 20.2422 38.3545V37.7366H19.6522V38.4611C19.6522 38.6102 19.6309 38.7594 19.5882 38.9156C19.5456 39.0719 19.4816 39.221 19.3892 39.3702C19.2968 39.5194 19.1831 39.6614 19.0409 39.7964C18.8988 39.9313 18.7211 40.0521 18.522 40.1515H18.5078L18.5149 40.1728L18.8774 40.5848H18.8845C19.0693 40.4782 19.2613 40.3433 19.4461 40.1728C19.6309 40.0094 19.7944 39.8035 19.9223 39.5691L20.9459 40.5634H20.953H20.9601L21.3297 40.1799H21.3368L21.3297 40.1657L20.1498 39.0151L20.164 39.008ZM21.9623 37.282V38.6599H20.8392V39.1997H21.9623V41.9201H22.5238V37.2749H21.9623V37.282Z" fill="white"/>
<path d="M24.3659 38.9794C24.4797 39.0647 24.6076 39.1286 24.7498 39.1712C24.8919 39.2138 25.0483 39.2351 25.2118 39.2351C25.3824 39.2351 25.5459 39.2138 25.6951 39.1641C25.8444 39.1144 25.9723 39.0504 26.079 38.9652C26.1856 38.88 26.2709 38.7734 26.3349 38.6527C26.3988 38.5319 26.4273 38.397 26.4273 38.2478C26.4273 38.0987 26.3917 37.9566 26.3277 37.8288C26.2638 37.708 26.1714 37.6015 26.0647 37.5163C25.9581 37.431 25.8231 37.36 25.6738 37.3103C25.5245 37.2606 25.3682 37.2393 25.1976 37.2393C25.027 37.2393 24.8706 37.2606 24.7213 37.3103C24.5721 37.36 24.4441 37.4239 24.3446 37.5163C24.238 37.6015 24.1527 37.7151 24.0887 37.8359C24.0247 37.9566 23.9963 38.0987 23.9963 38.2549C23.9963 38.4112 24.0319 38.5462 24.0887 38.6669C24.1527 38.7876 24.238 38.8942 24.3517 38.9794H24.3659ZM24.764 37.8785C24.8848 37.7933 25.0341 37.7435 25.2189 37.7435C25.4037 37.7435 25.5459 37.7862 25.6667 37.8785C25.7946 37.9637 25.8515 38.0916 25.8515 38.2478C25.8515 38.4112 25.7875 38.5319 25.6667 38.6101C25.5388 38.6882 25.3895 38.7308 25.2189 38.7308C25.0483 38.7308 24.8848 38.6882 24.764 38.603C24.6431 38.5177 24.5863 38.397 24.5863 38.2478C24.5863 38.0916 24.6502 37.9637 24.764 37.8785ZM27.4508 39.8957V39.363H23.0723V39.8957H24.9559V40.123H24.0247V40.6414H25.887V40.819H24.0461V42.0833H26.5978V41.5435H24.6289V41.3375H26.4699V40.123H25.5174V39.8957H27.4437H27.4508Z" fill="white"/>
<path d="M29.9025 40.812V39.6898H29.341V40.812H27.5V41.3518H31.8643V40.812H29.9025ZM28.2961 40.2153H28.3032C28.5875 40.1017 28.8505 39.9454 29.078 39.7537C29.3054 39.5619 29.4902 39.3417 29.6324 39.1073L30.9403 40.2011H30.9474H30.9545L31.317 39.8034H31.3241L31.317 39.7892L29.8741 38.5746C29.8954 38.4894 29.9167 38.4042 29.9309 38.3189C29.9452 38.2337 29.9523 38.1414 29.9523 38.0561V37.6797H29.341V38.0561C29.341 38.2408 29.3054 38.4255 29.2273 38.603C29.1562 38.7735 29.0496 38.944 28.9216 39.0931C28.7937 39.2423 28.6444 39.3772 28.4738 39.498C28.3032 39.6187 28.1184 39.7182 27.9265 39.7963H27.9123L27.9265 39.8176L28.289 40.2225L28.2961 40.2153Z" fill="white"/>
<path d="M33.8547 37.5732H33.286V38.2906H32.3265V37.5732H31.7578V39.8106H33.8547V37.5732ZM33.286 39.2779H32.3265V38.8162H33.286V39.2779ZM34.864 40.3504C34.7574 40.258 34.6295 40.187 34.4873 40.1373C34.3451 40.0876 34.1959 40.0592 34.0466 40.0592C33.8973 40.0592 33.741 40.0876 33.5988 40.1373C33.4566 40.1941 33.3358 40.2651 33.2292 40.3575C33.1226 40.4498 33.0373 40.5635 32.9733 40.6913C32.9093 40.8191 32.8809 40.9612 32.8809 41.1033C32.8809 41.2453 32.9093 41.3874 32.9662 41.5152C33.023 41.6431 33.1083 41.7567 33.215 41.849C33.3216 41.9414 33.4424 42.0124 33.5846 42.0692C33.7267 42.126 33.8831 42.1545 34.0537 42.1545C34.2172 42.1545 34.3665 42.126 34.5086 42.0692C34.6508 42.0124 34.7716 41.9414 34.8782 41.8419C34.9849 41.7496 35.0702 41.636 35.127 41.5081C35.191 41.3803 35.2194 41.2382 35.2194 41.0962C35.2194 40.9541 35.1839 40.8049 35.1199 40.6771C35.0559 40.5492 34.9706 40.4427 34.864 40.3504ZM34.4731 41.4797C34.3594 41.572 34.2172 41.6217 34.0537 41.6217C33.8689 41.6217 33.7267 41.572 33.6201 41.4655C33.5135 41.3661 33.4566 41.2382 33.4566 41.0962C33.4566 40.9541 33.5135 40.8405 33.6272 40.741C33.741 40.6416 33.8831 40.5919 34.0466 40.5919C34.2101 40.5919 34.3594 40.6416 34.4731 40.741C34.5868 40.8405 34.6437 40.9612 34.6437 41.1175C34.6437 41.2737 34.5868 41.3945 34.4802 41.4939L34.4731 41.4797ZM35.2479 38.3545V37.2749H34.6721V40.045H35.2479V38.8943H36.044V38.3545H35.2479Z" fill="white"/>
<path d="M14.4349 12.8701C13.9445 13.4312 13.518 13.2536 13.1626 12.8985L13.5606 12.4439C13.7668 12.6286 13.9516 12.7706 14.1719 12.522C14.307 12.3658 14.2714 12.2024 14.1222 12.0746C13.7312 11.7336 12.8996 12.6286 12.2528 12.0603C11.9116 11.762 11.7836 11.3643 12.267 10.8032C12.6579 10.3557 13.0489 10.3131 13.4753 10.7392L13.0844 11.1867C12.9209 11.0447 12.729 10.9239 12.5726 11.1086C12.4447 11.2577 12.4518 11.414 12.6011 11.549C13.0133 11.9112 13.781 10.9594 14.4705 11.5561C15.0391 12.0461 14.7406 12.522 14.4349 12.8701Z" fill="white"/>
<path d="M15.0624 10.8174C15.2259 10.9949 15.4747 11.2577 15.6595 11.0944C15.8088 10.9594 15.7093 10.789 15.5955 10.6682L16.022 10.2847C16.1642 10.4551 16.2282 10.6327 16.2139 10.8174C16.1997 10.9949 16.1002 11.1867 15.9012 11.3643C15.361 11.8544 14.9914 11.5916 14.5649 11.1157C14.1953 10.7037 13.9323 10.2989 14.4867 9.80168C15.0553 9.29029 15.4463 9.6028 15.8657 10.0929L15.0624 10.8174ZM15.233 10.2349C15.098 10.0929 14.9203 9.87271 14.7213 10.0574C14.5293 10.2349 14.7355 10.4551 14.8492 10.583L15.233 10.2349Z" fill="white"/>
<path d="M16.0928 9.75921C15.7658 9.31174 15.5597 8.87848 16.1639 8.44521C16.7681 8.01195 17.1092 8.34577 17.4362 8.80035C17.8058 9.31174 17.9906 9.7308 17.3936 10.157C16.8036 10.5831 16.4624 10.2777 16.0928 9.76631V9.75921ZM16.96 9.09866C16.7112 8.75773 16.5761 8.59437 16.3771 8.73642C16.1852 8.87848 16.2918 9.06315 16.5335 9.40408C16.896 9.90837 17.0168 9.9865 17.1803 9.85865C17.3509 9.7379 17.3154 9.59585 16.9529 9.09866H16.96Z" fill="white"/>
<path d="M19.0767 8.80724C19.0696 9.02742 18.963 9.15527 18.7782 9.25471C18.5436 9.38966 18.2593 9.36125 18.1242 9.11266L17.3281 7.69212L17.8257 7.41511L18.5152 8.63678C18.6005 8.79303 18.6929 8.89247 18.8564 8.80724C19.0127 8.72201 18.9772 8.58706 18.8919 8.4308L18.2024 7.20913L18.7 6.93213L19.4961 8.35267C19.56 8.46631 19.6311 8.58706 19.7093 8.6936L19.1975 8.9777L19.098 8.80014L19.0767 8.80724Z" fill="white"/>
<path d="M19.4056 5.66089L20.5926 8.30309L20.0738 8.53748L18.8867 5.89528L19.4056 5.66089Z" fill="white"/>
<path d="M22.0351 7.74895L21.2461 4.96469L22.6961 4.55273L22.817 4.9789L21.9498 5.22039L22.1559 5.93066L22.9805 5.69627L23.1013 6.12243L22.2768 6.35682L22.6251 7.57138L22.0422 7.73474L22.0351 7.74895Z" fill="white"/>
<path d="M23.8103 4.33276L23.8956 4.77313L23.3412 4.87967L23.2559 4.4393L23.8103 4.33276ZM24.3576 7.17384L23.8032 7.28038L23.4193 5.29163L23.9738 5.18509L24.3576 7.17384Z" fill="white"/>
<path d="M25.1835 5.01448L25.2119 5.27728H25.219C25.2972 5.03578 25.482 4.94345 25.7095 4.91504L25.7664 5.41933C25.2688 5.44774 25.2972 5.73185 25.3185 5.93072L25.4465 7.02454L24.885 7.08846L24.6504 5.0784L25.1835 5.01448Z" fill="white"/>
<path d="M26.6463 6.00894C26.6463 6.25043 26.6677 6.61267 26.9165 6.60557C27.1155 6.60557 27.151 6.40669 27.151 6.23623L27.7268 6.22202C27.7268 6.4422 27.6557 6.62687 27.5206 6.75472C27.3927 6.88257 27.1937 6.9607 26.9307 6.9678C26.1985 6.98201 26.0919 6.54164 26.0777 5.9095C26.0635 5.35549 26.1346 4.87961 26.8809 4.86541C27.6415 4.8441 27.741 5.34129 27.7339 5.98763L26.6535 6.00894H26.6463ZM27.1581 5.68222C27.1581 5.48334 27.1581 5.20634 26.888 5.21344C26.625 5.21344 26.6392 5.52596 26.6392 5.69642L27.1581 5.68222Z" fill="white"/>
<path d="M29.9606 7.17382C29.2213 7.05307 29.1503 6.5985 29.264 6.10841L29.8611 6.20075C29.8184 6.47065 29.79 6.70504 30.1241 6.75476C30.3231 6.78317 30.4439 6.66953 30.4795 6.47775C30.5648 5.95926 29.3635 5.73907 29.4986 4.88675C29.5696 4.43928 29.8397 4.11966 30.5719 4.2333C31.1547 4.32564 31.4035 4.63105 31.2685 5.22768L30.6856 5.13534C30.7211 4.92226 30.7211 4.69498 30.4795 4.65946C30.2875 4.63105 30.1525 4.71629 30.1241 4.91516C30.0388 5.45497 31.2471 5.60412 31.105 6.49906C30.9841 7.23774 30.4297 7.23774 29.9748 7.16672L29.9606 7.17382Z" fill="white"/>
<path d="M32.0287 6.61979C31.9647 6.85418 31.8723 7.20221 32.114 7.26614C32.3059 7.32296 32.3983 7.14539 32.4481 6.98203L33.0025 7.13829C32.9314 7.34427 32.8177 7.50053 32.6471 7.58576C32.4836 7.67099 32.2704 7.6852 32.0145 7.61417C31.3108 7.41529 31.3392 6.96072 31.5169 6.34989C31.6662 5.81719 31.8723 5.38392 32.5902 5.5899C33.3223 5.79588 33.2726 6.30017 33.0736 6.9181L32.0287 6.61979ZM32.6115 6.45643C32.6684 6.26466 32.7537 6.00186 32.4907 5.92373C32.2419 5.8527 32.1566 6.14391 32.114 6.31438L32.6115 6.45643Z" fill="white"/>
<path d="M34.3657 6.23623L34.2733 6.47772H34.2804C34.4652 6.30015 34.6642 6.30726 34.8775 6.39249L34.6927 6.86127C34.2378 6.64818 34.1311 6.91809 34.0529 7.10276L33.6549 8.13265L33.1289 7.92667L33.8681 6.03735L34.3728 6.22913L34.3657 6.23623Z" fill="white"/>
<path d="M35.1257 6.52734L35.6375 6.78304L35.211 8.2675H35.2181L36.1635 7.04584L36.661 7.29444L35.2536 8.85703L34.6992 8.58002L35.1257 6.52734Z" fill="white"/>
<path d="M36.5068 9.58863L36.0234 9.29032L37.0825 7.56436L37.5659 7.86268L36.5068 9.58863ZM38.0208 7.124L37.7862 7.50044L37.3029 7.20213L37.5374 6.82568L38.0208 7.124Z" fill="white"/>
<path d="M38.4895 9.38266C38.6672 9.14117 38.6672 9.01332 38.525 8.90678C38.3331 8.76473 38.191 8.92099 37.9351 9.26191C37.5655 9.7591 37.5299 9.89405 37.7005 10.0219C37.8427 10.1284 38.0062 10.0503 38.1625 9.83723L38.6175 10.1711C38.2905 10.6114 37.9066 10.6256 37.4873 10.3131C36.8973 9.87985 37.0892 9.46079 37.4659 8.9565C37.7929 8.50903 38.1412 8.18231 38.7454 8.62267C39.1648 8.93519 39.2643 9.29743 38.9515 9.72359L38.4966 9.38266H38.4895Z" fill="white"/>
<path d="M39.4273 10.6612C39.2638 10.8388 39.0221 11.1087 39.2069 11.2791C39.3562 11.4141 39.5126 11.3004 39.6263 11.1797L40.0457 11.5703C39.8893 11.7266 39.7116 11.8118 39.5268 11.8047C39.342 11.8047 39.1501 11.7195 38.9582 11.5419C38.4251 11.0447 38.6596 10.6541 39.0932 10.1853C39.4699 9.78046 39.8538 9.48925 40.4011 10.0006C40.9555 10.5191 40.6854 10.9382 40.2234 11.3999L39.4273 10.6612ZM40.0244 10.7819C40.1594 10.6399 40.3584 10.441 40.1594 10.2563C39.9675 10.0788 39.7614 10.3061 39.6476 10.4339L40.0244 10.789V10.7819Z" fill="white"/>
<path d="M40.6495 12.2877C40.5784 12.3445 40.5144 12.4084 40.4789 12.4652C40.4505 12.5292 40.4647 12.6002 40.5358 12.6854C40.6068 12.7707 40.7277 12.7991 40.8272 12.7067C41.1541 12.4297 40.4291 11.7337 40.9196 11.3146C41.2537 11.0305 41.6375 11.272 41.8721 11.549C42.1208 11.8402 42.2132 12.2237 41.8578 12.4865L41.4953 12.0675C41.602 11.9752 41.6588 11.9112 41.6588 11.8544C41.6588 11.8047 41.6375 11.7621 41.5948 11.7195C41.5167 11.6271 41.41 11.6271 41.3034 11.7195C41.0617 11.9254 41.7228 12.6712 41.2252 13.0974C40.9551 13.3247 40.5713 13.282 40.2585 12.9269C39.9387 12.5505 39.8178 12.2237 40.2656 11.8757L40.6282 12.2948L40.6495 12.2877Z" fill="white"/>
<path d="M54.653 18.8789C54.653 18.68 54.653 18.4812 54.6316 18.2823C54.5392 17.3589 54.1909 16.5208 53.6081 15.7963C52.4068 14.3261 50.7151 13.6655 48.1136 13.6655C44.4103 13.6655 40.0104 15.4199 36.9682 18.0763H18.3025C18.3025 18.0763 17.1652 17.9627 16.6819 18.7084C16.0848 19.6389 16.8027 20.3563 16.8027 20.3563L17.478 21.2441C16.497 22.622 12.2962 28.9292 10.0856 32.0473C10.0856 32.0473 9.25396 33.1766 10.8959 33.1766H35.4115C34.3027 34.6327 32.9948 36.2379 32.9948 36.2379C32.9308 36.316 32.8953 36.4084 32.8953 36.5078C32.8953 36.5646 32.9095 36.6285 32.9308 36.6854C33.0019 36.8345 33.1512 36.9268 33.3146 36.9268H44.2326C44.3747 36.9268 44.5027 36.8558 44.5809 36.7351L45.7537 35.2719L53.6721 22.2172C54.2976 21.1518 54.6316 19.9798 54.6458 18.8789H54.653Z" fill="#002F67"/>
<path d="M48.1345 14.3972C43.6351 14.3972 38.0126 17.5153 35.5035 21.4857C32.9091 25.5769 34.615 28.9861 39.3774 28.9861C39.619 28.9861 39.8536 28.979 40.1024 28.9577L34.8353 35.9539H43.628L52.6054 21.784C52.6836 21.6562 52.7618 21.5283 52.8329 21.4005C55.0719 17.4372 52.641 14.3972 48.1416 14.3972H48.1345ZM41.6448 21.4147C42.2988 20.2285 43.8981 19.2342 45.2344 19.1915C46.5636 19.1489 47.1322 20.0652 46.4996 21.2513C45.867 22.4517 44.2464 23.4674 42.8887 23.5171C41.5382 23.5597 40.9838 22.615 41.6448 21.4218V21.4147Z" fill="#B51F24"/>
<path d="M35.6665 19.8591L35.7234 19.7525C35.8656 19.4968 35.8513 19.3335 35.8016 19.1985C35.6878 18.9073 35.3609 18.9073 35.3538 18.9073H28.1178C28.1178 18.9073 27.4141 18.8647 27.208 19.5252C27.1085 19.852 27.1795 20.065 27.5278 20.4131L28.2457 21.0523L21.0098 31.9976H28.4377L35.6665 19.8662V19.8591Z" fill="#B51F24"/>
<path d="M26.547 19.1985C26.4333 18.9073 26.1063 18.9073 26.0992 18.9073H18.913C18.913 18.9073 18.2093 18.8647 18.0032 19.5252C17.9037 19.852 17.9747 20.065 18.323 20.4131L19.041 21.0523L11.6699 31.9976H18.5718L26.4191 19.8591C26.6252 19.5394 26.611 19.3477 26.5541 19.1985H26.547Z" fill="#B51F24"/>
</g>
<defs>
<clipPath id="clip0_73_6922">
<rect width="277" height="48" fill="white"/>
</clipPath>
</defs>
</svg>
