<svg width="161" height="28" viewBox="0 0 161 28" fill="none" xmlns="http://www.w3.org/2000/svg">
<g id="LOGO" clip-path="url(#clip0_156_7996)">
<g id="Group">
<g id="Group_2">
<path id="Vector" d="M37.4114 23.8027C36.2422 23.8027 36.0232 23.1108 36.0728 22.3277H37.0189C37.0189 22.7627 37.0396 23.1232 37.556 23.1232C37.8741 23.1232 38.0311 22.916 38.0311 22.6094C38.0311 21.7932 36.1265 21.7435 36.1265 20.3928C36.1265 19.6843 36.4653 19.1167 37.618 19.1167C38.5392 19.1167 38.9937 19.531 38.9317 20.4798H38.0104C38.0104 20.1401 37.9526 19.7962 37.5725 19.7962C37.2668 19.7962 37.085 19.9661 37.085 20.2809C37.085 21.1427 38.9896 21.0682 38.9896 22.4934C38.9896 23.666 38.1302 23.8027 37.4114 23.8027Z" fill="#002F67"/>
<path id="Vector_2" d="M40.4351 22.2821C40.4351 22.6591 40.4475 23.2226 40.8359 23.2226C41.1498 23.2226 41.2118 22.9201 41.2118 22.6549H42.1083C42.0959 22.9988 41.9844 23.2806 41.7696 23.4753C41.563 23.67 41.249 23.7819 40.8359 23.7819C39.6956 23.7819 39.5469 23.0858 39.5469 22.0915C39.5469 21.2255 39.6708 20.4839 40.8359 20.4839C42.0009 20.4839 42.1579 21.2545 42.1249 22.2738H40.4351V22.2821ZM41.2449 21.7849C41.2449 21.4783 41.2573 21.0391 40.84 21.0391C40.4227 21.0391 40.4393 21.5156 40.4393 21.7849H41.249H41.2449Z" fill="#002F67"/>
<path id="Vector_3" d="M42.6758 22.0998C42.6758 21.2338 42.7997 20.4922 43.9648 20.4922C45.1298 20.4922 45.2538 21.2338 45.2538 22.0998C45.2538 23.0941 45.105 23.7902 43.9648 23.7902C42.8245 23.7902 42.6758 23.0941 42.6758 22.0998ZM44.3738 22.05C44.3738 21.3913 44.3407 21.0557 43.9648 21.0557C43.5888 21.0557 43.5599 21.3871 43.5599 22.05C43.5599 23.0154 43.6425 23.2226 43.9648 23.2226C44.287 23.2226 44.3738 23.0154 44.3738 22.05Z" fill="#002F67"/>
<path id="Vector_4" d="M47.4279 23.405H47.4156C47.242 23.6867 47.0024 23.7862 46.6719 23.7862C46.2505 23.7862 45.8828 23.5376 45.8828 23.0942V20.5503H46.7669V22.7504C46.7669 23.0321 46.8165 23.2393 47.0974 23.2393C47.3784 23.2393 47.4279 23.0321 47.4279 22.7504V20.5503H48.3121V23.0942C48.3121 23.3014 48.3245 23.5127 48.3451 23.724H47.4321V23.405H47.4279Z" fill="#002F67"/>
<path id="Vector_5" d="M49.9701 19.1912V23.7239H49.0859V19.1912H49.9701Z" fill="#002F67"/>
<path id="Vector_6" d="M52.1643 23.7283V19.1956H53.6846L54.3911 22.2781H54.4035L55.1554 19.1956H56.6262V23.7283H55.7049V20.2314H55.6925L54.8208 23.7283H53.9201L53.0938 20.2314H53.0815V23.7283H52.1602H52.1643Z" fill="#002F67"/>
<path id="Vector_7" d="M58.1734 22.2821C58.1734 22.6591 58.1858 23.2226 58.5742 23.2226C58.8881 23.2226 58.9501 22.9201 58.9501 22.6549H59.8466C59.8342 22.9988 59.7227 23.2806 59.5078 23.4753C59.3013 23.67 58.9873 23.7819 58.5742 23.7819C57.4339 23.7819 57.2852 23.0858 57.2852 22.0915C57.2852 21.2255 57.4091 20.4839 58.5742 20.4839C59.7392 20.4839 59.8962 21.2545 59.8631 22.2738H58.1734V22.2821ZM58.979 21.7849C58.979 21.4783 58.9914 21.0391 58.5742 21.0391C58.1569 21.0391 58.1734 21.5156 58.1734 21.7849H58.979Z" fill="#002F67"/>
<path id="Vector_8" d="M60.1291 20.5544H60.4844V20.053L61.3644 19.6553V20.5502H61.823V21.0971H61.3644V22.7917C61.3644 23.032 61.3603 23.1853 61.6454 23.1853C61.7032 23.1853 61.7569 23.1853 61.8023 23.1729V23.7198C61.6825 23.7322 61.5586 23.7488 61.3438 23.7488C60.5795 23.7488 60.4803 23.2392 60.4803 23.0444V21.093H60.125V20.5461L60.1291 20.5544Z" fill="#002F67"/>
<path id="Vector_9" d="M63.0655 20.5543V20.9645H63.0778C63.239 20.5999 63.5406 20.4922 63.8959 20.4922V21.2835C63.1192 21.2338 63.1068 21.6854 63.1068 22.0003V23.7281H62.2227V20.5543H63.0613H63.0655Z" fill="#002F67"/>
<path id="Vector_10" d="M64.2383 22.0998C64.2383 21.2338 64.3622 20.4922 65.5273 20.4922C66.6923 20.4922 66.8163 21.2338 66.8163 22.0998C66.8163 23.0941 66.6675 23.7902 65.5273 23.7902C64.387 23.7902 64.2383 23.0941 64.2383 22.0998ZM65.9363 22.05C65.9363 21.3913 65.9032 21.0557 65.5273 21.0557C65.1513 21.0557 65.1224 21.3871 65.1224 22.05C65.1224 23.0154 65.205 23.2226 65.5273 23.2226C65.8495 23.2226 65.9363 23.0154 65.9363 22.05Z" fill="#002F67"/>
<path id="Vector_11" d="M68.2801 20.5543V20.9065H68.2925C68.4536 20.5999 68.7015 20.4922 69.0361 20.4922C69.9492 20.4922 69.9202 21.5114 69.9202 22.1619C69.9202 22.8124 69.945 23.7861 69.0568 23.7861C68.7387 23.7861 68.5197 23.6908 68.3379 23.4215H68.3255V25.087H67.4414V20.5543H68.2801ZM69.0568 22.1122C69.0568 21.4783 69.065 21.0391 68.6808 21.0391C68.2966 21.0391 68.3255 21.4783 68.3255 22.1122C68.3255 22.9077 68.3834 23.2433 68.6808 23.2433C68.9989 23.2433 69.0568 22.9118 69.0568 22.1122Z" fill="#002F67"/>
<path id="Vector_12" d="M70.4961 22.0998C70.4961 21.2338 70.62 20.4922 71.7851 20.4922C72.9501 20.4922 73.0741 21.2338 73.0741 22.0998C73.0741 23.0941 72.9253 23.7902 71.7851 23.7902C70.6448 23.7902 70.4961 23.0941 70.4961 22.0998ZM72.1941 22.05C72.1941 21.3913 72.161 21.0557 71.7851 21.0557C71.4091 21.0557 71.3761 21.3871 71.3761 22.05C71.3761 23.0154 71.4587 23.2226 71.7851 23.2226C72.1115 23.2226 72.1941 23.0154 72.1941 22.05Z" fill="#002F67"/>
<path id="Vector_13" d="M74.6615 19.1912V23.7239H73.7773V19.1912H74.6615Z" fill="#002F67"/>
<path id="Vector_14" d="M76.3997 19.1912V19.8872H75.5156V19.1912H76.3997ZM76.3997 23.7239H75.5156V20.5501H76.3997V23.7239Z" fill="#002F67"/>
<path id="Vector_15" d="M76.8242 20.5544H77.1795V20.053L78.0636 19.6553V20.5502H78.5222V21.0971H78.0636V22.7917C78.0636 23.032 78.0595 23.1853 78.3446 23.1853C78.4024 23.1853 78.4561 23.1853 78.5016 23.1729V23.7198C78.3817 23.7322 78.2578 23.7488 78.043 23.7488C77.2787 23.7488 77.1795 23.2392 77.1795 23.0444V21.093H76.8242V20.5461V20.5544Z" fill="#002F67"/>
<path id="Vector_16" d="M81.3191 23.1356C81.3191 23.3303 81.3439 23.5292 81.3646 23.7281H80.5466L80.5094 23.3055H80.497C80.3111 23.6328 80.0549 23.7902 79.6707 23.7902C79.0551 23.7902 78.832 23.3345 78.832 22.7793C78.832 21.731 79.6377 21.6854 80.4598 21.702V21.4576C80.4598 21.1883 80.4226 20.9935 80.1045 20.9935C79.7864 20.9935 79.774 21.2255 79.774 21.4783H78.9105C78.9105 21.0971 79.0303 20.8485 79.2369 20.7035C79.4393 20.5543 79.7244 20.4963 80.0632 20.4963C81.1828 20.4963 81.3274 20.9811 81.3274 21.557V23.1397L81.3191 23.1356ZM79.6914 22.742C79.6914 22.9698 79.7285 23.2433 80.0177 23.2433C80.5383 23.2433 80.4557 22.539 80.4557 22.1951C80.0177 22.2158 79.6914 22.1785 79.6914 22.742Z" fill="#002F67"/>
<path id="Vector_17" d="M82.9349 20.8775H82.9473C83.034 20.7325 83.1415 20.6372 83.2613 20.5833C83.3852 20.5212 83.5298 20.4963 83.6909 20.4963C84.1123 20.4963 84.48 20.7449 84.48 21.1883V23.7322H83.5959V21.5487C83.5959 21.267 83.5463 21.0432 83.2654 21.0432C82.9845 21.0432 82.9349 21.2628 82.9349 21.5487V23.7322H82.0508V20.5585H82.9349V20.8817V20.8775Z" fill="#002F67"/>
<path id="Vector_18" d="M86.6016 23.728V19.1953H88.9482V19.8914H87.5476V21.0515H88.8862V21.7475H87.5476V23.728H86.6016Z" fill="#002F67"/>
<path id="Vector_19" d="M90.3099 19.1912V19.8872H89.4258V19.1912H90.3099ZM90.3099 23.7239H89.4258V20.5501H90.3099V23.7239Z" fill="#002F67"/>
<path id="Vector_20" d="M91.9322 20.5543V20.9645H91.9446C92.1057 20.5999 92.4073 20.4922 92.7667 20.4922V21.2835C91.99 21.2338 91.9776 21.6854 91.9776 22.0003V23.7281H91.0977V20.5543H91.9363H91.9322Z" fill="#002F67"/>
<path id="Vector_21" d="M93.9898 22.2821C93.9898 22.6591 94.0022 23.2226 94.3906 23.2226C94.7045 23.2226 94.7665 22.9201 94.7665 22.6549H95.663C95.6506 22.9988 95.5391 23.2806 95.3242 23.4753C95.1177 23.67 94.8037 23.7819 94.3906 23.7819C93.2503 23.7819 93.1016 23.0858 93.1016 22.0915C93.1016 21.2255 93.2255 20.4839 94.3906 20.4839C95.5556 20.4839 95.7126 21.2545 95.6795 22.2738H93.9898V22.2821ZM94.7954 21.7849C94.7954 21.4783 94.8078 21.0391 94.3864 21.0391C93.965 21.0391 93.9857 21.5156 93.9857 21.7849H94.7913H94.7954Z" fill="#002F67"/>
<path id="Vector_22" d="M100.297 23.3677C99.942 23.7198 99.5206 23.7986 99.0372 23.7986C98.0003 23.7986 97.4219 23.3097 97.4219 22.423C97.4219 21.8181 97.8433 21.4369 98.3101 21.1303C98.0705 20.8237 97.8102 20.4633 97.8102 19.9951C97.8102 19.4937 98.4051 19.1167 99.1777 19.1167C99.6074 19.1167 100.322 19.3197 100.322 20.0034C100.322 20.5917 99.9131 20.8941 99.5495 21.2215L100.256 22.1495C100.339 21.8554 100.355 21.6855 100.355 21.2463H101.119C101.119 21.7187 101.119 22.307 100.81 22.7959L101.491 23.724H100.566L100.289 23.3677H100.297ZM98.8265 21.6896C98.5993 21.8678 98.368 22.1247 98.368 22.4271C98.368 22.858 98.6241 23.1232 99.0579 23.1232C99.3264 23.1232 99.5826 23.0362 99.7478 22.8208L98.8265 21.6896ZM99.4586 20.0696C99.4586 19.8293 99.314 19.6802 99.0703 19.6802C98.872 19.6802 98.6778 19.8252 98.6778 20.0406C98.6778 20.2975 98.8472 20.5047 99.0083 20.6911C99.2273 20.5544 99.4586 20.3514 99.4586 20.0696Z" fill="#002F67"/>
<path id="Vector_23" d="M103.324 19.1912H104.902C106.142 19.1912 106.373 20.0198 106.373 21.4327C106.373 22.1287 106.481 23.7239 104.865 23.7239H103.324V19.1912ZM104.27 23.0278H104.729C105.303 23.0278 105.419 22.5969 105.419 21.4575C105.419 20.6247 105.419 19.8872 104.762 19.8872H104.274V23.0278H104.27Z" fill="#002F67"/>
<path id="Vector_24" d="M108.04 19.1912V19.8872H107.16V19.1912H108.04ZM108.04 23.7239H107.16V20.5501H108.04V23.7239Z" fill="#002F67"/>
<path id="Vector_25" d="M109.52 22.7088C109.516 22.8538 109.52 22.9906 109.561 23.0941C109.611 23.1936 109.706 23.2433 109.883 23.2433C110.061 23.2433 110.21 23.1314 110.21 22.916C110.21 22.2448 108.656 22.3939 108.656 21.383C108.656 20.6994 109.334 20.4922 109.9 20.4922C110.499 20.4922 111.044 20.7822 110.995 21.4658H110.131C110.131 21.2463 110.107 21.1137 110.045 21.0598C109.987 21.0018 109.912 20.9894 109.817 20.9894C109.623 20.9894 109.516 21.1137 109.516 21.3291C109.516 21.8305 111.069 21.8056 111.069 22.8248C111.069 23.3759 110.619 23.7902 109.883 23.7902C109.115 23.7902 108.599 23.5955 108.652 22.7088H109.516H109.52Z" fill="#002F67"/>
<path id="Vector_26" d="M114.003 23.1356C114.003 23.3303 114.028 23.5292 114.048 23.7281H113.226L113.189 23.3055H113.177C112.987 23.6328 112.73 23.7902 112.35 23.7902C111.739 23.7902 111.512 23.3345 111.512 22.7793C111.512 21.731 112.321 21.6854 113.139 21.702V21.4576C113.139 21.1883 113.102 20.9935 112.784 20.9935C112.466 20.9935 112.454 21.2255 112.454 21.4783H111.59C111.59 21.0971 111.71 20.8485 111.917 20.7035C112.119 20.5543 112.404 20.4963 112.743 20.4963C113.862 20.4963 114.007 20.9811 114.007 21.557V23.1397L114.003 23.1356ZM112.375 22.742C112.375 22.9698 112.412 23.2433 112.702 23.2433C113.222 23.2433 113.139 22.539 113.139 22.1951C112.702 22.2158 112.375 22.1785 112.375 22.742Z" fill="#002F67"/>
<path id="Vector_27" d="M115.429 22.7088C115.425 22.8538 115.429 22.9906 115.471 23.0941C115.52 23.1936 115.615 23.2433 115.793 23.2433C115.971 23.2433 116.119 23.1314 116.119 22.916C116.119 22.2448 114.566 22.3939 114.566 21.383C114.566 20.6994 115.244 20.4922 115.814 20.4922C116.413 20.4922 116.958 20.7822 116.908 21.4658H116.045C116.045 21.2463 116.02 21.1137 115.958 21.0598C115.9 21.0018 115.826 20.9894 115.731 20.9894C115.537 20.9894 115.429 21.1137 115.429 21.3291C115.429 21.8305 116.983 21.8056 116.983 22.8248C116.983 23.3759 116.533 23.7902 115.797 23.7902C115.029 23.7902 114.512 23.5955 114.562 22.7088H115.425H115.429Z" fill="#002F67"/>
<path id="Vector_28" d="M117.156 20.5544H117.512V20.053L118.396 19.6553V20.5502H118.854V21.0971H118.396V22.7917C118.396 23.032 118.392 23.1853 118.677 23.1853C118.734 23.1853 118.788 23.1853 118.834 23.1729V23.7198C118.714 23.7322 118.59 23.7488 118.375 23.7488C117.611 23.7488 117.512 23.2392 117.512 23.0444V21.093H117.156V20.5461V20.5544Z" fill="#002F67"/>
<path id="Vector_29" d="M120.068 22.2821C120.068 22.6591 120.08 23.2226 120.469 23.2226C120.783 23.2226 120.845 22.9201 120.845 22.6549H121.741C121.729 22.9988 121.617 23.2806 121.402 23.4753C121.196 23.67 120.882 23.7819 120.469 23.7819C119.328 23.7819 119.18 23.0858 119.18 22.0915C119.18 21.2255 119.304 20.4839 120.469 20.4839C121.634 20.4839 121.791 21.2545 121.758 22.2738H120.068V22.2821ZM120.878 21.7849C120.878 21.4783 120.89 21.0391 120.469 21.0391C120.047 21.0391 120.068 21.5156 120.068 21.7849H120.878Z" fill="#002F67"/>
<path id="Vector_30" d="M123.226 20.5543V20.9645H123.238C123.399 20.5999 123.701 20.4922 124.056 20.4922V21.2835C123.279 21.2338 123.267 21.6854 123.267 22.0003V23.7281H122.383V20.5543H123.221H123.226Z" fill="#002F67"/>
<path id="Vector_31" d="M127.962 21.0059V19.1912H128.908V23.7239H127.962V21.702H126.88V23.7239H125.934V19.1912H126.88V21.0059H127.962Z" fill="#002F67"/>
<path id="Vector_32" d="M130.502 22.2821C130.502 22.6591 130.514 23.2226 130.902 23.2226C131.216 23.2226 131.278 22.9201 131.278 22.6549H132.175C132.162 22.9988 132.047 23.2806 131.836 23.4753C131.629 23.67 131.315 23.7819 130.902 23.7819C129.762 23.7819 129.613 23.0858 129.613 22.0915C129.613 21.2255 129.737 20.4839 130.902 20.4839C132.067 20.4839 132.224 21.2545 132.191 22.2738H130.502V22.2821ZM131.307 21.7849C131.307 21.4783 131.32 21.0391 130.898 21.0391C130.477 21.0391 130.497 21.5156 130.497 21.7849H131.303H131.307Z" fill="#002F67"/>
<path id="Vector_33" d="M135.214 23.1356C135.214 23.3303 135.239 23.5292 135.259 23.7281H134.437L134.4 23.3055H134.388C134.198 23.6328 133.941 23.7902 133.561 23.7902C132.946 23.7902 132.723 23.3345 132.723 22.7793C132.723 21.731 133.532 21.6854 134.35 21.702V21.4576C134.35 21.1883 134.313 20.9935 133.995 20.9935C133.677 20.9935 133.66 21.2255 133.66 21.4783H132.797C132.797 21.0971 132.917 20.8485 133.123 20.7035C133.326 20.5543 133.611 20.4963 133.95 20.4963C135.069 20.4963 135.214 20.9811 135.214 21.557V23.1397V23.1356ZM133.586 22.742C133.586 22.9698 133.623 23.2433 133.912 23.2433C134.433 23.2433 134.35 22.539 134.35 22.1951C133.912 22.2158 133.586 22.1785 133.586 22.742Z" fill="#002F67"/>
<path id="Vector_34" d="M137.523 23.7283V23.3761H137.511C137.35 23.6827 137.106 23.7904 136.767 23.7904C135.854 23.7904 135.883 22.7753 135.883 22.1207C135.883 21.466 135.858 20.4965 136.746 20.4965C137.064 20.4965 137.283 20.5918 137.465 20.8611H137.478V19.1956H138.358V23.7283H137.519H137.523ZM137.478 22.1124C137.478 21.4785 137.486 21.0393 137.118 21.0393C136.751 21.0393 136.742 21.4785 136.742 22.1124C136.742 22.9079 136.8 23.2435 137.118 23.2435C137.42 23.2435 137.478 22.912 137.478 22.1124Z" fill="#002F67"/>
<path id="Vector_35" d="M141.506 25.087H140.622V23.4215H140.61C140.428 23.6908 140.209 23.7861 139.891 23.7861C138.999 23.7861 139.027 22.8 139.027 22.1619C139.027 21.5239 138.994 20.4922 139.912 20.4922C140.25 20.4922 140.494 20.5999 140.655 20.9065H140.668V20.5543H141.506V25.087ZM140.622 22.1122C140.622 21.4783 140.63 21.0391 140.267 21.0391C139.887 21.0391 139.891 21.4783 139.891 22.1122C139.891 22.9077 139.945 23.2433 140.267 23.2433C140.568 23.2433 140.622 22.9118 140.622 22.1122Z" fill="#002F67"/>
<path id="Vector_36" d="M143.752 23.405H143.74C143.566 23.6867 143.327 23.7862 142.996 23.7862C142.575 23.7862 142.207 23.5376 142.207 23.0942V20.5503H143.091V22.7504C143.091 23.0321 143.141 23.2393 143.422 23.2393C143.703 23.2393 143.752 23.0321 143.752 22.7504V20.5503H144.636V23.0942C144.636 23.3014 144.649 23.5127 144.665 23.724H143.752V23.405Z" fill="#002F67"/>
<path id="Vector_37" d="M147.733 23.1356C147.733 23.3303 147.758 23.5292 147.779 23.7281H146.961L146.923 23.3055H146.911C146.721 23.6328 146.465 23.7902 146.085 23.7902C145.473 23.7902 145.246 23.3345 145.246 22.7793C145.246 21.731 146.052 21.6854 146.874 21.702V21.4576C146.874 21.1883 146.837 20.9935 146.519 20.9935C146.2 20.9935 146.188 21.2255 146.188 21.4783H145.325C145.325 21.0971 145.444 20.8485 145.651 20.7035C145.849 20.5543 146.138 20.4963 146.477 20.4963C147.601 20.4963 147.741 20.9811 147.741 21.557V23.1397L147.733 23.1356ZM146.105 22.742C146.105 22.9698 146.143 23.2433 146.432 23.2433C146.952 23.2433 146.87 22.539 146.87 22.1951C146.432 22.2158 146.105 22.1785 146.105 22.742Z" fill="#002F67"/>
<path id="Vector_38" d="M149.308 20.5543V20.9645H149.32C149.485 20.5999 149.783 20.4922 150.138 20.4922V21.2835C149.361 21.2338 149.349 21.6854 149.349 22.0003V23.7281H148.465V20.5543H149.304H149.308Z" fill="#002F67"/>
<path id="Vector_39" d="M150.195 20.5544H150.551V20.053L151.435 19.6553V20.5502H151.893V21.0971H151.435V22.7917C151.435 23.032 151.426 23.1853 151.716 23.1853C151.773 23.1853 151.827 23.1853 151.873 23.1729V23.7198C151.753 23.7322 151.629 23.7488 151.414 23.7488C150.65 23.7488 150.551 23.2392 150.551 23.0444V21.093H150.195V20.5461V20.5544Z" fill="#002F67"/>
<path id="Vector_40" d="M153.107 22.2821C153.107 22.6591 153.119 23.2226 153.508 23.2226C153.822 23.2226 153.884 22.9201 153.884 22.6549H154.78C154.768 22.9988 154.652 23.2806 154.441 23.4753C154.235 23.67 153.921 23.7819 153.508 23.7819C152.367 23.7819 152.219 23.0858 152.219 22.0915C152.219 21.2255 152.343 20.4839 153.508 20.4839C154.673 20.4839 154.83 21.2545 154.797 22.2738H153.107V22.2821ZM153.917 21.7849C153.917 21.4783 153.929 21.0391 153.508 21.0391C153.086 21.0391 153.107 21.5156 153.107 21.7849H153.917Z" fill="#002F67"/>
<path id="Vector_41" d="M156.261 20.5543V20.9645H156.273C156.434 20.5999 156.736 20.4922 157.095 20.4922V21.2835C156.318 21.2338 156.306 21.6854 156.306 22.0003V23.7281H155.422V20.5543H156.261Z" fill="#002F67"/>
<path id="Vector_42" d="M158.199 22.7088C158.191 22.8538 158.199 22.9906 158.245 23.0941C158.294 23.1936 158.389 23.2433 158.563 23.2433C158.736 23.2433 158.889 23.1314 158.889 22.916C158.889 22.2448 157.336 22.3939 157.336 21.383C157.336 20.6994 158.013 20.4922 158.584 20.4922C159.187 20.4922 159.728 20.7822 159.678 21.4658H158.815C158.815 21.2463 158.79 21.1137 158.728 21.0598C158.67 21.0018 158.596 20.9894 158.505 20.9894C158.311 20.9894 158.204 21.1137 158.204 21.3291C158.204 21.8305 159.757 21.8056 159.757 22.8248C159.757 23.3759 159.307 23.7902 158.575 23.7902C157.807 23.7902 157.29 23.5955 157.34 22.7088H158.204H158.199Z" fill="#002F67"/>
</g>
<g id="Group_3">
<path id="Vector_43" d="M39.356 8.73794C39.4138 8.48521 39.4634 8.2159 39.5006 7.94659C39.5419 7.66899 39.5584 7.37482 39.5584 7.06822V5.47307H38.0422V7.3251C38.0422 7.70214 37.9885 8.09574 37.8811 8.48935C37.7737 8.88296 37.6043 9.27657 37.3729 9.6536C37.1416 10.0306 36.84 10.3952 36.4764 10.7391C36.1129 11.083 35.6667 11.3896 35.1544 11.6465L35.1172 11.6631L35.142 11.6921L36.0633 12.7445L36.0798 12.761L36.1005 12.7486C36.5756 12.4793 37.0589 12.1271 37.5382 11.6962C38.0092 11.2736 38.4223 10.7557 38.7652 10.1549L41.3721 12.7072L41.3928 12.7279L41.4134 12.7072L42.3595 11.7169L42.3802 11.6962L42.3595 11.6755L39.3477 8.7338L39.356 8.73794ZM43.9542 4.30054V7.84301H41.0829V9.23099H43.9542V16.2123H45.3919V4.30054H43.9542Z" fill="#002F67"/>
<path id="Vector_44" d="M57.5159 11.0168V9.65367H46.3281V11.0168H51.1453V11.6051H48.7698V12.9434H53.5374V13.4033H48.8359V16.6433H55.3511V15.2553H50.3273V14.7333H55.0412V11.6093H52.5996V11.0209H57.52L57.5159 11.0168ZM49.625 8.66757C49.91 8.88717 50.2447 9.0529 50.6165 9.16891C50.9842 9.28077 51.3808 9.33878 51.8022 9.33878C52.2443 9.33878 52.6615 9.27663 53.0375 9.15648C53.4134 9.03632 53.7481 8.86231 54.029 8.64272C54.3017 8.41484 54.5207 8.14138 54.6818 7.83064C54.8429 7.5199 54.9255 7.17187 54.9255 6.79483C54.9255 6.4178 54.8429 6.04076 54.6735 5.72173C54.5083 5.4027 54.281 5.12925 54.0042 4.90966C53.7274 4.68178 53.3928 4.50776 53.0127 4.38347C52.6326 4.25917 52.2277 4.19702 51.8022 4.19702C51.3767 4.19702 50.9594 4.25917 50.5835 4.38347C50.2075 4.50362 49.8811 4.68178 49.6126 4.90966C49.3316 5.13754 49.1127 5.41513 48.9557 5.73416C48.7987 6.05319 48.7202 6.41365 48.7202 6.80726C48.7202 7.20087 48.8028 7.55719 48.9639 7.87207C49.1251 8.18282 49.3482 8.45213 49.6291 8.66757H49.625ZM50.6413 5.83774C50.9511 5.61401 51.3395 5.498 51.7981 5.498C52.2567 5.498 52.6285 5.61401 52.9507 5.84189C53.2688 6.06976 53.4341 6.38465 53.4341 6.7824C53.4341 7.20501 53.273 7.5199 52.9549 7.72292C52.6326 7.92594 52.2443 8.02952 51.8022 8.02952C51.3601 8.02952 50.9553 7.91765 50.6454 7.69806C50.3397 7.47847 50.1827 7.17187 50.1827 6.78654C50.1827 6.40122 50.3397 6.06562 50.6454 5.84189L50.6413 5.83774Z" fill="#002F67"/>
<path id="Vector_45" d="M60.3696 13.9377H65.3438V16.7882H66.7939V12.5455H60.3696V13.9377ZM58.0312 10.5029V11.8785H69.2066V10.5029H58.0312ZM66.765 8.51002H61.8569V7.95897H66.5336V6.57099H61.8569V6.0738H66.6865V4.69824H60.4192V9.88972H66.765V8.51416V8.51002Z" fill="#002F67"/>
<path id="Vector_46" d="M75.178 4.93859H73.7279V6.50059H71.2698V4.93859H69.832V10.4159H75.178V4.93859ZM73.7279 9.04039H71.2698V7.87614H73.7279V9.04039ZM74.1659 14.6586H78.7765V11.3316H72.5877V12.7072H77.2851V13.3245H72.6496V16.6557H79.0863V15.2801H74.1659V14.6628V14.6586ZM77.7684 4.29639V6.13184H75.5333V7.5074H77.7684V8.38576H75.5333V9.74889H77.7684V11.0126H79.1937V4.30053H77.7684V4.29639Z" fill="#002F67"/>
<path id="Vector_47" d="M84.2386 8.75037C84.2964 8.50592 84.346 8.2449 84.3832 7.97973C84.4245 7.70628 84.4451 7.41211 84.4451 7.10965V5.47722H82.9289V7.37068C82.9289 7.74771 82.8752 8.13718 82.7678 8.5225C82.6604 8.90782 82.4951 9.29728 82.272 9.67432C82.0407 10.0431 81.7391 10.4035 81.3755 10.7474C81.012 11.0913 80.5616 11.4103 80.037 11.6962L80.0039 11.7128L80.0287 11.7418L80.95 12.7942L80.9665 12.8107L80.9872 12.7983C81.4829 12.529 81.9746 12.1768 82.4538 11.7459C82.9248 11.3233 83.3338 10.8013 83.6684 10.1881L86.263 12.7527L86.2836 12.7735L86.3043 12.7486L87.2504 11.7584L87.271 11.7376L87.2504 11.7169L84.2386 8.74623V8.75037ZM88.655 4.30468V16.2165H90.1051V4.30054H88.655V4.30468Z" fill="#002F67"/>
<path id="Vector_48" d="M99.4719 13.3743V10.4989H98.0342V13.3743H93.3203V14.7498H104.483V13.3743H99.4719ZM95.3695 11.8372L95.3819 11.8537L95.4025 11.8454C96.1297 11.5596 96.7948 11.1577 97.3773 10.6563C97.9516 10.1633 98.4267 9.60395 98.7985 8.99903L102.137 11.8164L102.157 11.8372L102.178 11.8164L103.099 10.8013L103.12 10.7765L103.095 10.7558L99.41 7.64005C99.4678 7.42046 99.5174 7.19673 99.5587 6.98128C99.5959 6.7534 99.6165 6.52552 99.6165 6.29764V5.32812H98.0631V6.29764C98.0631 6.77826 97.9681 7.24644 97.7781 7.68977C97.5922 8.13724 97.3278 8.55985 97.0055 8.94517C96.6791 9.32635 96.2949 9.67438 95.8611 9.98098C95.4273 10.2917 94.9563 10.5486 94.4606 10.7475L94.4193 10.7641L94.4482 10.7972L95.3695 11.8372Z" fill="#002F67"/>
<path id="Vector_49" d="M109.952 5.07118H108.502V6.90663H106.044V5.07118H104.594V10.8096H109.952V5.07118ZM108.502 9.44644H106.044V8.26976H108.502V9.44644ZM112.538 12.2017C112.257 11.9655 111.931 11.7791 111.572 11.6506C111.212 11.5181 110.828 11.4518 110.44 11.4518C110.051 11.4518 109.655 11.5222 109.291 11.6548C108.932 11.7915 108.614 11.978 108.341 12.2141C108.06 12.4503 107.841 12.7362 107.684 13.0635C107.527 13.3908 107.449 13.7471 107.449 14.1242C107.449 14.5012 107.523 14.8575 107.672 15.1848C107.82 15.5121 108.031 15.8022 108.304 16.0466C108.572 16.2828 108.895 16.4734 109.254 16.6142C109.613 16.7551 110.018 16.8255 110.452 16.8255C110.861 16.8255 111.249 16.7551 111.613 16.6142C111.972 16.4734 112.295 16.2786 112.563 16.0342C112.836 15.7897 113.051 15.4997 113.208 15.1724C113.365 14.8451 113.443 14.4888 113.443 14.1117C113.443 13.7347 113.356 13.3659 113.195 13.0428C113.03 12.7196 112.807 12.4337 112.538 12.1975V12.2017ZM111.53 15.0978C111.245 15.3381 110.886 15.4624 110.452 15.4624C109.989 15.4624 109.609 15.3298 109.337 15.0688C109.06 14.8078 108.923 14.4846 108.923 14.1159C108.923 13.7471 109.072 13.4529 109.361 13.1961C109.655 12.9392 110.018 12.8066 110.44 12.8066C110.861 12.8066 111.237 12.935 111.522 13.1836C111.807 13.4322 111.952 13.7554 111.952 14.1449C111.952 14.5343 111.811 14.8658 111.526 15.1061L111.53 15.0978ZM113.509 7.07651V4.30054H112.047V11.4103H113.509V8.45206H115.546V7.07651H113.509Z" fill="#002F67"/>
<path id="Vector_50" d="M120.178 9.43401C120.484 8.89953 120.744 8.34019 120.943 7.76428C121.145 7.17594 121.281 6.57517 121.339 5.97855V5.9454H116.448V7.32096H119.488C119.377 7.71042 119.216 8.11232 119.005 8.51421C118.786 8.92853 118.513 9.33043 118.195 9.70746C117.869 10.0845 117.493 10.4491 117.084 10.7847C116.671 11.1203 116.212 11.4145 115.725 11.6672L115.688 11.6838L115.716 11.7128L116.704 12.7403L116.72 12.7569L116.741 12.7486C117.233 12.5166 117.708 12.2141 118.15 11.8454C118.584 11.4891 118.98 11.083 119.34 10.6438L121.228 12.7403L121.248 12.7652L121.269 12.7445L122.244 11.7791L122.265 11.7584L122.244 11.7376L120.182 9.43401H120.178ZM125.148 4.30468V8.26147H123.835V4.56156H122.397V15.4044H123.835V9.63703H125.148V16.2123H126.586V4.30054H125.148V4.30468Z" fill="#002F67"/>
<path id="Vector_51" d="M133.865 9.35529H129.375V5.08361H127.949V10.7433H133.865V9.35529ZM131.841 12.1147H130.378V16.5397H136.918V15.1517H131.841V12.1188V12.1147ZM136.761 7.0475V4.30054H135.311V12.9309H136.761V8.43963H138.786V7.05165H136.761V7.0475Z" fill="#002F67"/>
<path id="Vector_52" d="M142.136 12.7238H140.711V16.5232H147.288V15.1352H142.132V12.7238H142.136ZM144.487 10.8096V9.94785H146.891V4.7688H145.441V6.25208H142.087V4.7688H140.649V9.94785H143.012V10.8096H138.273V12.1728H149.461V10.8096H144.487ZM142.087 8.57229V7.59034H145.441V8.57229H142.087Z" fill="#002F67"/>
<path id="Vector_53" d="M149.84 11.1163V12.5043H154.694V16.4362H156.157V12.5043H160.999V11.1163H149.836H149.84ZM158.483 4.93042H157.049V6.46756H153.579V4.93042H152.141V10.2918H158.487V4.93042H158.483ZM157.049 8.92864H153.579V7.84312H157.049V8.92864Z" fill="#002F67"/>
</g>
</g>
<g id="Group_4">
<path id="Vector_54" d="M29.8457 14C29.8457 21.7354 23.5949 28.0041 15.8857 28.0041C8.17656 28.0041 1.92578 21.7354 1.92578 14C1.92578 6.26458 8.17243 0 15.8857 0C23.599 0 29.8457 6.26872 29.8457 14Z" fill="#FAA61A"/>
<path id="Vector_55" d="M28.4428 14C28.4428 20.9565 22.82 26.5954 15.8834 26.5954C8.94681 26.5954 3.32812 20.9565 3.32812 14C3.32812 7.04349 8.94681 1.40869 15.8834 1.40869C22.82 1.40869 28.4428 7.04764 28.4428 14Z" fill="#002F67"/>
<path id="Vector_56" d="M4.0336 14.1036C3.96337 14.0705 3.95098 14.1036 4.00468 14.145H4.01708C4.31454 14.3688 4.38064 14.6298 4.2567 14.8535C4.06666 15.1933 3.73614 15.2099 3.60807 15.0068C3.44695 14.7458 3.69896 14.4392 3.93858 14.7168C4.20712 14.0415 2.88921 14.1119 3.10404 14.9944C2.74048 14.9157 2.33974 14.7168 2.00923 14.3853C1.94312 14.3191 1.91834 14.3605 1.95965 14.4226C2.27364 14.8991 2.72809 15.2057 3.2032 15.4336C3.65352 15.62 4.046 15.8396 4.21125 16.1711C4.31867 16.3824 4.14102 16.5274 3.98403 16.5813C3.28996 16.8174 2.68264 17.4555 2.88921 18.6653H1.83984C1.75721 18.4623 1.68285 18.1184 1.85637 17.6875C1.87289 17.6544 1.85637 17.6254 1.82745 17.6502C1.58783 17.874 1.46802 18.2178 1.56304 18.6612H1.18708C1.10445 18.483 1.0053 18.1433 1.18708 17.7124C1.19948 17.6834 1.19121 17.6544 1.16229 17.6834C1.04248 17.7952 0.790469 18.1143 0.873096 18.6612H0.55498C0.447564 18.6612 0.40625 18.5949 0.40625 18.4954C0.40625 16.8713 1.9927 16.7843 2.69917 17.1116H2.7033C2.75701 17.1447 2.77353 17.124 2.74048 17.0867L2.73222 17.0743C2.60828 16.9252 2.27364 16.6393 1.58369 16.6931C1.66219 16.457 1.76548 15.8521 1.4267 14.7665C0.711972 12.4753 1.68285 9.76149 3.69896 8.65525C4.3889 8.27822 4.97969 8.19949 5.42175 8.34451C5.33912 8.44395 5.33086 8.64282 5.39696 8.73397C4.99622 8.55996 4.31041 8.87484 4.5335 9.18144L4.5459 9.19387C4.57482 9.2353 4.59134 9.22287 4.58308 9.17315V9.15658C4.57482 9.02814 4.66571 8.94113 4.79791 8.8997C4.62439 9.04886 4.80617 9.34717 5.02514 9.22287C4.75247 9.19387 4.85162 8.87484 5.00861 8.86656C5.26476 8.83755 5.6779 9.082 5.44241 9.16487C5.38457 9.18559 5.18213 9.23116 5.07884 9.31402C5.03753 9.34303 5.04579 9.35131 5.08711 9.34717C5.3226 9.33888 5.43001 9.3016 5.62419 9.26845C6.93384 9.03643 7.37176 9.82779 7.32219 10.151C7.30979 10.1012 7.2189 9.98523 7.17346 10.064C7.09909 10.2173 6.82642 10.2504 6.59506 10.0018C6.51657 9.91065 6.34305 9.88579 6.16127 9.91894C5.86794 9.96866 5.7316 9.96037 5.60353 9.6952C5.57461 9.67863 5.57461 9.6952 5.57874 9.71592C5.59114 9.91894 5.63245 10.2877 6.01667 10.3498C6.153 10.383 6.29347 10.2255 6.49178 10.3498C6.62398 10.47 6.76858 10.6233 6.98341 10.5694C7.17759 10.5239 7.18585 10.6026 7.21064 10.6647C7.24782 10.8346 7.16519 10.905 7.02473 10.8056C6.96276 10.7642 6.876 10.7186 6.78924 10.7062C6.16127 10.6274 5.56222 11.1661 5.07471 10.3001C5.01274 10.1924 4.90946 10.0805 4.79378 10.0474C4.57895 9.98523 4.44261 10.1137 4.34759 10.2753C4.20299 10.5321 4.31041 10.441 4.47153 10.3333C4.55416 10.2835 4.70702 10.2918 4.78552 10.3581C4.83096 10.4037 4.87641 10.5197 4.8103 10.6233C4.68636 10.8056 4.5459 10.9879 4.45914 11.0128C4.34346 11.0418 4.31454 10.8553 4.30214 10.7476C4.29388 10.6854 4.26496 10.6896 4.25257 10.7559C4.22365 10.9257 4.23604 11.1702 4.38477 11.1785C4.61613 11.1951 4.81857 10.9465 4.9673 10.7103C5.00035 10.6772 5.0334 10.6813 5.06645 10.7103C5.3763 11.0459 5.75639 11.0749 6.27281 10.9589C6.45046 10.9175 6.63638 10.9092 6.78097 10.934C7.12388 11.0003 7.18998 11.2282 7.16106 11.4602C7.11562 11.6757 7.0743 11.7005 6.97928 11.771C6.93797 11.8041 6.93797 11.8414 6.97102 11.8455C6.97102 11.8455 7.0082 11.8953 6.95036 12.0154C6.9297 12.0527 6.90905 12.09 6.88426 12.119C6.87186 12.1397 6.85947 12.1521 6.85947 12.1563C6.73553 12.3344 6.60746 12.4629 6.52896 12.525C6.2976 12.6949 6.22737 12.7985 6.38849 12.7943C6.42981 12.7943 6.47525 12.7861 6.51243 12.7695C6.52483 12.7778 6.53309 12.7902 6.54962 12.7985C6.99581 13.1009 7.7188 13.9379 8.18978 14.7085C8.23522 14.7872 8.47071 14.8038 8.78883 15.1063C9.80101 16.0634 10.3918 17.1116 10.4868 18.5079C10.4868 18.599 10.429 18.6653 10.3381 18.6653H9.02018C8.983 18.5244 8.96648 18.3214 9.06976 18.0811C9.08216 18.0563 9.07389 18.0397 9.05324 18.0563C8.90037 18.193 8.81361 18.4084 8.8508 18.6612H8.61531C8.56986 18.5327 8.53268 18.3256 8.64423 18.0687C8.65249 18.0521 8.64423 18.0314 8.6277 18.048C8.54921 18.1184 8.40048 18.2758 8.42113 18.6612H8.26827C8.18564 18.6612 8.09889 18.6446 8.10302 18.5369C8.06583 17.7869 9.36309 16.9624 10.1563 18.0645V18.0728C10.2018 18.1391 10.2307 18.1225 10.2059 18.0563L10.1976 18.0397C10.0158 17.5756 9.40027 17.1696 8.75991 17.3975C8.53681 17.0329 8.37156 16.7304 8.40048 15.8231C8.40048 15.7485 8.37156 15.7485 8.35503 15.8148C8.24348 16.2954 8.26001 17.008 8.45832 17.5425C8.11954 17.7248 7.95429 18.0273 7.88819 18.3463C7.86753 18.4623 7.64856 18.4623 7.68575 18.3214C7.74772 18.0894 7.85927 16.9624 7.74772 16.457C7.80556 15.9308 7.74772 15.4584 7.40068 15.2057C7.5081 15.1684 7.58246 15.0773 7.57833 14.9364C7.59073 14.5967 7.06191 14.1658 7.01646 14.5428C7.01646 14.5428 7.01646 14.5884 7.02059 14.5594C7.09909 14.3812 7.47918 14.6588 7.33045 14.8701C7.19411 15.0607 6.7975 14.7955 6.82229 14.4765C6.86773 13.8799 7.49983 14.3315 7.88405 14.8908C8.16499 15.301 8.47484 15.4129 8.66488 15.4377C8.73925 15.4502 8.74338 15.4212 8.68141 15.3963H8.66488C8.44592 15.3051 8.18978 15.1104 7.84687 14.5428C6.89252 12.9601 6.02493 13.8053 6.61985 14.7872C6.72313 14.953 6.85534 15.0731 6.98754 15.1436C6.7314 15.4833 7.38002 16.0509 7.46265 15.7733C7.47918 15.7236 7.45439 15.6615 7.41308 15.5993C7.28913 15.8272 7.05365 15.243 7.30566 15.359C7.49984 15.4502 7.69401 15.8976 7.60725 16.2539C7.52462 16.1255 7.30566 15.8852 7.13214 15.9929C7.05365 16.0385 7.04538 16.1794 7.11562 16.3285C7.21477 16.5357 7.4296 16.631 7.46678 16.515C7.47918 16.4777 7.46678 16.4238 7.43373 16.3741C7.40481 16.4611 7.28087 16.3865 7.26435 16.2498C7.25608 16.1835 7.285 16.1421 7.35524 16.1835C7.54941 16.2871 7.58246 16.4984 7.59073 16.9003C7.5742 18.7275 6.99994 18.6695 6.80989 18.6695H5.10363C4.97969 18.4664 4.78965 18.0231 4.97969 17.4265C4.99208 17.3892 4.97969 17.3519 4.94251 17.3933C4.80204 17.5508 4.53763 17.8905 4.68223 18.6736H4.21125C4.08318 18.4706 3.89727 18.0273 4.08731 17.4306C4.09971 17.3933 4.08731 17.356 4.05013 17.3975C3.90966 17.5549 3.64525 17.8947 3.78985 18.6777H3.47587C3.26517 18.6777 3.24038 18.5617 3.21146 18.3504C3.02555 16.1877 5.91338 16.5108 6.97928 17.3063L6.99167 17.3146C7.04951 17.3602 7.07017 17.3353 7.02473 17.2815L7.01646 17.269C6.64051 16.834 5.7977 16.428 4.80617 16.4487C4.53763 16.4611 4.45914 16.2912 4.45087 16.1504C4.43435 15.8479 4.42609 15.7236 4.43435 15.5993C4.43435 14.9488 5.39283 14.3853 5.84315 13.5484C5.90925 13.4241 5.86381 13.391 5.78531 13.5028C5.43414 13.9835 5.02514 14.4144 4.57068 14.7002C4.57068 14.6878 4.57068 14.6754 4.56242 14.6629C4.52524 14.4434 4.27322 14.2113 4.03774 14.1202H4.02947L4.0336 14.1036Z" fill="white"/>
<path id="Vector_57" d="M5.5568 8.5144C5.6229 8.16637 6.17651 8.16223 6.15998 8.4854C6.14759 8.67599 5.85013 8.67599 5.88318 8.50612C5.88318 8.49783 5.87492 8.48954 5.86252 8.49783C5.77989 8.56827 5.81708 8.75885 5.99886 8.792C6.21782 8.83343 6.34176 8.95359 6.36242 9.09446C6.07322 8.99916 5.46178 9.02402 5.5568 8.5144Z" fill="white"/>
<path id="Vector_58" d="M2.05774 11.3981C2.18581 11.3194 2.32628 11.1744 2.32628 10.9465C2.32628 10.8595 2.28496 10.7683 2.28083 10.6482C2.27257 10.5197 2.33041 10.4079 2.43369 10.3374C2.52872 10.2753 2.65266 10.2587 2.75594 10.296C2.87162 10.3374 2.89641 10.441 2.87575 10.5239C2.85096 10.5984 2.79312 10.6647 2.71463 10.6523H2.7105C2.62374 10.6274 2.59069 10.5612 2.58242 10.5031C2.50806 10.5446 2.47501 10.615 2.48327 10.6979C2.4998 10.7807 2.57003 10.8802 2.73115 10.9092C2.84683 10.9299 2.96251 10.8885 3.03688 10.7932C3.10711 10.7103 3.14016 10.6026 3.1319 10.4949C3.14016 10.4079 3.12364 10.3167 3.0658 10.2297C3.02448 10.1758 2.96251 10.1344 2.90054 10.0598C2.83857 9.9811 2.82618 9.88581 2.85923 9.79051C2.88815 9.7035 2.96251 9.64136 3.04514 9.6165C3.13603 9.59164 3.198 9.6455 3.22279 9.71179C3.23931 9.76565 3.23105 9.84023 3.17734 9.86095C3.17734 9.86095 3.17734 9.86095 3.16908 9.86095C3.11124 9.88995 3.05753 9.86095 3.02861 9.8278C2.99969 9.88581 3.00796 9.94796 3.0534 9.99353C3.09885 10.0391 3.18561 10.0723 3.30128 10.0184C3.38391 9.97696 3.43762 9.90238 3.44175 9.80294C3.45001 9.6745 3.37978 9.54606 3.26823 9.47977C3.16082 9.41348 2.96664 9.40519 2.83031 9.48806C2.6981 9.57092 2.64439 9.72422 2.66505 9.86095C2.67331 9.91895 2.68571 9.96867 2.70637 10.0101C2.67331 10.0018 2.64439 9.99767 2.61547 9.99353C2.41304 9.97696 2.24365 10.0971 2.16515 10.2587C2.04948 10.4783 2.08666 10.6482 2.11971 10.8139C2.1445 10.9506 2.16929 11.0749 2.10731 11.2116C2.08253 11.2614 2.05774 11.3069 2.02469 11.3401L2.01229 11.3567C1.96272 11.4064 1.98337 11.4312 2.04121 11.3939L2.05361 11.3857L2.05774 11.3981Z" fill="#002F67"/>
<path id="Vector_59" d="M7.30451 19.0216C7.59371 19.0216 7.69286 18.86 7.74244 18.7523C7.76309 18.7109 7.76722 18.7192 7.76722 18.7523C7.77549 18.9346 7.97379 19.0216 8.08534 19.0216H10.1758C10.7707 19.0216 10.8286 18.7896 10.8079 18.338C10.7253 17.0412 9.70897 15.1021 8.43651 14.5096C8.02337 13.8716 7.28798 13.0222 6.80461 12.5996C7.02358 12.3593 7.27559 11.9326 7.35822 11.6384C7.4615 11.4768 7.44911 11.0708 7.37474 11.0128C7.44911 10.8097 7.40366 10.644 7.34996 10.528C7.61023 10.2835 7.57305 9.26431 6.56499 9.13587C6.55673 8.90384 6.41213 8.78369 6.23861 8.70083C6.55673 8.53924 6.28819 7.95919 5.68501 8.12077C5.55694 8.04205 5.32145 7.97162 5.01159 7.97576C4.68521 7.97576 4.27208 7.98819 3.578 8.36937C1.42555 9.55019 0.277028 12.3717 1.05786 14.895C1.54123 16.4611 1.22725 16.5978 0.599276 17.1157C0.0621959 17.5964 -0.00390625 17.9858 -0.00390625 18.3711C-0.00390625 18.7565 0.07459 19.0258 0.607538 19.0258H7.30451V19.0216ZM5.55694 8.51438C5.62304 8.16635 6.17664 8.16221 6.16012 8.48538C6.14772 8.67597 5.85026 8.67597 5.88331 8.50609C5.88331 8.49781 5.87505 8.48952 5.86266 8.49781C5.78003 8.56824 5.81721 8.75883 5.99899 8.79198C6.21796 8.83341 6.3419 8.95356 6.36256 9.09443C6.07336 8.99914 5.46191 9.024 5.55694 8.51438ZM4.03245 14.1036C3.96222 14.0705 3.94983 14.1036 4.00354 14.145H4.01593C4.31339 14.3688 4.37949 14.6298 4.25555 14.8535C4.06551 15.1933 3.735 15.2099 3.60692 15.0068C3.4458 14.7458 3.69781 14.4392 3.93743 14.7168C4.20597 14.0415 2.88806 14.1119 3.10289 14.9944C2.73933 14.9157 2.33859 14.7168 2.00808 14.3853C1.94198 14.3191 1.91719 14.3605 1.9585 14.4226C2.27249 14.8991 2.72694 15.2057 3.20205 15.4336C3.65237 15.62 4.04485 15.8396 4.2101 16.1711C4.31752 16.3824 4.13987 16.5274 3.98288 16.5813C3.28881 16.8174 2.68149 17.4555 2.88806 18.6653H1.83869C1.75606 18.4623 1.6817 18.1184 1.85522 17.6875C1.87174 17.6544 1.85522 17.6254 1.8263 17.6502C1.58668 17.874 1.46687 18.2178 1.56189 18.6612H1.18593C1.1033 18.483 1.00415 18.1433 1.18593 17.7124C1.19833 17.6834 1.19006 17.6544 1.16114 17.6834C1.04133 17.7952 0.789319 18.1143 0.871947 18.6612H0.55383C0.446415 18.6612 0.405101 18.5949 0.405101 18.4954C0.405101 16.8713 1.99155 16.7843 2.69802 17.1116H2.70215C2.75586 17.1447 2.77238 17.124 2.73933 17.0867L2.73107 17.0743C2.60713 16.9252 2.27249 16.6393 1.58254 16.6931C1.66104 16.457 1.76433 15.8521 1.42555 14.7665C0.710823 12.4753 1.6817 9.7615 3.69781 8.65525C4.38775 8.27822 4.97854 8.19949 5.4206 8.34451C5.33797 8.44395 5.32971 8.64282 5.39581 8.73397C4.99507 8.55996 4.30926 8.87484 4.53235 9.18144L4.54475 9.19387C4.57367 9.2353 4.59019 9.22287 4.58193 9.17316V9.15658C4.57367 9.02814 4.66456 8.94113 4.79676 8.8997C4.62324 9.04886 4.80502 9.34717 5.02399 9.22287C4.75132 9.19387 4.85047 8.87484 5.00746 8.86656C5.26361 8.83755 5.67675 9.082 5.44126 9.16487C5.38342 9.18559 5.18098 9.23116 5.07769 9.31403C5.03638 9.34303 5.04464 9.35131 5.08596 9.34717C5.32145 9.33888 5.42886 9.3016 5.62304 9.26845C6.93269 9.03643 7.37061 9.82779 7.32104 10.151C7.30864 10.1012 7.21775 9.98523 7.17231 10.064C7.09794 10.2173 6.82527 10.2504 6.59391 10.0018C6.51542 9.91065 6.3419 9.88579 6.16012 9.91894C5.86679 9.96866 5.73045 9.96037 5.60238 9.6952C5.57346 9.67863 5.57346 9.6952 5.57759 9.71592C5.58999 9.91894 5.6313 10.2877 6.01552 10.3498C6.15185 10.383 6.29232 10.2255 6.49063 10.3498C6.62283 10.47 6.76743 10.6233 6.98226 10.5694C7.17644 10.5239 7.1847 10.6026 7.20949 10.6647C7.24667 10.8346 7.16404 10.905 7.02358 10.8056C6.96161 10.7642 6.87485 10.7186 6.78809 10.7062C6.16012 10.6274 5.56107 11.1661 5.07356 10.3001C5.01159 10.1924 4.90831 10.0805 4.79263 10.0474C4.5778 9.98523 4.44146 10.1137 4.34644 10.2753C4.20184 10.5321 4.30926 10.441 4.47038 10.3333C4.55301 10.2835 4.70587 10.2918 4.78437 10.3581C4.82981 10.4037 4.87526 10.5197 4.80915 10.6233C4.68521 10.8056 4.54475 10.9879 4.45799 11.0128C4.34231 11.0418 4.31339 10.8553 4.30099 10.7476C4.29273 10.6854 4.26381 10.6896 4.25142 10.7559C4.2225 10.9257 4.23489 11.1702 4.38362 11.1785C4.61498 11.1951 4.81742 10.9465 4.96615 10.7103C4.9992 10.6772 5.03225 10.6813 5.0653 10.7103C5.37515 11.0459 5.75524 11.0749 6.27166 10.9589C6.44931 10.9175 6.63523 10.9092 6.77982 10.934C7.12273 11.0003 7.18883 11.2282 7.15991 11.4602C7.11447 11.6757 7.07315 11.7005 6.97813 11.771C6.93682 11.8041 6.93682 11.8414 6.96987 11.8455C6.96987 11.8455 7.00705 11.8953 6.94921 12.0154C6.92855 12.0527 6.9079 12.09 6.88311 12.119C6.87072 12.1397 6.85832 12.1521 6.85832 12.1563C6.73438 12.3344 6.60631 12.4629 6.52781 12.525C6.29645 12.6949 6.22622 12.7985 6.38734 12.7943C6.42866 12.7943 6.4741 12.7861 6.51128 12.7695C6.52368 12.7778 6.53194 12.7902 6.54847 12.7985C6.99466 13.1009 7.71765 13.9379 8.18863 14.7085C8.23407 14.7872 8.46956 14.8038 8.78768 15.1063C9.79987 16.0634 10.3907 17.1116 10.4857 18.5079C10.4857 18.599 10.4278 18.6653 10.3369 18.6653H9.01903C8.98185 18.5244 8.96533 18.3214 9.06861 18.0811C9.08101 18.0563 9.07274 18.0397 9.05208 18.0563C8.89922 18.193 8.81247 18.4084 8.84965 18.6612H8.61416C8.56871 18.5327 8.53153 18.3256 8.64308 18.0687C8.65134 18.0521 8.64308 18.0314 8.62655 18.048C8.54806 18.1184 8.39933 18.2758 8.41998 18.6612H8.26712C8.18449 18.6612 8.09774 18.6446 8.10187 18.5369C8.06468 17.7869 9.36194 16.9624 10.1552 18.0645V18.0728C10.2006 18.1391 10.2295 18.1225 10.2047 18.0563L10.1965 18.0397C10.0147 17.5756 9.39912 17.1696 8.75876 17.3975C8.53566 17.0329 8.37041 16.7304 8.39933 15.8231C8.39933 15.7485 8.37041 15.7485 8.35388 15.8148C8.24233 16.2954 8.25886 17.008 8.45717 17.5425C8.11839 17.7248 7.95314 18.0273 7.88704 18.3463C7.86638 18.4623 7.64742 18.4623 7.6846 18.3214C7.74657 18.0894 7.85812 16.9624 7.74657 16.457C7.80441 15.9308 7.74657 15.4584 7.39953 15.2057C7.50695 15.1684 7.58131 15.0773 7.57718 14.9364C7.58958 14.5967 7.06076 14.1658 7.01531 14.5428C7.01531 14.5428 7.01531 14.5884 7.01944 14.5594C7.09794 14.3812 7.47803 14.6588 7.3293 14.8701C7.19296 15.0607 6.79635 14.7955 6.82114 14.4765C6.86658 13.8799 7.49869 14.3315 7.8829 14.8908C8.16384 15.301 8.47369 15.4129 8.66374 15.4377C8.7381 15.4502 8.74223 15.4212 8.68026 15.3963H8.66374C8.44477 15.3051 8.18863 15.1104 7.84572 14.5428C6.89137 12.9601 6.02378 13.8053 6.6187 14.7872C6.72199 14.953 6.85419 15.0731 6.98639 15.1436C6.73025 15.4833 7.37888 16.0509 7.4615 15.7733C7.47803 15.7236 7.45324 15.6615 7.41193 15.5993C7.28798 15.8272 7.0525 15.243 7.30451 15.359C7.49869 15.4502 7.69286 15.8976 7.6061 16.2539C7.52347 16.1255 7.30451 15.8852 7.13099 15.9929C7.0525 16.0385 7.04423 16.1794 7.11447 16.3285C7.21362 16.5357 7.42845 16.631 7.46563 16.515C7.47803 16.4777 7.46563 16.4238 7.43258 16.3741C7.40366 16.4611 7.27972 16.3865 7.2632 16.2498C7.25493 16.1835 7.28385 16.1421 7.35409 16.1835C7.54826 16.2871 7.58131 16.4984 7.58958 16.9003C7.57305 18.7275 6.99879 18.6695 6.80874 18.6695H5.10248C4.97854 18.4664 4.7885 18.0231 4.97854 17.4265C4.99094 17.3892 4.97854 17.3519 4.94136 17.3933C4.80089 17.5508 4.53648 17.8905 4.68108 18.6736H4.2101C4.08203 18.4706 3.89612 18.0273 4.08616 17.4306C4.09856 17.3933 4.08616 17.3561 4.04898 17.3975C3.90851 17.5549 3.6441 17.8947 3.7887 18.6777H3.47472C3.26402 18.6777 3.23923 18.5617 3.21031 18.3504C3.0244 16.1877 5.91223 16.5108 6.97813 17.3063L6.99053 17.3146C7.04836 17.3602 7.06902 17.3353 7.02358 17.2815L7.01531 17.269C6.63936 16.834 5.79656 16.428 4.80502 16.4487C4.53648 16.4611 4.45799 16.2912 4.44972 16.1504C4.4332 15.8479 4.42494 15.7236 4.4332 15.5993C4.4332 14.9488 5.39168 14.3853 5.842 13.5484C5.9081 13.4241 5.86266 13.391 5.78416 13.5028C5.43299 13.9835 5.02399 14.4144 4.56953 14.7002C4.56953 14.6878 4.56953 14.6754 4.56127 14.6629C4.52409 14.4434 4.27208 14.2113 4.03659 14.1202H4.02832L4.03245 14.1036Z" fill="#002F67"/>
<path id="Vector_60" d="M11.7204 22.7546C11.7328 22.6966 11.7452 22.6344 11.7535 22.5723C11.7617 22.5102 11.7659 22.4439 11.7659 22.3734V22.013H11.423V22.4356C11.423 22.5226 11.4106 22.6096 11.3858 22.7007C11.361 22.7919 11.3238 22.8789 11.2701 22.9659C11.2164 23.0529 11.1503 23.1358 11.0677 23.2145C10.985 23.2932 10.8818 23.3637 10.7661 23.4217H10.7578L10.7619 23.4341L10.9726 23.6744H10.9768C11.0842 23.6123 11.1957 23.5335 11.3032 23.4341C11.4106 23.3388 11.5056 23.2186 11.58 23.0819L12.1749 23.662H12.179H12.1831L12.398 23.4382H12.4021L12.398 23.4299L11.7122 22.7587L11.7204 22.7546ZM12.7657 21.7478V22.5516H12.1129V22.8665H12.7657V24.4533H13.092V21.7437H12.7657V21.7478Z" fill="white"/>
<path id="Vector_61" d="M14.1621 22.738C14.2282 22.7877 14.3025 22.825 14.3852 22.8499C14.4678 22.8747 14.5587 22.8872 14.6537 22.8872C14.7529 22.8872 14.8479 22.8747 14.9346 22.8457C15.0214 22.8167 15.0958 22.7794 15.1577 22.7297C15.2197 22.68 15.2693 22.6178 15.3065 22.5474C15.3436 22.477 15.3602 22.3982 15.3602 22.3112C15.3602 22.2242 15.3395 22.1414 15.3023 22.0668C15.2651 21.9964 15.2114 21.9342 15.1495 21.8845C15.0875 21.8348 15.009 21.7933 14.9222 21.7643C14.8355 21.7353 14.7446 21.7229 14.6454 21.7229C14.5463 21.7229 14.4554 21.7353 14.3686 21.7643C14.2819 21.7933 14.2075 21.8306 14.1497 21.8845C14.0877 21.9342 14.0381 22.0005 14.0009 22.0709C13.9638 22.1414 13.9472 22.2242 13.9472 22.3154C13.9472 22.4065 13.9679 22.4853 14.0009 22.5557C14.0381 22.6261 14.0877 22.6883 14.1538 22.738H14.1621ZM14.3934 22.0958C14.4637 22.0461 14.5504 22.0171 14.6578 22.0171C14.7652 22.0171 14.8479 22.0419 14.9181 22.0958C14.9925 22.1455 15.0255 22.2201 15.0255 22.3112C15.0255 22.4065 14.9883 22.477 14.9181 22.5225C14.8437 22.5681 14.757 22.593 14.6578 22.593C14.5587 22.593 14.4637 22.5681 14.3934 22.5184C14.3232 22.4687 14.2901 22.3982 14.2901 22.3112C14.2901 22.2201 14.3273 22.1455 14.3934 22.0958ZM15.9551 23.2725V22.9617H13.4102V23.2725H14.505V23.4051H13.9638V23.7075H15.0462V23.8111H13.9762V24.5486H15.4593V24.2337H14.3149V24.1135H15.385V23.4051H14.8314V23.2725H15.951H15.9551Z" fill="white"/>
<path id="Vector_62" d="M17.3808 23.8071V23.1525H17.0544V23.8071H15.9844V24.122H18.521V23.8071H17.3808ZM16.4471 23.4591H16.4512C16.6165 23.3928 16.7693 23.3017 16.9015 23.1898C17.0337 23.0779 17.1412 22.9495 17.2238 22.8128L17.984 23.4508H17.9881H17.9922L18.2029 23.2188H18.2071L18.2029 23.2105L17.3643 22.502C17.3767 22.4523 17.389 22.4026 17.3973 22.3529C17.4056 22.3032 17.4097 22.2493 17.4097 22.1996V21.98H17.0544V22.1996C17.0544 22.3073 17.0337 22.415 16.9883 22.5186C16.947 22.618 16.885 22.7175 16.8107 22.8045C16.7363 22.8915 16.6495 22.9702 16.5504 23.0406C16.4512 23.1111 16.3438 23.1691 16.2323 23.2147H16.224L16.2323 23.2271L16.443 23.4633L16.4471 23.4591Z" fill="white"/>
<path id="Vector_63" d="M19.6797 21.9177H19.3492V22.3361H18.7914V21.9177H18.4609V23.2228H19.6797V21.9177ZM19.3492 22.912H18.7914V22.6427H19.3492V22.912ZM20.2664 23.5377C20.2044 23.4838 20.13 23.4424 20.0474 23.4134C19.9648 23.3844 19.878 23.3678 19.7912 23.3678C19.7045 23.3678 19.6136 23.3844 19.531 23.4134C19.4483 23.4465 19.3781 23.488 19.3161 23.5418C19.2542 23.5957 19.2046 23.662 19.1674 23.7366C19.1302 23.8111 19.1137 23.894 19.1137 23.9769C19.1137 24.0597 19.1302 24.1426 19.1633 24.2172C19.1963 24.2917 19.2459 24.358 19.3079 24.4119C19.3698 24.4658 19.4401 24.5072 19.5227 24.5403C19.6053 24.5735 19.6962 24.5901 19.7954 24.5901C19.8904 24.5901 19.9772 24.5735 20.0598 24.5403C20.1424 24.5072 20.2126 24.4658 20.2746 24.4078C20.3366 24.3539 20.3862 24.2876 20.4192 24.213C20.4564 24.1384 20.4729 24.0556 20.4729 23.9727C20.4729 23.8898 20.4523 23.8028 20.4151 23.7283C20.3779 23.6537 20.3283 23.5915 20.2664 23.5377ZM20.0391 24.1964C19.973 24.2503 19.8904 24.2793 19.7954 24.2793C19.688 24.2793 19.6053 24.2503 19.5434 24.1882C19.4814 24.1302 19.4483 24.0556 19.4483 23.9727C19.4483 23.8898 19.4814 23.8236 19.5475 23.7656C19.6136 23.7075 19.6962 23.6785 19.7912 23.6785C19.8863 23.6785 19.973 23.7075 20.0391 23.7656C20.1052 23.8236 20.1383 23.894 20.1383 23.9851C20.1383 24.0763 20.1052 24.1467 20.0433 24.2047L20.0391 24.1964ZM20.4894 22.3734V21.7437H20.1548V23.3595H20.4894V22.6883H20.9522V22.3734H20.4894Z" fill="white"/>
<path id="Vector_64" d="M8.39008 7.50745C8.10501 7.83477 7.85713 7.73119 7.65056 7.52402L7.88192 7.25886C8.00173 7.36658 8.10914 7.44945 8.23722 7.30443C8.31571 7.21328 8.29505 7.11799 8.2083 7.04341C7.98107 6.84453 7.4977 7.36658 7.12174 7.03512C6.92344 6.86111 6.84907 6.62909 7.13 6.30177C7.35723 6.04075 7.58446 6.01589 7.83234 6.26448L7.60511 6.5255C7.51009 6.44264 7.39854 6.3722 7.30765 6.47993C7.23329 6.56694 7.23742 6.65809 7.32418 6.73681C7.5638 6.94811 8.00999 6.39292 8.41073 6.74095C8.74124 7.02684 8.56773 7.30443 8.39008 7.50745Z" fill="white"/>
<path id="Vector_65" d="M8.75427 6.31009C8.84929 6.41367 8.99389 6.56697 9.10131 6.47167C9.18806 6.39295 9.13023 6.29352 9.06412 6.22308L9.31201 5.99935C9.39463 6.09878 9.43182 6.20236 9.42355 6.31009C9.41529 6.41367 9.35745 6.52554 9.24177 6.62912C8.92779 6.915 8.71296 6.7617 8.46507 6.4841C8.25024 6.2438 8.09738 6.00763 8.41963 5.71761C8.75014 5.41929 8.97736 5.6016 9.22112 5.88748L8.75427 6.31009ZM8.85342 5.97034C8.77493 5.88748 8.67164 5.75904 8.55596 5.86676C8.44442 5.97034 8.56423 6.09878 8.63033 6.17336L8.85342 5.97034Z" fill="white"/>
<path id="Vector_66" d="M9.35522 5.69291C9.16518 5.43189 9.04537 5.17915 9.39654 4.92641C9.7477 4.67368 9.94601 4.86841 10.1361 5.13358C10.3509 5.43189 10.4583 5.67634 10.1113 5.92493C9.76836 6.17353 9.57005 5.99537 9.35522 5.69706V5.69291ZM9.85925 5.30759C9.71465 5.10872 9.63616 5.01342 9.52048 5.09629C9.40893 5.17915 9.4709 5.28688 9.61137 5.48575C9.82207 5.77992 9.8923 5.8255 9.98732 5.75092C10.0865 5.68048 10.0658 5.59762 9.85512 5.30759H9.85925Z" fill="white"/>
<path id="Vector_67" d="M11.0905 5.13752C11.0864 5.26596 11.0244 5.34053 10.917 5.39854C10.7807 5.47726 10.6154 5.46069 10.5369 5.31568L10.0742 4.48703L10.3634 4.32544L10.7642 5.03808C10.8137 5.12923 10.8674 5.18723 10.9625 5.13752C11.0534 5.0878 11.0327 5.00908 10.9831 4.91792L10.5824 4.20529L10.8716 4.0437L11.3343 4.87235C11.3715 4.93864 11.4128 5.00908 11.4582 5.07122L11.1608 5.23695L11.1029 5.13337L11.0905 5.13752Z" fill="white"/>
<path id="Vector_68" d="M11.2782 3.30225L11.9681 4.84353L11.6665 4.98026L10.9766 3.43897L11.2782 3.30225Z" fill="white"/>
<path id="Vector_69" d="M12.8062 4.52022L12.3477 2.89607L13.1905 2.65576L13.2607 2.90436L12.7567 3.04523L12.8765 3.45955L13.3557 3.32282L13.4259 3.57142L12.9467 3.70814L13.1491 4.41664L12.8104 4.51193L12.8062 4.52022Z" fill="white"/>
<path id="Vector_70" d="M13.8418 2.52734L13.8914 2.78422L13.5691 2.84637L13.5195 2.58949L13.8418 2.52734ZM14.1599 4.18464L13.8376 4.24679L13.6146 3.08668L13.9368 3.02453L14.1599 4.18464Z" fill="white"/>
<path id="Vector_71" d="M14.638 2.92519L14.6545 3.07849H14.6586C14.7041 2.93762 14.8115 2.88376 14.9437 2.86719L14.9768 3.16136C14.6876 3.17793 14.7041 3.34366 14.7165 3.45967L14.7908 4.09773L14.4645 4.13502L14.3281 2.96248L14.638 2.92519Z" fill="white"/>
<path id="Vector_72" d="M15.4877 3.50509C15.4877 3.64596 15.5 3.85727 15.6446 3.85312C15.7603 3.85312 15.781 3.73711 15.781 3.63768L16.1156 3.62939C16.1156 3.75783 16.0743 3.86555 15.9958 3.94013C15.9214 4.01471 15.8058 4.06029 15.6529 4.06443C15.2274 4.07272 15.1654 3.81584 15.1571 3.44709C15.1489 3.12391 15.1902 2.84632 15.624 2.83803C16.066 2.8256 16.1239 3.11563 16.1198 3.49266L15.4918 3.50509H15.4877ZM15.7851 3.3145C15.7851 3.19849 15.7851 3.03691 15.6281 3.04105C15.4753 3.04105 15.4835 3.22335 15.4835 3.32279L15.7851 3.3145Z" fill="white"/>
<path id="Vector_73" d="M17.4144 4.18458C16.9847 4.11415 16.9434 3.84898 17.0095 3.5631L17.3566 3.61696C17.3318 3.7744 17.3153 3.91113 17.5094 3.94013C17.6251 3.95671 17.6953 3.89041 17.716 3.77855C17.7656 3.47609 17.0674 3.34765 17.1459 2.85046C17.1872 2.58944 17.3442 2.40299 17.7697 2.46928C18.1085 2.52315 18.2531 2.70131 18.1746 3.04934L17.8358 2.99548C17.8565 2.87118 17.8565 2.73859 17.716 2.71788C17.6045 2.70131 17.526 2.75102 17.5094 2.86704C17.4599 3.18192 18.1622 3.26893 18.0796 3.79098C18.0093 4.22187 17.6871 4.22187 17.4227 4.18044L17.4144 4.18458Z" fill="white"/>
<path id="Vector_74" d="M18.6173 3.8615C18.5801 3.99823 18.5264 4.20125 18.6669 4.23854C18.7784 4.27168 18.8321 4.1681 18.8611 4.07281L19.1833 4.16396C19.142 4.28411 19.0759 4.37527 18.9767 4.42498C18.8817 4.4747 18.7578 4.48299 18.6091 4.44156C18.2 4.32555 18.2166 4.06038 18.3199 3.70406C18.4066 3.39332 18.5264 3.14058 18.9437 3.26073C19.3692 3.38089 19.3403 3.67506 19.2246 4.03552L18.6173 3.8615ZM18.9561 3.76621C18.9891 3.65434 19.0387 3.50104 18.8859 3.45547C18.7413 3.41403 18.6917 3.58391 18.6669 3.68335L18.9561 3.76621Z" fill="white"/>
<path id="Vector_75" d="M19.9767 3.63774L19.923 3.77861H19.9271C20.0345 3.67503 20.1502 3.67917 20.2741 3.72889L20.1667 4.00234C19.9023 3.87805 19.8403 4.03549 19.7949 4.14321L19.5635 4.74398L19.2578 4.62383L19.6875 3.52173L19.9808 3.6336L19.9767 3.63774Z" fill="white"/>
<path id="Vector_76" d="M20.4159 3.80762L20.7133 3.95677L20.4654 4.82271H20.4696L21.019 4.11007L21.3082 4.25509L20.4902 5.1666L20.168 5.00501L20.4159 3.80762Z" fill="white"/>
<path id="Vector_77" d="M21.2184 5.59341L20.9375 5.41939L21.5531 4.41259L21.834 4.5866L21.2184 5.59341ZM22.0984 4.15571L21.9621 4.3753L21.6811 4.20128L21.8175 3.98169L22.0984 4.15571Z" fill="white"/>
<path id="Vector_78" d="M22.3713 5.47322C22.4746 5.33235 22.4746 5.25777 22.392 5.19562C22.2805 5.11276 22.1978 5.20391 22.0491 5.40278C21.8343 5.69281 21.8136 5.77153 21.9128 5.84611C21.9954 5.90826 22.0904 5.86268 22.1813 5.73839L22.4457 5.93312C22.2557 6.19 22.0326 6.19829 21.7888 6.01598C21.4459 5.76325 21.5575 5.51879 21.7764 5.22462C21.9665 4.9636 22.1689 4.77301 22.5201 5.02989C22.7638 5.21219 22.8217 5.4235 22.6399 5.67209L22.3755 5.47322H22.3713Z" fill="white"/>
<path id="Vector_79" d="M22.9164 6.21895C22.8214 6.32253 22.6809 6.47997 22.7883 6.57941C22.8751 6.65813 22.966 6.59184 23.0321 6.52141L23.2758 6.74928C23.1849 6.84044 23.0817 6.89015 22.9742 6.88601C22.8668 6.88601 22.7553 6.83629 22.6437 6.73271C22.3339 6.44268 22.4702 6.21481 22.7222 5.94135C22.9412 5.70519 23.1643 5.53532 23.4824 5.83363C23.8046 6.13608 23.6477 6.38054 23.3791 6.64985L22.9164 6.21895ZM23.2634 6.28938C23.3419 6.20652 23.4576 6.09051 23.3419 5.98278C23.2304 5.8792 23.1106 6.01179 23.0445 6.08637L23.2634 6.29353V6.28938Z" fill="white"/>
<path id="Vector_80" d="M23.6278 7.16779C23.5864 7.20093 23.5493 7.23822 23.5286 7.27137C23.5121 7.30866 23.5203 7.35009 23.5617 7.39981C23.603 7.44953 23.6732 7.4661 23.731 7.41224C23.9211 7.25065 23.4997 6.84462 23.7848 6.60016C23.9789 6.43444 24.202 6.57531 24.3384 6.73689C24.483 6.90676 24.5367 7.1305 24.3301 7.2838L24.1194 7.03935C24.1814 6.98549 24.2144 6.9482 24.2144 6.91505C24.2144 6.88605 24.202 6.86119 24.1772 6.83633C24.1318 6.78247 24.0698 6.78247 24.0079 6.83633C23.8674 6.95648 24.2516 7.39152 23.9624 7.64012C23.8054 7.7727 23.5823 7.74784 23.4005 7.54068C23.2146 7.32109 23.1444 7.1305 23.4047 6.92748L23.6154 7.17193L23.6278 7.16779Z" fill="white"/>
<path id="Vector_81" d="M31.7645 11.0128C31.7645 10.8968 31.7645 10.7808 31.7521 10.6648C31.6984 10.1262 31.4959 9.63726 31.1571 9.21465C30.4589 8.357 29.4757 7.97168 27.9636 7.97168C25.8111 7.97168 23.2538 8.99506 21.4856 10.5446H10.6366C10.6366 10.5446 9.97555 10.4783 9.69461 10.9134C9.34758 11.4561 9.76485 11.8746 9.76485 11.8746L10.1573 12.3925C9.5872 13.1963 7.14555 16.8755 5.86069 18.6944C5.86069 18.6944 5.37732 19.3532 6.33167 19.3532H20.5808C19.9363 20.2025 19.1761 21.1389 19.1761 21.1389C19.139 21.1845 19.1183 21.2383 19.1183 21.2963C19.1183 21.3295 19.1266 21.3668 19.139 21.3999C19.1803 21.4869 19.267 21.5408 19.362 21.5408H25.7079C25.7905 21.5408 25.8648 21.4994 25.9103 21.4289L26.592 20.5754L31.1943 12.9601C31.5579 12.3387 31.7521 11.655 31.7603 11.0128H31.7645Z" fill="#002F67"/>
<path id="Vector_82" d="M27.9787 8.39844C25.3635 8.39844 22.0956 10.2173 20.6372 12.5334C19.1292 14.9199 20.1208 16.9086 22.8888 16.9086C23.0293 16.9086 23.1656 16.9045 23.3102 16.8921L20.2488 20.9732H25.3594L30.5773 12.7074C30.6227 12.6328 30.6682 12.5582 30.7095 12.4837C32.0109 10.1717 30.5979 8.39844 27.9828 8.39844H27.9787ZM24.2067 12.492C24.5868 11.8 25.5163 11.22 26.293 11.1951C27.0656 11.1703 27.3961 11.7047 27.0284 12.3967C26.6607 13.0969 25.7188 13.6894 24.9297 13.7184C24.1447 13.7432 23.8225 13.1922 24.2067 12.4961V12.492Z" fill="#B51F24"/>
<path id="Vector_83" d="M20.7298 11.5846L20.7629 11.5224C20.8455 11.3733 20.8373 11.278 20.8083 11.1993C20.7422 11.0294 20.5522 11.0294 20.5481 11.0294H16.3423C16.3423 11.0294 15.9333 11.0045 15.8135 11.3898C15.7557 11.5804 15.797 11.7047 15.9994 11.9077L16.4167 12.2806L12.2109 18.6654H16.5282L20.7298 11.5887V11.5846Z" fill="#B51F24"/>
<path id="Vector_84" d="M15.4321 11.1993C15.366 11.0294 15.176 11.0294 15.1719 11.0294H10.995C10.995 11.0294 10.586 11.0045 10.4662 11.3898C10.4084 11.5804 10.4497 11.7047 10.6521 11.9077L11.0694 12.2806L6.78516 18.6654H10.7967L15.3578 11.5846C15.4776 11.3981 15.4693 11.2863 15.4363 11.1993H15.4321Z" fill="#B51F24"/>
</g>
</g>
<defs>
<clipPath id="clip0_156_7996">
<rect width="161" height="28" fill="white"/>
</clipPath>
</defs>
</svg>
