<svg width="97" height="25" viewBox="0 0 97 25" fill="none" xmlns="http://www.w3.org/2000/svg">
<g clip-path="url(#clip0_176_6930)">
<path d="M13.7378 3.33618C13.785 3.41055 13.848 3.4743 13.8532 3.54867C13.9214 3.76648 14.1208 3.89929 14.1471 4.11709C14.1576 4.19147 14.252 4.22334 14.2993 4.25522C14.3517 4.32428 14.315 4.40396 14.42 4.5049C14.4672 4.53677 14.4305 4.61646 14.4409 4.69083C14.4882 4.7227 14.5406 4.75458 14.5879 4.78645C15.0339 5.493 15.0759 6.3111 14.5616 7.07077C14.4777 7.15577 14.399 7.27264 14.3675 7.38951C14.3255 7.43201 14.2363 7.47451 14.1943 7.51701C14.2048 7.59138 14.252 7.62326 14.3045 7.69232C14.0789 7.75075 14.0526 7.942 13.8847 8.06949C13.8375 8.06949 13.7483 8.08012 13.701 8.08543C13.5751 8.21293 13.4439 8.26074 13.3127 8.34574C13.2708 8.38824 13.2812 8.4998 13.2865 8.53698C13.0713 8.70698 12.7617 8.81323 12.4364 8.8026C12.3944 8.8026 12.3577 8.92479 12.3157 8.92479C12.0848 8.94603 11.8119 8.93541 11.5811 8.95666C11.4866 8.9301 11.4341 8.86104 11.3344 8.82916C11.2452 8.83979 11.1508 8.8451 11.0563 8.81854C10.9094 8.7176 10.7205 8.70167 10.5735 8.63792C10.4791 8.61136 10.3059 8.70167 10.2062 8.63792C9.89661 8.36699 9.59226 8.09606 9.42434 7.8145C9.31414 7.63919 9.11998 7.58076 9.05701 7.40014C9.04652 7.32576 9.08325 7.20889 8.9888 7.18233C8.79989 7.12389 8.8786 7.00702 8.8681 6.89546C8.81038 6.78921 8.79989 6.71484 8.70018 6.61391C8.64246 6.50766 8.71593 6.34829 8.6582 6.20485C8.6582 6.16767 8.69494 6.12517 8.68969 6.08798C8.62147 5.87017 8.73167 5.63643 8.71068 5.4505C8.70018 5.33894 8.72642 5.18488 8.76315 5.07332C8.8786 4.83958 8.98355 4.56333 9.1882 4.31896C9.1882 4.28178 9.17771 4.2074 9.17246 4.17022C9.21444 4.12772 9.26167 4.12241 9.2984 4.07991C9.37186 3.88866 9.44533 3.72929 9.56602 3.56992C9.72869 3.36805 9.98582 3.19274 10.1957 2.98556C10.3217 2.86337 10.4948 2.76775 10.6103 2.57119C10.6523 2.5287 10.7992 2.59244 10.8412 2.54995C10.9671 2.42776 11.1508 2.4437 11.282 2.3587C11.4131 2.2737 11.3869 2.45963 11.5181 2.41182C11.6073 2.4012 11.6493 2.36401 11.7385 2.3162C11.8697 2.26839 12.0218 2.36401 12.1635 2.38526C12.3 2.37464 12.4416 2.39589 12.5886 2.49682C12.788 2.62963 13.2445 2.58182 13.318 2.84213C13.4282 3.01743 13.6276 3.15024 13.7378 3.32555V3.33618Z" fill="#ffffff"/>
<path d="M21.4622 6.26859C21.4622 6.15172 21.4622 6.08266 21.415 5.96048C21.4045 5.8436 21.4937 5.71611 21.4518 5.55674C21.4255 5.51424 21.3678 5.46643 21.373 5.42924C21.4518 5.18487 21.457 4.96175 21.436 4.70145C21.415 4.62176 21.3888 4.57926 21.3625 4.53676C21.3678 4.49957 21.3835 4.43051 21.394 4.35614C21.3993 4.13302 21.3311 3.96834 21.2628 3.76647C21.2419 3.68678 21.1841 3.63897 21.1736 3.5221C21.1474 3.4796 21.0897 3.42648 21.0949 3.38929C21.1526 3.06524 21.0005 2.81024 20.9532 2.50212C20.8798 2.15151 20.5544 1.92839 20.4495 1.57246C20.4547 1.53527 20.5649 1.55121 20.5964 1.55652C20.8535 1.80089 21.1421 2.08776 21.2104 2.43838C21.2576 2.56056 21.2366 2.66681 21.2891 2.75181C21.5095 3.02274 21.5462 3.36804 21.5882 3.71334C21.5829 3.75053 21.6512 3.72928 21.6774 3.77178C21.6721 3.80897 21.6564 3.87803 21.6826 3.92053C21.8506 4.10646 21.7456 4.30833 21.7823 4.49958C21.8033 4.57926 21.8243 4.62176 21.8506 4.66426C21.8453 4.70144 21.7614 4.79707 21.7509 4.82894C21.8873 5.00956 21.945 5.24331 21.9083 5.46111C22.0657 5.53549 21.9922 5.74267 22.029 5.89673C22.0552 5.93923 22.0867 5.94454 22.1182 5.95516C22.1602 5.89142 22.2074 5.82767 22.2231 5.75329C22.2441 5.46111 22.2546 5.20081 22.2021 4.92988C22.1602 4.80769 22.1444 4.69082 22.2284 4.60051C22.1654 4.58457 22.1444 4.50489 22.1182 4.46239C22.0027 3.98959 21.9555 3.45835 21.8138 2.97493C21.8138 2.97493 21.8506 2.94836 21.8611 2.91118C21.8138 2.48619 21.4937 2.08776 21.3416 1.66277C21.3153 1.5884 21.1946 1.49278 21.1369 1.41309C21.1369 1.41309 21.1369 1.3759 21.1474 1.33872C21.3101 1.35997 21.436 1.51934 21.52 1.64152C21.6931 1.88589 21.8873 2.15682 21.9398 2.43306C22.029 2.67743 22.1654 2.93243 22.2179 3.17148C22.2546 3.33085 22.3648 3.43179 22.4435 3.5646C22.4855 3.68678 22.4645 3.79303 22.475 3.9099C22.5222 4.18615 22.601 4.44645 22.6534 4.72269C22.7164 4.92456 22.7479 5.153 22.6797 5.32299C22.5905 5.63642 22.7951 5.98173 22.8791 6.26328C22.9263 6.38547 22.8686 6.52359 22.8161 6.62452C22.8109 6.66171 22.8686 6.70952 22.8581 6.74671C22.8004 6.88483 22.8476 7.00701 22.8214 7.15045C22.7846 7.17701 22.8686 7.27263 22.8214 7.33638C22.7846 7.36825 22.7531 7.35763 22.7112 7.3895C22.6587 7.49044 22.7059 7.61262 22.6849 7.71887C22.58 7.92074 22.6324 8.19167 22.4383 8.3351C22.3648 8.35635 22.3596 8.39354 22.3228 8.4201C22.3543 8.42541 22.3806 8.46791 22.4068 8.51572C22.3701 8.54229 22.3333 8.53697 22.2966 8.56354C22.2861 8.6326 22.4225 8.72291 22.4488 8.76541C22.3963 9.05227 22.1864 9.30195 22.1916 9.64195C22.1759 9.71101 22.1602 9.82257 22.1444 9.89163C22.0815 10.0616 21.9555 10.1838 21.8925 10.3591C21.882 10.4282 21.7456 10.4388 21.7299 10.5079C21.6459 10.5982 21.6512 10.7522 21.5934 10.8904C21.5462 10.9541 21.4518 10.9329 21.373 10.9913C21.2838 11.1188 21.2943 11.2357 21.2366 11.3685C21.1369 11.5331 21.0215 11.7138 20.927 11.8785C20.8168 12.1175 20.6331 12.3406 20.4337 12.5212C20.4023 12.5159 20.3288 12.5372 20.2921 12.5637C20.1871 12.7656 20.0717 12.9144 19.8513 13.0153C19.8198 13.01 19.7726 13.164 19.7306 13.1906C19.5784 13.3022 19.4944 13.435 19.3108 13.5412C19.2426 13.5625 19.2058 13.589 19.1271 13.4615C18.8857 13.8918 18.5656 14.2265 18.2193 14.524C18.0356 14.6303 17.852 14.6196 17.7313 14.7418C17.3325 15.1349 16.7028 15.5546 16.6345 15.613C16.6031 15.6077 16.4824 15.7884 16.4824 15.7884C16.3564 15.799 16.4299 15.8096 16.3092 15.7884C16.3092 15.7884 16.304 15.9902 16.1413 16.0221C15.8002 16.0912 15.711 16.4896 15.6848 16.6543C15.669 16.7393 15.6165 16.6808 15.5746 16.7127C15.5378 16.7446 15.5641 16.7977 15.5221 16.8296C15.3751 16.9199 15.244 17.1058 15.1233 17.2493C15.0865 17.2811 15.0603 17.2333 15.0183 17.2652C14.9816 17.2971 14.7979 17.5255 14.735 17.7274C14.5775 18.078 14.4096 18.3914 14.1945 18.6358C14.142 18.6942 14.3152 18.928 14.3047 19.0076C14.2574 19.1192 14.1577 19.1351 14.1105 19.2467C14.0685 19.5176 14.0528 19.8258 14.0056 20.1179C13.9268 20.3995 14.0265 20.6014 14.0633 20.8564C14.1053 21.0688 14.0528 21.3451 14.0633 21.5523C14.079 21.717 14.1892 21.9029 14.1735 22.0623C14.1787 22.3119 14.121 22.2801 14.1735 22.4873C14.1682 22.6094 14.1262 22.7316 14.1525 22.8113C14.142 22.976 14.1157 23.0769 14.1105 23.2363C14.0738 23.2735 14.0056 23.3532 14.0056 23.3904C13.9793 23.7994 13.7169 24.1553 13.4441 24.4263C13.2709 24.5378 13.124 24.7078 12.9298 24.6919C12.8301 24.6866 12.5048 24.8938 12.3946 24.9203C12.106 25 11.8751 25.0053 11.597 24.9628C11.2926 24.8778 11.046 24.8034 10.8361 24.4847C10.7101 24.3413 10.495 24.3944 10.4163 24.1766C10.39 24.0916 10.2169 24.0438 10.1854 24.0013C10.0227 23.8578 9.93874 23.6772 9.81805 23.4966C9.73934 23.2788 9.79706 23.13 9.69736 22.9229C9.59765 22.7954 9.55567 22.7051 9.45597 22.5722C9.32478 22.4023 9.48746 22.1579 9.38775 21.9879C9.31954 21.9401 9.25132 21.8551 9.21983 21.7701C9.15686 21.6054 9.17261 21.361 9.0729 21.1857C9.02043 20.9732 9.05191 20.2029 9.09389 19.9957C9.09914 19.9533 8.9837 19.8948 8.98894 19.8523C9.00469 19.5548 9.10964 19.2626 9.0834 18.9545C9.11488 18.7898 9.09914 18.657 9.24607 18.5136C9.24607 18.5136 9.17785 18.4552 9.1831 18.4127C9.26706 18.1736 9.26706 17.9877 9.31429 17.738C9.31954 17.6955 9.40874 17.6689 9.41399 17.6317C9.36676 17.4511 9.36152 17.0793 9.393 16.9146C9.40874 16.8296 9.61864 16.7074 9.67112 16.633C9.67637 16.5905 9.63963 16.4843 9.71835 16.3408C9.73934 16.3037 9.79181 16.3143 9.83379 16.2824C9.83904 16.2399 9.8128 16.1921 9.8233 16.1496C9.84429 16.0274 10.0489 15.9371 10.0647 15.8521C10.1486 15.5705 10.2851 15.4537 10.432 15.2252C10.4845 15.1243 10.5055 15.0181 10.5894 14.9224C10.6262 14.8959 10.6472 14.9224 10.6524 14.8853C10.6576 14.8481 10.6419 14.7684 10.6472 14.7365C10.7311 14.6409 10.8413 14.5559 10.8623 14.4496C10.92 14.3115 10.9673 14.2159 11.0512 14.1203C11.2034 14.0034 11.3556 13.8918 11.45 13.7272C11.534 13.6315 11.6284 13.6528 11.7071 13.5625C11.8278 13.4403 11.8593 13.2597 11.9485 13.1322C12.1584 12.8825 12.3841 12.7072 12.6097 12.5372C12.7986 12.3938 13.04 12.3353 13.2237 12.2291C13.4126 12.0856 13.528 11.8147 13.7117 11.7085C13.8219 11.6235 13.9583 11.6128 14.0738 11.5278C14.1892 11.4428 14.2837 11.2782 14.4516 11.241C14.8294 11.14 14.5565 11.2463 14.9134 11.1028C15.1338 10.9647 15.0446 10.9275 15.265 10.7947C15.6323 10.5769 15.8212 10.4441 15.8527 10.4494C15.8894 10.4229 15.9261 10.391 15.9419 10.3219C16.0311 10.1944 16.4981 9.85975 16.5663 9.8385C16.6345 9.81725 16.7185 9.90756 16.7972 9.81725C16.8392 9.75351 16.7552 9.69507 16.7972 9.63132C16.9179 9.50914 17.0334 9.34445 17.1488 9.25946C17.1855 9.23289 17.28 9.28602 17.3482 9.26477C17.3849 9.23821 17.4007 9.16383 17.4374 9.13727C17.4846 9.07352 17.4007 8.9779 17.4427 8.91415C17.4951 8.81322 17.5476 8.71228 17.6158 8.69103C17.726 8.64322 17.873 8.56354 17.8572 8.48385C17.8835 8.34042 17.9412 8.20229 18.0881 8.12261C18.0934 8.08542 18.1038 8.04824 18.1091 8.01636C18.1931 7.92074 18.2718 7.86762 18.3557 7.77199C18.4449 7.6445 18.4082 7.48513 18.4607 7.38419C18.6286 7.19826 18.7913 7.04951 18.8333 6.79452C18.8228 6.67765 18.7493 6.51296 18.8018 6.41203C18.8437 6.34828 18.9854 6.30578 19.0012 6.23672C19.0274 6.09328 18.9539 5.9286 18.9487 5.77986C18.9697 5.67361 19.0851 5.5833 19.0694 5.47174C19.0589 5.16893 19.0746 4.87675 19.0327 4.56864C19.1324 4.5527 19.1481 4.48364 19.1586 4.40926C19.1324 4.18083 19.0012 3.96834 18.9434 3.72928C18.9382 3.58054 19.0589 3.45835 19.0536 3.3096C19.0379 3.19273 18.933 3.05992 18.8123 2.95899C18.7021 2.82087 18.7755 2.61368 18.7335 2.45963C18.7021 2.26838 18.5604 2.11963 18.5341 1.8912C18.5236 1.77433 18.3872 1.78496 18.34 1.66277C18.3033 1.5034 18.2613 1.34934 18.2613 1.1581C18.2403 1.07841 18.1406 1.09435 18.0829 1.04654C17.9517 0.828729 17.9989 0.393115 17.7155 0.29218C17.7418 0.148746 17.6106 0.116872 17.5686 0C17.7365 0 17.8939 0.0690608 17.9884 0.281555C18.0146 0.324054 18.1091 0.345304 18.1406 0.355929C18.2245 0.446239 18.2193 0.669358 18.3085 0.727794C18.4239 0.828729 18.5971 0.791543 18.6443 0.913727C18.7073 1.1156 18.8595 1.22184 18.9277 1.38653C18.9225 1.42371 18.9382 1.5034 18.9644 1.5459C19.0799 1.64683 19.0956 1.75839 19.1743 1.85402C19.3685 2.08245 19.5627 2.31619 19.4734 2.62962C19.4157 2.76774 19.5889 2.73056 19.6414 2.81555C19.7726 3.03336 19.7201 3.32023 19.888 3.50616C19.8565 3.87272 20.0297 4.20739 20.1399 4.53145C19.951 4.82363 20.0559 5.33893 20.2028 5.63642C20.2028 5.63642 20.3078 5.62048 20.313 5.58861C20.3445 5.4133 20.6646 5.34955 20.6122 5.26456C20.5492 5.06269 20.4495 4.64301 20.4495 4.45708C20.4705 4.15958 20.481 3.90459 20.4337 3.59647C20.4075 3.55397 20.3813 3.51147 20.355 3.46898C20.3183 3.3096 20.2763 3.15023 20.3078 2.97493C20.2868 2.89524 20.2291 2.84743 20.2081 2.76774C20.2133 2.73056 20.2291 2.6615 20.2343 2.62431C20.3078 2.60306 20.397 2.6615 20.46 2.67743C20.5177 2.72524 20.4652 2.82618 20.4915 2.86868C20.5964 3.03867 20.7486 3.11305 20.7801 3.30429C20.7748 3.34148 20.7591 3.41054 20.7538 3.44773C20.7801 3.67616 20.9165 3.85678 20.948 4.04802C20.9637 4.15958 20.864 4.32427 20.9113 4.45176C21.0582 4.74394 21.0634 5.08394 21.0424 5.4133C21.0162 5.55674 21.1946 5.67361 21.1474 5.76923C21.0949 5.87017 21.1631 5.8861 21.1107 5.98704C21.1054 6.02422 21.032 6.04547 21.0267 6.08266C21.1212 6.28984 20.9795 6.60327 20.9427 6.78389C20.9375 6.82108 21.0529 6.85827 21.0792 6.72546C21.0949 6.64577 21.2261 6.64577 21.2996 6.62452C21.3783 6.56609 21.436 6.42796 21.4308 6.27922L21.4622 6.26859ZM22.1602 6.98576C22.1654 6.80514 22.2494 6.67233 22.2179 6.47578C22.1549 6.27391 22.008 6.47578 21.903 6.4864C21.9608 6.72546 21.8663 6.88483 21.7928 7.09732C21.7509 7.16107 21.7141 7.34169 21.8191 7.32575C21.9818 7.36294 22.1549 7.20357 22.1602 6.98576ZM21.882 7.96855C21.924 7.91011 21.903 7.79324 21.8453 7.74543C21.7561 7.687 21.6407 7.77731 21.5882 7.87293C21.5357 7.97386 21.5777 8.13323 21.7141 8.12261C21.7456 8.12792 21.8401 8.0323 21.8873 7.96855H21.882Z" fill="#ffffff"/>
<path d="M19.9824 1.84864C20.1556 1.98145 20.2238 2.19926 20.3603 2.37988L20.3445 2.45425C20.1084 2.66144 19.8985 2.31613 19.8355 2.11426C19.7411 1.90708 19.6414 1.6999 19.4682 1.54584C19.4734 1.50865 19.4839 1.47678 19.4892 1.43959C19.4052 1.34397 19.295 1.21116 19.4052 1.15804C19.4524 1.09429 19.5312 1.22178 19.6204 1.28022C19.7568 1.46084 19.783 1.68927 19.9877 1.84864H19.9824Z" fill="#ffffff"/>
<path d="M20.9583 0.929701C20.9583 0.966888 20.9006 1.03064 20.8953 1.06251C20.7851 0.956263 20.6697 0.850016 20.5752 0.674708C20.5437 0.664083 20.4808 0.648146 20.4545 0.605647C20.423 0.595022 20.4283 0.563148 20.4388 0.525962C20.5437 0.515337 20.6225 0.610959 20.7117 0.674708C20.7431 0.685333 20.7851 0.658771 20.8166 0.664083C20.9058 0.722519 20.953 0.812829 20.9635 0.929701H20.9583Z" fill="#ffffff"/>
<path d="M6.38078 7.52753C6.41227 7.5541 6.45949 7.5966 6.48048 7.62847C6.53296 7.66566 6.58543 7.66566 6.64316 7.64441C6.69563 7.64441 6.74286 7.78784 6.80058 7.79315C6.87929 7.83034 6.92652 7.96846 7.00523 8.03752C7.05771 8.0694 7.11018 8.12252 7.16266 8.15439C7.23612 8.25002 7.28335 8.34564 7.36206 8.40939C7.40929 8.47314 7.49325 8.45189 7.55097 8.45189C7.65592 8.48907 7.6979 8.64313 7.77137 8.73875C7.79761 8.73875 7.84483 8.83438 7.84483 8.86625C7.89731 8.89813 7.94454 8.96187 8.02325 8.99906C8.04424 9.03093 8.04424 9.08937 8.06523 9.12124C8.25939 9.43999 8.51651 9.64186 8.67919 9.98185C8.67919 9.98185 8.70018 10.0456 8.70018 10.0722C8.89958 10.2687 8.98879 10.5503 9.16196 10.7734C9.20918 10.869 9.25116 11.0231 9.29839 11.1453C9.35087 11.209 9.39809 11.2462 9.45057 11.3099C9.52403 11.4374 9.59225 11.5915 9.60799 11.7456C9.60799 11.804 9.56601 11.9846 9.46106 11.8837C9.33512 11.7509 9.34562 11.5756 9.21968 11.4746C9.21968 11.4427 9.18819 11.3684 9.16196 11.3365C9.10948 11.2728 9.02027 11.2781 8.99928 11.1878C9.00453 11.0974 8.90483 11.0231 8.8576 10.9646C8.73166 10.7787 8.54275 10.7096 8.39057 10.5237C8.36434 10.5237 8.33285 10.5237 8.30661 10.5503C8.28038 10.6087 8.19642 10.6937 8.26988 10.7893C8.37483 10.8531 8.42731 10.9753 8.55849 11.0443C8.63721 11.1081 8.6582 11.2887 8.70542 11.4427C8.7579 11.5065 8.81037 11.5649 8.88909 11.6021C8.9678 11.6659 8.93631 11.7615 9.00978 11.8571C9.00978 11.889 8.97829 11.9155 8.97829 11.9421C9.02552 12.0377 9.13572 12.0165 9.20918 12.1121C9.26691 12.059 9.34562 12.1015 9.39285 12.1865C9.30364 12.2715 9.32988 12.3299 9.29314 12.4202C9.20394 12.5637 9.40859 12.7018 9.53978 12.7708C9.62374 12.7762 9.60799 12.9249 9.68671 12.994C9.73393 13.0896 9.87037 13.1002 9.93859 13.2277C9.95958 13.2915 9.9071 13.3127 9.87562 13.3711C9.87037 13.4614 9.97532 13.4986 10.0278 13.5358C10.0803 13.573 10.1013 13.6314 10.1222 13.6952C10.0383 13.7164 9.88086 13.6049 9.7969 13.5996C9.74443 13.5783 9.64997 13.4614 9.54502 13.4349C9.50829 13.4243 9.48205 13.5146 9.44532 13.5039C9.39809 13.4933 9.34562 13.4827 9.29314 13.4721C9.23542 13.4614 9.09899 13.3074 9.04126 13.3021C8.97305 13.2915 8.88909 13.4136 8.82612 13.403C8.58473 13.3605 8.57424 13.3446 8.49552 13.3127C8.40632 13.2755 8.31711 13.233 8.2384 13.1852C8.18592 13.1586 8.20166 13.0843 8.14919 13.0524C8.10196 13.0205 7.99176 13.0205 7.94454 12.9886C7.75038 12.8665 7.56672 12.5955 7.3988 12.5052C7.2886 12.4468 7.19939 12.3884 7.07345 12.3299C7.01573 12.2927 6.9685 12.2077 6.89504 12.1812C6.66415 12.1015 6.48048 11.958 6.22336 11.8837C5.73009 11.7402 5.32079 12.0271 4.91673 12.2396C4.89574 12.2396 4.85376 12.2396 4.83277 12.2502C4.73832 12.3299 4.63337 12.3724 4.53891 12.4362C4.41297 12.5371 4.2398 12.5637 4.10337 12.6433C4.06139 12.6699 4.05614 12.7496 4.01416 12.7762C3.95119 12.8133 3.8305 12.824 3.76753 12.8612C3.70981 12.8983 3.70456 12.9674 3.64684 13.0152C3.53139 13.1108 3.42119 13.1852 3.26377 13.2596C3.17456 13.3074 2.43466 13.4349 2.31397 13.4349C2.12506 13.4349 1.98863 13.5943 1.70526 13.5943C1.27497 13.5943 0.839425 13.5836 0.482595 13.3127C0.40913 13.249 0.393387 13.063 0.340912 13.0311C0.183487 12.9302 0.19923 12.7177 0.15725 12.5637C0.104775 12.5318 -0.000175019 12.5212 0.00507248 12.4308C0.062795 11.9846 0.28319 11.5809 0.550812 11.2728C0.613782 11.1559 0.750217 11.1081 0.76596 10.9593C0.76596 10.9593 1.00734 10.6193 1.15427 10.4812C1.18576 10.4228 1.13853 10.3272 1.17002 10.274C1.39041 9.83841 1.78922 9.54092 2.11981 9.14781C2.20902 9.06281 2.26674 8.95125 2.40843 8.93C2.46615 8.93 2.51862 8.94062 2.55011 8.88219C2.61308 8.73875 2.72852 8.65907 2.81248 8.60063C3.12733 8.38283 3.38971 8.05877 3.74654 8.00034C3.80426 7.97377 3.83575 7.91534 3.88822 7.88878C3.94594 7.83565 4.05089 7.8994 4.10862 7.87815C4.37624 7.75597 4.61762 7.49566 4.89049 7.45847C4.94821 7.43191 4.9797 7.37348 5.00594 7.37879C5.24732 7.40004 5.53593 7.18223 5.76158 7.41066C5.96623 7.36816 6.27583 7.41066 6.40177 7.52222L6.38078 7.52753ZM8.2384 10.1572C8.2384 10.1253 8.2384 10.0987 8.2384 10.0668C8.13345 10.0031 8.08622 9.81716 7.94978 9.77998C7.92355 9.77998 7.86582 9.80654 7.86582 9.83841C7.86058 10.019 7.93404 10.1412 8.00751 10.2953C8.03899 10.1784 8.1177 10.1837 8.17018 10.274C8.19642 10.2475 8.2279 10.189 8.2279 10.1572H8.2384Z" fill="#ffffff"/>
<path d="M34.1245 18.5612L32.9018 19.8521L29.5015 16.4947C29.0554 17.2969 28.5202 17.9769 27.901 18.54C27.2818 19.0978 26.6626 19.5547 26.0486 19.9053L24.8574 18.5294C25.5291 18.1894 26.1011 17.7963 26.5734 17.3447C27.0456 16.8932 27.4339 16.415 27.7383 15.921C28.0374 15.4216 28.2578 14.917 28.3995 14.3963C28.5359 13.8757 28.6094 13.3657 28.6094 12.8717V10.4971H30.488V12.5317C30.488 12.9301 30.4617 13.3073 30.4145 13.6686C30.362 14.0298 30.2991 14.3804 30.2204 14.7204L34.1245 18.5719V18.5612ZM38.0129 24.3942H36.234V15.2994H32.5293V13.5676H36.234V8.95117H38.0129V24.3889V24.3942Z" fill="#ffffff"/>
<path d="M54.0914 17.6476H47.7419V18.4975H50.8904V22.4818H44.8086V23.2468H51.2945V24.9786H42.9667V20.8403H49.0328V20.1603H42.8828V18.4975H45.9473V17.6476H39.729V15.9529H54.0914V17.6476ZM50.7383 12.1865C50.7383 12.6752 50.6333 13.1161 50.4287 13.5199C50.224 13.9236 49.9459 14.2689 49.5995 14.5611C49.2427 14.8426 48.8177 15.0658 48.3349 15.2251C47.8469 15.3845 47.3221 15.4642 46.7502 15.4642C46.2149 15.4642 45.7112 15.3898 45.2336 15.2411C44.7561 15.0923 44.3363 14.8798 43.969 14.5983C43.6122 14.3167 43.3288 13.9714 43.1241 13.573C42.9195 13.1692 42.8145 12.7177 42.8145 12.2077C42.8145 11.6977 42.9142 11.2355 43.1136 10.8265C43.313 10.4121 43.5964 10.0615 43.9532 9.76401C44.2996 9.47183 44.7141 9.2434 45.1917 9.08403C45.6692 8.92466 46.1887 8.84497 46.7502 8.84497C47.3116 8.84497 47.8154 8.92466 48.2982 9.08403C48.7862 9.2434 49.206 9.46652 49.5628 9.76401C49.9196 10.0456 50.203 10.3962 50.4182 10.8052C50.6281 11.2196 50.7383 11.6818 50.7383 12.1865ZM48.8964 12.1705C48.8964 11.6393 48.6865 11.2196 48.2614 10.9168C47.8364 10.6087 47.3326 10.4599 46.7554 10.4599C46.1782 10.4599 45.6482 10.6087 45.2389 10.9115C44.8296 11.209 44.6302 11.634 44.6302 12.1758C44.6302 12.7177 44.8348 13.1055 45.2389 13.3977C45.6482 13.6898 46.1519 13.8386 46.7554 13.8386C47.3589 13.8386 47.8364 13.7058 48.2614 13.4349C48.6865 13.1639 48.8964 12.7442 48.8964 12.1811V12.1705Z" fill="#ffffff"/>
<path d="M69.1778 18.7578H54.8364V17.0472H69.1778V18.7578ZM66.0608 24.9786H64.2662V21.4406H57.8485V19.7087H66.0608V24.9786ZM66.0293 16.1654H57.9167V9.48242H65.9244V11.193H59.6904V11.9208H65.725V13.6526H59.6904V14.4495H66.0241V16.1601L66.0293 16.1654Z" fill="#ffffff"/>
<path d="M77.2221 16.8453H70.4004V9.79047H72.174V11.8251H75.4275V9.79047H77.2221V16.8453ZM75.4275 15.1294V13.5357H72.174V15.1294H75.4275ZM82.265 24.9679H74.0369V20.7074H80.0191V19.8255H73.9529V18.1096H81.8609V22.3702H75.9155V23.252H82.265V24.9626V24.9679ZM82.4014 17.6209H80.6435V15.9741H77.7626V14.2741H80.6435V13.0523H77.7626V11.3364H80.6435V8.9458H82.4014V17.6156V17.6209Z" fill="#ffffff"/>
<path d="M93.332 18.6145L92.1094 19.9054L88.7247 16.532C88.2892 17.3448 87.7592 18.0354 87.14 18.5932C86.5208 19.151 85.8911 19.6079 85.2561 19.9585L84.0649 18.5826C84.7471 18.2107 85.3243 17.7964 85.8019 17.3448C86.2741 16.8933 86.6625 16.4205 86.9668 15.9371C87.2554 15.4377 87.4706 14.9383 87.6123 14.4283C87.7539 13.9184 87.8222 13.4137 87.8222 12.9196V10.4919H89.7008V12.5796C89.7008 12.9781 89.6745 13.3499 89.6273 13.7059C89.5748 14.0618 89.5118 14.4018 89.4331 14.7311L93.3373 18.6145H93.332ZM97 24.3997H95.2054V8.96191H97V24.3997Z" fill="#ffffff"/>
</g>
<defs>
<clipPath id="clip0_176_6930">
<rect width="97" height="25" fill="white"/>
</clipPath>
</defs>
</svg>
