<svg width="146" height="56" viewBox="0 0 146 56" fill="none" xmlns="http://www.w3.org/2000/svg">
<g id="_&#235;&#160;&#136;&#236;&#157;&#180;&#236;&#150;&#180;_1" clip-path="url(#clip0_303_11503)">
<g id="Group">
<path id="Vector" d="M130.638 55.498C129.644 55.5083 128.779 55.4056 127.97 55.0413C126.651 54.446 125.961 53.0862 126.311 51.6648C126.579 50.5769 127.006 49.5403 127.872 48.7809C128.701 48.0573 129.654 47.5493 130.803 47.5544C131.117 47.5544 131.375 47.4108 131.658 47.303C132.385 47.0259 133.09 46.6975 133.884 46.6256C134.327 46.5897 134.667 46.21 134.636 45.8559C134.6 45.4197 134.244 45.2761 133.894 45.1837C132.993 44.9425 132.096 45.1837 131.195 45.2453C130.649 45.2812 130.108 45.3479 129.562 45.353C128.624 45.3582 127.686 45.3992 126.759 45.5275C126.548 45.5583 126.332 45.4864 126.198 45.2914C126.074 45.1016 126.089 44.9066 126.172 44.6911C126.486 43.8905 127.125 43.5211 127.918 43.3569C129.345 43.0541 130.793 42.854 132.246 42.7411C133.549 42.6436 134.899 42.6539 136.073 43.362C136.908 43.8649 137.665 44.4909 137.814 45.5429C137.907 46.1946 137.68 46.8052 137.294 47.3081C136.532 48.2934 135.568 49.0888 134.533 49.7661C133.915 50.1715 133.126 50.1869 132.385 50.0791C131.818 49.997 131.277 49.9714 130.746 50.2126C130.613 50.2741 130.468 50.3768 130.329 50.3716C129.732 50.3614 129.577 50.7308 129.479 51.2235C129.412 51.557 129.381 51.87 129.381 52.2138C129.381 52.9322 129.994 53.0811 130.607 53.0195C132.039 52.8707 133.255 52.2036 134.476 51.5211C134.734 51.3774 135.007 51.2389 135.311 51.2132C135.728 51.1824 135.821 51.3517 135.785 51.7571C135.687 52.8604 135.043 53.5326 134.126 54.0406C133.806 54.2151 133.503 54.4255 133.219 54.6564C132.426 55.303 131.519 55.5647 130.623 55.5031L130.638 55.498Z" fill="#007A9F"/>
<path id="Vector_2" d="M107.96 49.1657C108.181 48.2831 108.253 47.2978 108.362 46.3177C108.506 45.0246 108.918 43.7827 109.083 42.4896C109.165 41.8379 109.464 41.2067 109.701 40.5807C110.185 39.2978 110.685 38.0252 111.2 36.7526C111.72 35.4749 112.385 34.2792 113.328 33.2529C113.539 33.022 113.833 32.9194 114.116 32.827C114.415 32.7295 114.708 33.0323 114.641 33.4274C114.466 34.4537 114.435 35.5005 114.121 36.5114C113.657 38.0149 113.261 39.5441 112.838 41.0631C112.766 41.3196 112.813 41.5762 113.024 41.7148C114.008 42.3767 114.677 43.3004 115.327 44.2651C116.048 45.3325 116.82 46.3741 117.707 47.3132C118.031 47.657 118.402 47.9187 118.866 48.0624C119.278 48.1907 119.267 48.2882 119.046 48.6577C118.732 49.1862 118.258 49.4736 117.717 49.7096C117.449 49.8276 117.227 49.7763 116.985 49.6788C115.327 49.0117 114.013 47.8725 112.792 46.6102C112.581 46.3947 112.406 46.1484 112.194 45.9328C111.942 45.6814 111.731 45.7276 111.648 46.0765C111.52 46.6153 111.463 47.1644 111.334 47.7032C111.185 48.3498 111.128 49.022 110.68 49.5762C110.257 50.0945 109.243 50.4332 108.604 50.2074C108.187 50.0586 107.939 49.6942 107.95 49.1554L107.96 49.1657Z" fill="#007A9F"/>
<path id="Vector_3" d="M75.6443 37.4094C75.5619 38.6205 75.9379 39.811 75.8297 41.0271C75.8091 41.2581 75.9276 41.4171 76.2161 41.4017C76.5819 41.3812 76.9476 41.4017 77.3185 41.4017C77.9728 41.4017 78.1325 41.2581 78.117 40.6115C78.0964 39.5955 78.251 38.6153 78.6425 37.6712C78.8228 37.2401 79.1061 36.9014 79.5183 36.6808C79.951 36.455 80.2292 36.532 80.4661 36.9527C80.5486 37.1067 80.6207 37.2863 80.6207 37.4608C80.631 38.3742 80.8783 39.2773 80.7031 40.201C80.631 40.5704 80.6722 40.9604 80.6877 41.3402C80.7031 41.7507 80.5846 42.1355 80.5177 42.5358C80.3786 43.3158 80.2807 44.106 80.3528 44.9117C80.4095 45.5531 80.2292 46.1792 80.0076 46.7744C79.3998 48.3857 78.4313 49.7712 77.1382 50.9104C76.587 51.3979 75.9122 51.7212 75.1652 51.8084C74.3667 51.9008 73.6712 51.244 73.5322 50.3613C73.4497 49.8328 73.4652 49.3094 73.4446 48.7808C73.3931 47.421 73.3982 46.056 73.2437 44.7064C73.0428 42.9155 73.2849 41.1349 73.29 39.3543C73.29 38.2305 73.4446 37.081 74.0112 36.0547C74.1709 35.7674 74.377 35.5416 74.6706 35.3979C75.0725 35.2029 75.4382 35.3979 75.5516 35.8341C75.6855 36.3575 75.6185 36.8912 75.6443 37.4146V37.4094ZM76.1904 47.6314C76.1904 48.0932 76.18 48.4422 76.1904 48.7911C76.2058 49.2632 76.3294 49.3504 76.7261 49.1195C77.4525 48.6936 78.0191 48.1035 78.421 47.3594C78.5034 47.2106 78.5085 47.0618 78.4622 46.9232C78.1222 45.9175 78.1376 44.8604 78.0398 43.8238C78.0037 43.4441 77.8852 43.4236 77.5967 43.5724C77.2619 43.7468 76.9116 43.87 76.5458 43.947C76.1697 44.0239 75.9791 44.2138 75.9997 44.6346C76.0461 45.6712 76.247 46.6974 76.1904 47.6314Z" fill="#007A9F"/>
<path id="Vector_4" d="M132.251 42.3415C131.798 42.3928 131.571 42.2081 131.396 41.7565C131.092 40.9817 130.675 40.2428 130.211 39.55C129.727 38.8265 129.691 38.6007 128.753 38.8367C128.279 38.9547 127.064 38.8726 126.512 38.8367C126.327 38.8829 125.807 38.7136 125.389 38.5134C124.802 38.2261 124.921 36.7328 125.389 36.4762C125.987 35.9169 126.069 36.2299 127.352 36.2812C128.486 36.4762 129.779 36.4711 130.763 36.3531C132.123 36.1889 133.539 36.2351 134.894 35.9939C135.523 35.881 136.764 35.5987 137.48 35.5115C139.649 34.9932 140.494 34.4647 142.178 33.5154C143.162 32.9612 144.105 32.3556 145.007 31.6783C145.192 31.5397 145.393 31.4474 145.635 31.473C145.846 31.4936 146.006 31.6013 146.001 31.8014C145.99 32.3556 146.032 32.8893 145.702 33.4281C145.414 33.8951 145.135 34.3621 144.826 34.8188C144.419 35.4191 143.791 35.7219 143.224 36.0965C141.802 37.0407 139.747 37.6052 138.098 37.9438C136.996 38.1696 136.321 38.262 135.177 38.2569C134.765 38.2569 134.333 38.3082 133.91 38.3338C133.519 38.3595 133.431 38.534 133.658 38.8573C134.327 39.8168 134.039 41.5872 132.936 42.1773C132.71 42.3005 132.499 42.3621 132.246 42.3415H132.251Z" fill="#007A9F"/>
<path id="Vector_5" d="M124.466 32.0057C124.379 32.6368 124.312 33.386 124.152 34.1147C124.064 34.515 124.167 34.8998 124.121 35.3001C123.941 36.8498 124.028 38.4149 124.111 39.9646C124.162 40.8985 124.229 41.8273 124.291 42.7613C124.379 44.0441 124.322 45.3424 124.688 46.5945C124.739 46.7741 124.647 46.8767 124.564 46.9896C124.317 47.3232 123.956 47.5284 123.616 47.7439C123.405 47.8774 123.163 47.8055 123.024 47.5746C122.782 47.1538 122.54 46.7484 122.385 46.2661C122.045 45.2141 121.772 44.1519 121.592 43.0692C121.473 42.3764 121.35 41.6888 121.262 40.9909C121.221 40.6574 121.066 40.6112 120.803 40.7035C120.041 40.9704 119.361 41.4168 118.614 41.7298C118.166 41.9146 117.754 42.1044 117.259 42.1404C116.904 42.166 116.595 42.3918 116.193 42.1506C115.755 41.8889 115.317 41.6426 114.946 41.2885C114.56 40.9191 114.879 40.5701 114.972 40.2212C115.049 39.9338 115.291 39.8261 115.575 39.8568C115.837 39.8825 116.033 39.7799 116.255 39.6618C116.966 39.2719 117.785 39.2359 118.557 39.0512C119.268 38.8819 120 38.7484 120.742 38.7587C121.056 38.7587 121.066 38.574 121.071 38.3379C121.113 36.7728 121.339 35.2385 121.901 33.7658C122.215 32.9447 122.658 32.1955 123.287 31.5643C123.338 31.5079 123.384 31.4412 123.451 31.4053C123.704 31.2821 123.941 31.0615 124.25 31.2051C124.549 31.3488 124.446 31.6465 124.466 32.0057Z" fill="#007A9F"/>
<path id="Vector_6" d="M91.1465 47.1439C91.1877 43.716 91.7956 40.396 93.1092 37.2196C93.3307 36.6859 93.5729 36.1573 93.918 35.6801C94.3611 35.0746 95.278 34.9925 95.4995 35.5775C95.6438 35.9572 95.5614 36.3883 95.5305 36.7937C95.4068 38.2407 94.9277 39.6108 94.6444 41.0271C94.5826 41.3196 94.598 41.6275 94.8247 41.8738C95.6129 42.7616 96.2362 43.7828 97.0811 44.6243C97.5293 45.0708 97.9311 45.548 98.508 45.8354C98.642 45.9021 98.7759 45.9482 98.9356 45.9688C99.4353 46.0303 99.5744 46.3126 99.2396 46.7026C98.3896 47.6878 97.4314 48.0214 96.0817 47.1695C95.4789 46.7898 94.9741 46.2972 94.428 45.8559C94.1498 45.6352 94.0417 45.625 93.9901 46.0303C93.8871 46.8411 93.8614 47.6622 93.5007 48.4268C93.2432 48.9656 92.7177 49.2478 92.3262 49.6532C92.1459 49.8379 91.8729 49.6994 91.7132 49.4684C91.3062 48.8937 91.265 48.2164 91.1619 47.5544C91.1413 47.421 91.1619 47.2824 91.1619 47.1439H91.1465Z" fill="#007A9F"/>
<path id="Vector_7" d="M84.6238 34.4532C85.3708 34.5148 86.1075 34.3146 86.8545 34.3557C87.3387 34.3814 87.2872 33.9554 87.282 33.6732C87.2769 33.0318 87.3542 32.416 87.6787 31.8515C88.0857 31.1434 88.8945 30.8714 89.4869 31.7592C89.6775 32.0465 89.8424 32.3852 89.8424 32.7136C89.8424 33.2883 89.9557 33.8579 89.9505 34.4327C89.9454 35.4846 90.0484 36.5366 89.9505 37.5937C89.8372 38.9227 89.7136 40.2415 89.0954 41.4577C88.9614 41.7245 88.8069 41.9914 88.5648 42.1761C88.2505 42.4173 88.0548 42.3506 87.9363 41.9708C87.8539 41.7143 87.792 41.4526 87.756 41.1908C87.689 40.7034 87.4933 40.5597 87.0193 40.7188C86.6639 40.8316 86.3084 40.9548 85.9735 41.1139C85.4738 41.3499 84.9432 41.4474 84.4126 41.4833C83.6708 41.5295 82.9341 41.6322 82.182 41.5962C81.5278 41.5654 81.2187 41.1293 81.5123 40.5392C81.8214 39.9131 82.2644 39.518 83.0475 39.4718C84.2581 39.4 85.4635 39.2152 86.6587 38.9843C86.7463 38.9689 86.8339 38.9484 86.9266 38.9433C87.5293 38.9073 87.6169 38.7688 87.5036 38.1427C87.4263 37.7168 87.5036 37.2755 87.4005 36.8393C87.313 36.4391 87.2202 36.3519 86.7978 36.4493C85.4842 36.7572 84.1499 36.8958 82.8002 36.8342C82.3675 36.8137 81.9347 36.7367 81.5123 36.6495C80.8478 36.5109 80.652 35.7823 81.1362 35.187C81.4556 34.797 81.8214 34.4737 82.4035 34.5507C83.1454 34.6482 83.8872 34.4019 84.6341 34.4686L84.6238 34.4532Z" fill="#007A9F"/>
<path id="Vector_8" d="M84.1305 54.6419C82.8529 54.6419 81.9875 54.0467 81.802 53.0871C81.5857 51.9684 81.7866 50.9062 82.3738 49.9466C82.9251 49.0486 83.5742 48.207 84.5272 47.6887C85.1557 47.3449 85.8614 47.1602 86.4384 46.7138C86.5569 46.6214 86.7372 46.5855 86.8042 46.4726C86.969 46.1903 87.1545 45.8517 86.969 45.5438C86.8145 45.2872 86.5105 45.436 86.2633 45.5079C85.8048 45.6413 85.3308 45.7336 84.8826 45.8927C84.0481 46.1852 83.1878 46.1647 82.3275 46.1442C81.9566 46.1339 81.7093 45.8568 81.6269 45.5232C81.5187 45.0871 81.7454 44.7279 82.0802 44.461C82.482 44.1377 82.9405 43.9376 83.4557 43.876C84.4242 43.7631 85.3514 43.445 86.3096 43.2705C87.0154 43.1474 87.7366 43.0909 88.4269 43.3988C89.3233 43.7991 89.5396 44.1377 89.3903 45.0768C89.2409 45.9799 88.9627 46.8728 88.4527 47.622C88.1178 48.1095 87.5615 48.4533 86.9896 48.6996C86.4848 48.9203 85.9748 49.1307 85.4802 49.3924C84.826 49.7362 84.5375 50.2955 84.4551 50.978C84.4139 51.3526 84.2439 51.7324 84.4396 52.1275C84.5581 52.3584 84.6766 52.461 84.9548 52.3892C86.0366 52.107 87.0566 51.7067 87.9169 50.9626C88.0045 50.8857 88.1127 50.8241 88.2105 50.7625C88.3136 50.7009 88.4115 50.7009 88.499 50.7882C88.5866 50.8754 88.5969 50.9832 88.5299 51.0755C88.0045 51.7939 87.6336 52.6304 86.8969 53.1897C86.5363 53.4617 86.1963 53.7644 85.8563 54.0569C85.3051 54.5341 84.7178 54.7035 84.1254 54.6419H84.1305Z" fill="#007A9F"/>
<path id="Vector_9" d="M62.0807 40.1028C62.0498 39.1534 62.0962 38.2092 62.3486 37.2856C62.5134 36.6698 62.8122 36.1258 63.1677 35.6076C63.3634 35.3253 63.6725 35.197 64.0074 35.2894C64.3422 35.3818 64.5277 35.6589 64.538 35.9924C64.5534 36.4286 64.7801 36.5569 65.1768 36.5569C66.3925 36.5466 67.6083 36.5056 68.8086 36.7365C68.9992 36.7724 69.195 36.7981 69.3753 36.8596C69.8595 37.0239 69.9317 37.3215 69.6998 37.7884C69.5247 38.1374 69.3341 38.4299 68.9683 38.5941C68.7468 38.6916 68.551 38.7686 68.278 38.6865C68.0101 38.6044 67.6907 38.6095 67.4177 38.6659C66.7377 38.8096 66.0525 38.7224 65.3725 38.7429C64.6307 38.7634 64.5483 38.8404 64.5483 39.5742C64.5483 40.2105 64.5483 40.8519 64.5483 41.4883C64.5483 41.8372 64.7028 41.9142 65.0119 41.8064C65.7692 41.5396 66.4801 41.1444 67.2838 40.9956C67.7113 40.9187 68.1338 40.8263 68.5613 40.7596C68.8035 40.7185 69.0044 40.8314 69.1641 41.011C69.3341 41.2009 69.1486 41.3446 69.0817 41.4985C68.8138 42.0938 68.412 42.494 67.7371 42.6942C67.1138 42.8738 66.5471 43.2381 65.9547 43.5255C65.3416 43.8231 64.6771 43.9308 64.0177 44.0386C63.2346 44.1618 62.5753 43.5409 62.3692 42.9199C62.0652 42.0065 62.0652 41.0572 62.091 40.1079L62.0807 40.1028Z" fill="#007A9F"/>
<path id="Vector_10" d="M99.6875 40.8836C99.5536 39.1646 99.9245 37.5276 100.697 35.983C100.965 35.4494 101.269 34.9106 101.861 34.6437C102.098 34.536 102.335 34.382 102.603 34.5873C102.902 34.8131 103.005 35.1466 102.943 35.4596C102.892 35.7316 102.897 35.9984 102.882 36.2653C102.712 39.1594 102.66 42.0587 102.691 44.958C102.691 45.3429 102.928 45.7329 102.619 46.128C102.299 46.5436 101.856 46.7489 101.408 46.9542C101.274 47.0157 101.192 46.8772 101.104 46.7951C100.424 46.1229 100.156 45.2454 99.9554 44.3576C99.6978 43.2236 99.6154 42.0639 99.6824 40.8836H99.6875Z" fill="#007A9F"/>
<path id="Vector_11" d="M70.6271 44.779C71.0753 44.8046 71.5389 44.702 71.9768 44.8713C72.3014 44.9945 72.4199 45.1895 72.2499 45.5282C72.049 45.9182 71.7656 46.2568 71.4771 46.5698C71.2917 46.77 71.0392 46.8931 70.6786 46.8008C69.8544 46.5955 69.0611 46.9137 68.2832 47.1292C67.2477 47.4165 66.2019 47.6526 65.1562 47.8886C63.7756 48.2017 62.3589 48.2171 60.9783 48.4993C60.6949 48.5557 60.391 48.5455 60.2416 48.2119C60.0665 47.8219 60.1334 47.4576 60.4013 47.1292C60.8443 46.5852 61.4934 46.4108 62.1271 46.2414C64.1259 45.7026 66.1453 45.2818 68.1904 44.974C68.9941 44.8508 69.8029 44.702 70.6271 44.779Z" fill="#007A9F"/>
<path id="Vector_12" d="M68.6383 49.2422C69.4162 49.273 70.0756 49.3243 70.5804 49.899C70.8483 50.2069 70.9204 50.484 70.8895 50.8945C70.8174 52.0389 70.4156 53.0754 69.9417 54.0863C69.6841 54.6354 69.3132 55.1331 68.9783 55.6463C68.8186 55.8875 68.5456 56.0517 68.288 55.9798C68.0098 55.9029 67.9429 55.6052 67.9325 55.3076C67.9119 54.5533 68.2983 53.9016 68.4374 53.1883C68.5198 52.7521 68.731 52.3519 68.7774 51.9003C68.8341 51.382 68.6177 51.1049 68.0922 51.1716C66.8456 51.3307 65.6195 51.6078 64.4037 51.926C64.1977 51.9773 63.9659 52.0902 63.8216 51.9054C63.6465 51.6848 63.6619 51.4025 63.7856 51.1357C64.141 50.3916 64.7695 49.9914 65.5319 49.7656C66.5725 49.4577 67.6441 49.3448 68.628 49.2473L68.6383 49.2422Z" fill="#007A9F"/>
<path id="Vector_13" d="M132.966 31.19C133.141 31.9392 132.6 32.4677 132.157 33.0373C131.627 33.7198 131.019 34.3305 130.251 34.741C129.752 35.0078 129.221 35.2695 128.629 35.0592C127.964 34.818 127.583 33.9559 127.737 33.1862C127.979 31.9803 128.603 30.9642 129.345 30.02C129.685 29.589 130.21 29.5171 130.761 29.435C131.498 29.3273 132.039 29.6146 132.595 29.979C133.023 30.2561 133.002 30.6871 132.971 31.1951L132.966 31.19ZM129.922 32.4934C129.932 32.7448 129.849 33.0014 130.112 33.1656C130.298 33.2837 130.468 33.1862 130.617 33.0938C130.844 32.9604 130.978 32.7192 131.096 32.5037C131.276 32.1855 130.967 31.6518 130.555 31.5133C130.081 31.3491 130.056 31.7185 129.963 32.0162C129.911 32.1855 129.942 32.3446 129.922 32.4934Z" fill="#007A9F"/>
<path id="Vector_14" d="M65.4568 31.8988C67.1723 32.0527 68.9084 32.453 70.4693 33.4433C70.7887 33.6486 70.8453 33.9154 70.732 34.2644C70.629 34.5825 70.4075 34.8083 70.1962 35.0392C70.0417 35.2034 69.8408 35.2291 69.6141 35.1316C68.7332 34.7519 67.8214 34.4645 66.8684 34.3208C66.2914 34.2336 65.7041 34.1823 65.1271 34.0797C64.7459 34.0129 64.3595 33.9257 64.1277 33.5562C63.7156 32.9097 64.2205 31.9347 64.9983 31.8988C65.122 31.8936 65.2405 31.8988 65.462 31.8988H65.4568Z" fill="#007A9F"/>
</g>
<g id="Group_2">
<path id="Vector_15" d="M18.1295 28.6957C15.8577 28.6033 14.0547 28.6085 12.2722 28.434C10.6083 28.2749 8.91858 28.2339 7.28554 27.8233C5.4619 27.3615 3.66401 26.7817 2.12369 25.6989C1.20157 25.0472 0.3155 24.2672 0.0424677 23.0151C-0.199655 21.9016 0.732775 20.6393 1.87642 20.5161C2.59764 20.4391 3.00976 21.0857 3.43219 21.5937C4.02461 22.3121 4.54492 23.1024 5.46705 23.477C6.11614 23.7387 6.79099 23.8926 7.47615 23.9337C8.25403 23.985 9.02677 24.0774 9.77889 24.2672C10.4434 24.4366 11.1286 24.3904 11.7983 24.452C13.1274 24.5648 14.4616 24.5802 15.7959 24.57C16.7129 24.5597 17.6299 24.416 18.5468 24.3801C20.2365 24.3134 21.9262 24.2877 23.6005 24.0568C23.9353 24.0106 24.2084 23.9029 24.3372 23.5283C24.6205 22.7175 25.3005 22.189 25.8414 21.5681C27.2529 19.9568 28.6593 18.3455 29.5093 16.3442C29.6587 15.9952 30.0142 15.5899 29.7411 15.2922C29.499 15.0254 29.0508 15.3333 28.7057 15.4308C27.5826 15.7438 26.5008 16.1902 25.352 16.416C24.8111 16.5238 24.2856 16.57 23.7653 16.3955C22.6629 16.026 21.4935 15.7643 20.4838 15.2204C18.7632 14.2967 18.2738 12.9574 18.825 10.8073C19.165 9.47312 19.8038 8.27748 20.7311 7.25631C21.1329 6.81501 21.6326 6.45067 22.1993 6.23002C23.1935 5.84002 24.1053 6.48146 24.3423 7.58473C24.6566 9.03181 24.4453 10.4122 24.0023 11.7874C23.9302 12.0081 23.822 12.2287 23.9869 12.4237C24.1775 12.6546 24.4093 12.4699 24.6102 12.4083C25.5787 12.1158 26.5266 11.7464 27.5105 11.5308C28.6336 11.2845 29.7411 10.9048 30.8899 10.8638C31.673 10.8381 32.5024 10.951 33.1669 11.4282C34.12 12.1107 34.9803 12.9317 35.5006 13.9786C36.0106 15.0049 35.8818 16.0876 35.5263 17.1909C35.0009 18.797 33.9551 20.0389 32.9299 21.3115C32.8527 21.4038 32.8012 21.5116 32.7239 21.604C32.6054 21.7528 32.4045 21.9273 32.4921 22.0812C32.6054 22.2711 32.8939 22.2095 33.0742 22.153C33.8109 21.9221 34.5475 21.6963 35.2533 21.3884C36.2527 20.9574 37.5663 21.7374 37.5921 22.8304C37.5972 23.087 37.6694 23.4872 37.5406 23.5796C37.1182 23.8875 36.8606 24.4006 36.3403 24.5751C35.6242 24.8163 34.9391 25.119 34.2436 25.4167C33.1257 25.899 31.9512 26.2172 30.7663 26.5148C29.4217 26.8586 28.1184 27.3666 26.7378 27.5616C25.8311 27.6848 24.9244 27.7772 24.0229 27.9362C23.0081 28.1158 21.9932 28.3314 20.9681 28.4289C19.8605 28.5315 18.7632 28.7521 18.1192 28.7008L18.1295 28.6957Z" fill="#E9537C"/>
<path id="Vector_16" d="M52.3453 4.54705C52.3299 6.70741 52.5359 8.71896 52.742 10.7408C52.8759 12.0288 53.1181 13.3065 53.0975 14.6099C53.0923 15.0717 53.185 15.5387 53.1902 16.0057C53.1953 16.4726 53.3808 16.5958 53.829 16.4419C54.6532 16.1545 55.4929 15.9133 56.312 15.5952C56.6263 15.472 56.7499 15.2975 56.8272 15.0256C56.8529 14.9281 56.8787 14.8203 56.8735 14.7228C56.8323 12.8395 57.1054 10.9563 56.9611 9.07816C56.9096 8.39567 56.9508 7.69779 56.786 7.02043C56.6417 6.42005 57.2496 5.41427 57.8369 5.21414C58.2387 5.08073 58.5426 5.33217 58.8002 5.57848C59.5884 6.33794 59.9593 7.32319 60.1242 8.37001C60.2993 9.48355 60.2478 10.6227 60.3817 11.7363C60.5363 13.0499 60.3663 14.3431 60.3199 15.6362C60.2684 17.2988 60.1139 18.9614 59.6348 20.5778C59.3926 21.404 58.9084 21.9582 58.2026 22.3841C58.012 22.5022 57.8523 22.6664 57.6617 22.7844C57.2341 23.041 56.7499 23.1949 56.4511 22.4919C56.1781 21.8505 56.2038 21.1782 56.2811 20.506C56.3378 20.0082 56.4047 19.5156 56.446 19.0179C56.4717 18.6895 56.3687 18.5252 55.9772 18.6587C55.1993 18.9306 54.4214 19.1975 53.6075 19.3412C53.3241 19.3925 53.1593 19.6029 53.185 19.9056C53.2984 21.2141 53.0305 22.5022 52.9532 23.8004C52.8965 24.7908 52.6853 25.776 52.5617 26.7613C52.5256 27.0538 52.5308 27.3565 52.5514 27.649C52.5771 28.0903 52.4535 28.4496 52.0156 28.6138C51.3408 28.8652 50.805 29.3784 50.0735 29.5477C49.5996 29.6555 49.4192 29.4759 49.2956 29.1218C49.2029 28.8498 49.1874 28.5522 49.1771 28.2597C49.1153 26.4431 49.2132 24.6317 49.3162 22.8254C49.3883 21.5374 49.3729 20.2494 49.3883 18.9614C49.4089 17.0833 49.445 15.2052 49.378 13.3322C49.3214 11.7722 49.2492 10.2122 49.172 8.65225C49.0895 7.05635 49.2389 5.48611 49.3832 3.90561C49.4605 3.06405 49.4862 2.21735 49.5996 1.37579C49.6717 0.831848 50.0014 0.457248 50.398 0.139096C50.738 -0.132873 51.0935 0.0159398 51.382 0.272515C51.959 0.790796 52.0671 1.5246 52.232 2.22248C52.4226 3.02813 52.3144 3.8543 52.3402 4.53679L52.3453 4.54705Z" fill="#E9537C"/>
<path id="Vector_17" d="M94.0643 15.4975C94.157 16.7034 93.9819 18.2582 93.8376 19.813C93.7655 20.5776 93.6316 21.3422 93.3998 22.0863C93.3225 22.3326 93.1782 22.5687 93.2246 22.8304C93.3791 23.6873 92.931 24.2826 92.3797 24.8316C92.1325 25.078 91.9779 25.4064 91.5967 25.5501C91.1434 25.7194 90.8806 25.5706 90.7106 25.2011C90.4273 24.5853 90.4222 23.9182 90.52 23.2665C90.7261 21.8862 91.0094 20.5161 91.0146 19.1152C91.0146 18.9099 91.0146 18.7098 91.1022 18.5045C91.1846 18.3095 91.1279 18.0735 90.9785 17.9247C90.8085 17.7553 90.6179 17.9041 90.4531 17.9811C89.737 18.3198 89.0621 18.7354 88.2946 18.9612C87.9855 19.0536 87.8206 19.264 87.8464 19.6283C87.9031 20.3005 87.9443 20.9779 87.9546 21.6552C87.97 22.815 87.7846 23.9644 87.7227 25.1087C87.6764 25.9914 87.3055 26.7508 87.2488 27.5821C87.1921 28.4442 86.5018 28.6957 85.93 28.9933C85.3942 29.2704 84.7606 29.3833 84.1579 29.4962C83.3594 29.645 82.6845 28.7572 82.9318 27.8284C83.1739 26.9099 83.3903 25.9657 83.3954 25.0472C83.3954 23.4769 83.6685 21.9067 83.3594 20.3262C83.1327 19.1819 83.1224 17.9965 83.0142 16.8265C82.8391 14.9176 82.6588 13.0138 82.4939 11.1049C82.4321 10.4121 82.396 9.71939 82.3909 9.02664C82.3857 8.24665 82.19 7.47179 82.2827 6.68668C82.3651 5.99392 82.3548 5.28578 82.6948 4.63408C82.9627 4.12606 83.3336 3.73607 83.9106 3.71554C84.5082 3.69501 84.8842 4.13119 85.1367 4.61355C85.5385 5.37814 85.6673 6.22997 85.8527 7.06128C86.1876 8.5802 86.3627 10.1299 86.7233 11.6488C86.9603 12.6495 87.0737 13.6809 87.2179 14.6969C87.2643 15.0407 87.3621 15.364 87.46 15.6924C87.5682 16.0517 87.9082 16.0209 88.1658 15.9542C88.9952 15.7386 89.8091 15.4718 90.6334 15.2409C90.9837 15.1434 91.0403 14.9125 91.0197 14.6097C90.9528 13.3884 91.1949 12.2082 91.4473 11.0279C91.5761 10.4224 91.9985 10.0324 92.5034 9.74505C92.7455 9.60137 93.0185 9.63215 93.2607 9.85794C93.817 10.3762 93.8531 11.0741 93.9613 11.7463C94.1416 12.8701 94.0591 14.0042 94.0746 15.4975H94.0643Z" fill="#E9537C"/>
<path id="Vector_18" d="M70.8144 22.3274C70.6393 20.7674 70.7217 19.0432 70.6599 17.319C70.6393 16.734 70.6753 16.1491 70.6547 15.5743C70.5929 14.0759 70.6187 12.5775 70.562 11.0843C70.5362 10.3197 70.3765 9.56021 70.459 8.78536C70.5465 7.97458 70.8299 7.28696 71.4584 6.75328C71.9478 6.33763 72.8287 6.59421 73.1996 7.28183C73.4417 7.7334 73.6941 8.17984 73.859 8.67246C74.0444 9.23693 74.2659 9.33956 74.8275 9.13943C75.9247 8.74944 77.0684 8.63141 78.2069 8.75457C79.4484 8.88799 80.0614 9.34982 80.3757 10.9457C80.6281 12.2389 80.5302 13.5166 80.489 14.8149C80.4169 17.0163 80.4839 19.2177 80.4633 21.4191C80.4581 22.0554 80.4066 22.6968 80.2933 23.3229C80.1336 24.2312 79.3917 24.8469 79.0157 25.6474C78.9642 25.7552 78.8199 25.863 78.8354 25.9502C78.9951 26.9611 78.1142 27.2074 77.5423 27.582C76.5275 28.244 75.4817 28.8957 74.2247 29.0496C73.1532 29.183 72.1899 29.0137 71.4738 28.1362C71.0977 27.6744 71.0153 27.074 71.0205 26.5352C71.0359 25.1754 70.6805 23.8463 70.8144 22.3222V22.3274ZM77.5269 13.5217C77.5269 12.9675 77.5423 12.4954 77.5269 12.0233C77.5063 11.5718 77.2435 11.4127 76.7954 11.505C76.306 11.6077 75.8629 11.8489 75.3838 11.9771C74.9563 12.0952 74.776 12.3261 74.7811 12.7931C74.7811 14.6147 74.9408 16.421 75.0799 18.2376C75.2241 20.0952 75.1778 21.9733 75.2087 23.8412C75.219 24.3492 75.1932 24.8572 75.2138 25.3601C75.2344 25.9348 75.456 26.0734 75.9557 25.8322C76.2802 25.6731 76.5996 25.4986 76.9138 25.319C77.0787 25.2215 77.2281 25.1035 77.2178 24.8726C77.1508 23.5692 77.4393 22.2863 77.4496 20.9829C77.4599 19.6847 77.3208 18.3915 77.3981 17.0881C77.4702 15.8771 77.599 14.6609 77.5372 13.5269L77.5269 13.5217Z" fill="#E9537C"/>
<path id="Vector_19" d="M114.298 11.0689C114.298 10.8995 114.298 10.7353 114.298 10.566C114.298 9.85785 114.185 9.76549 113.484 10.0118C111.691 10.643 109.831 10.8328 107.946 10.8174C107.415 10.8174 106.9 10.6994 106.39 10.5198C105.308 10.1298 105.293 9.10865 106.076 8.38511C106.56 7.93867 107.194 7.84118 107.843 7.93867C108.786 8.08236 109.723 8.01565 110.671 7.95407C111.614 7.88736 112.546 7.74881 113.484 7.70776C114.318 7.67184 114.416 7.52302 114.535 6.71738C114.751 5.24977 114.777 3.72059 115.699 2.43258C116.013 1.99127 116.379 1.62694 116.951 1.71417C117.518 1.80654 117.914 2.35048 117.997 2.99704C118.11 3.8694 118.301 4.74175 118.311 5.61411C118.326 6.77382 118.198 7.93867 118.141 9.09839C118.115 9.67312 118.058 10.2581 118.125 10.8226C118.301 12.285 118.265 13.7321 118.007 15.1741C117.992 15.2664 117.992 15.3588 117.997 15.4512C118.105 17.16 116.946 18.0118 115.709 18.802C115.4 18.997 115.22 18.7969 115.086 18.5506C114.782 18.0015 114.628 17.396 114.525 16.7854C114.458 16.3902 114.427 15.9849 114.411 15.5795C114.396 15.1997 114.205 15.0817 113.875 15.1895C113.185 15.4153 112.49 15.641 111.815 15.9181C110.311 16.5493 108.77 16.9855 107.122 16.9701C106.308 16.965 105.581 16.6673 104.907 16.2568C104.34 15.913 104.237 15.2972 104.587 14.7174C105.004 14.0349 105.468 13.5833 106.426 13.804C107.292 14.0041 108.173 13.6603 109.043 13.5063C110.573 13.2344 112.067 12.7828 113.582 12.4595C114.128 12.3415 114.391 12.0747 114.293 11.5051C114.267 11.3614 114.293 11.2074 114.293 11.0586L114.298 11.0689Z" fill="#E9537C"/>
<path id="Vector_20" d="M99.3855 6.57481C100.591 6.48757 101.735 6.67744 102.806 7.27269C103.295 7.54466 103.63 7.93979 103.872 8.43241C104.053 8.80701 103.872 9.15595 103.697 9.45358C103.089 10.4542 102.677 11.5524 102.136 12.5889C101.662 13.5023 101.055 14.3285 100.39 15.1085C99.7409 15.8679 99.5142 16.766 99.3597 17.7153C99.2412 18.4542 99.2618 19.1932 99.2515 19.9321C99.2464 20.3067 99.3597 20.6454 99.4679 20.9994C99.6121 21.4664 99.8027 21.3843 100.05 21.0867C101.034 19.8962 102.116 18.8134 103.419 17.9616C103.481 17.9205 103.548 17.8846 103.61 17.8436C103.8 17.7307 104.017 17.6948 104.176 17.8333C104.393 18.018 104.202 18.2028 104.089 18.3567C103.177 19.6396 102.26 20.9225 101.353 22.2105C101.183 22.4517 101.049 22.7134 100.91 22.9699C100.344 24.0168 99.4473 24.5864 98.2676 24.6839C97.5567 24.7403 96.4079 23.7704 96.3409 23.0366C96.1451 20.7839 96.2739 18.562 97.1651 16.4478C97.5309 15.5755 98.0976 14.7955 98.8136 14.1951C99.5194 13.605 99.9779 12.8763 100.39 12.0963C100.715 11.4856 101.044 10.875 101.297 10.2182C101.467 9.78199 101.307 9.56647 100.946 9.44845C99.983 9.13543 99.0145 8.89938 97.9688 9.10464C97.3609 9.22779 96.7324 9.25858 96.1142 9.35095C95.6197 9.42279 95.2075 8.8224 95.3363 8.31439C95.5372 7.52414 96.4645 6.76981 97.3764 6.69797C97.7061 6.67231 98.0203 6.53376 98.3654 6.56968C98.7003 6.6056 99.0403 6.57994 99.3751 6.57994L99.3855 6.57481Z" fill="#E9537C"/>
<path id="Vector_21" d="M114.916 21.0034C115.92 20.988 116.853 21.0239 117.672 21.614C118.249 22.0297 118.661 23.0509 118.543 23.7282C118.146 26.0682 116.791 27.9052 115.41 29.7372C115.266 29.9322 115.009 30.0092 114.839 29.9989C114.081 29.963 113.432 30.2965 112.737 30.4864C112.34 30.5993 111.98 29.9527 112.072 29.3934C112.242 28.3466 112.881 27.5255 113.396 26.6429C113.819 25.9142 114.226 25.1753 114.597 24.421C114.854 23.8975 114.689 23.6872 114.107 23.682C112.994 23.6666 111.907 23.9027 110.805 24.0002C109.703 24.0977 108.61 24.2414 107.534 24.4671C107.034 24.5698 106.524 24.6108 106.024 24.7648C105.741 24.8571 105.406 24.8828 105.149 24.5852C104.901 24.2978 104.984 24.0361 105.071 23.7179C105.339 22.7378 106.174 22.4761 106.983 22.2401C108.801 21.7167 110.666 21.4088 112.551 21.2086C113.36 21.1214 114.159 20.9675 114.921 21.0034H114.916Z" fill="#E9537C"/>
<path id="Vector_22" d="M32.3701 5.37333C31.8807 5.40925 31.4016 5.34767 30.9328 5.19886C30.7422 5.13728 30.5567 5.22452 30.3764 5.22965C29.2585 5.26557 28.1407 5.32715 27.0228 5.19886C25.9255 5.07057 24.8334 4.94742 23.7979 4.54203C23.3806 4.37782 22.9582 4.23927 22.5306 4.11098C21.9176 3.93138 21.4591 3.55678 21.4024 2.93074C21.3458 2.32009 21.9021 2.06865 22.3452 1.81207C22.6852 1.61708 23.0818 1.53497 23.4734 1.49392C24.3697 1.40669 25.2867 1.28866 26.1728 1.31945C27.7337 1.37077 29.3307 1.30406 30.8298 1.90957C31.9271 2.35088 32.9007 3.02311 33.8486 3.71586C34.1062 3.90572 34.3174 4.23414 34.2092 4.58308C34.1062 4.91663 33.8486 5.14755 33.4983 5.2707C33.1222 5.40412 32.741 5.35794 32.3649 5.3682L32.3701 5.37333Z" fill="#E9537C"/>
<path id="Vector_23" d="M28.8954 33.6012C29.0191 32.6057 29.6218 31.1176 30.7088 29.7988C31.4403 28.911 32.316 28.521 33.4494 28.557C33.9748 28.5723 34.3612 28.8392 34.763 29.0958C35.6233 29.6551 36.2261 31.3177 35.9067 32.2106C35.8552 32.3543 35.7779 32.4979 35.6852 32.6108C34.9588 33.4935 34.1912 34.3504 33.3051 35.074C32.4191 35.7975 31.3888 36.2337 30.2194 36.208C29.4518 36.1926 28.7924 35.6641 28.8954 33.5961V33.6012ZM31.8576 33.3241C31.9554 33.437 31.8112 33.75 32.0688 33.8834C32.347 34.0271 32.5118 33.8013 32.6818 33.6269C32.7797 33.5242 32.8827 33.4319 32.9754 33.3292C33.4906 32.7904 33.5627 31.8924 33.13 31.2972C32.996 31.1124 32.8157 30.902 32.6045 30.9123C32.383 30.9226 32.2645 31.1791 32.1821 31.3895C31.9554 31.9797 31.94 32.616 31.8576 33.319V33.3241Z" fill="#E9537C"/>
<path id="Vector_24" d="M39.3783 23.6715C39.5999 21.7472 40.0738 19.9101 41.3565 18.3706C42.4229 17.0878 44.3496 17.6933 45.0759 18.6734C45.9053 19.7972 45.859 21.1776 44.5711 22.2193C44.0972 22.599 43.6335 22.9941 43.2781 23.5432C42.7165 24.4053 42.0159 25.1853 40.9135 25.4419C40.3468 25.5753 39.9914 25.4624 39.6977 24.9595C39.4659 24.5592 39.3371 24.1436 39.3732 23.6715H39.3783ZM43.2935 20.726C43.1853 20.5002 43.2059 20.1461 42.8762 20.0794C42.5414 20.0179 42.5311 20.3463 42.4487 20.5567C42.2374 21.0852 42.1962 21.6497 42.0571 22.1936C42.0159 22.3476 42.1138 22.4758 42.2014 22.5528C42.2941 22.6298 42.392 22.4964 42.4538 22.4194C42.8453 21.9114 43.1699 21.3726 43.2987 20.7209L43.2935 20.726Z" fill="#E9537C"/>
<path id="Vector_25" d="M41.0695 9.63759C41.2138 7.56447 41.8165 5.67095 43.3877 4.19308C43.7792 3.82361 44.2377 3.49006 44.8302 3.63374C45.5102 3.79795 45.778 4.53175 45.5668 5.42463C45.3247 6.4458 44.8765 7.39 44.4695 8.34445C44.1347 9.11931 43.9441 9.93009 43.7329 10.7357C43.5783 11.3105 43.2538 11.721 42.8365 12.0802C42.3214 12.5266 41.528 12.1572 41.3116 11.3772C41.1571 10.8127 40.9871 10.2482 41.0747 9.63759H41.0695Z" fill="#E9537C"/>
<path id="Vector_26" d="M53.9336 29.2131C54.016 28.0072 54.5363 26.8423 55.2369 25.7134C55.716 24.9334 56.2827 24.5229 57.2048 24.5794C58.0651 24.6358 59.2448 25.5389 59.5539 26.3087C59.6724 26.6063 59.5745 26.8372 59.4921 27.0476C58.8585 28.7359 57.8076 30.0701 56.0457 30.7012C55.6954 30.8244 55.3039 30.8603 54.9278 30.8654C54.3869 30.8654 54.0057 30.3882 53.9387 29.7109C53.9284 29.5877 53.9387 29.4645 53.9387 29.2182L53.9336 29.2131ZM56.396 28.5409C56.5094 28.5409 56.6279 28.3407 56.6536 28.3202C56.9988 27.9969 57.0915 27.7506 57.1636 27.3042C57.1997 27.0784 56.9988 26.7859 56.6382 26.7808C56.2879 26.7756 56.2724 27.0168 56.2466 27.258C56.2209 27.5094 56.2775 27.7609 56.1642 28.0175C56.0766 28.2227 56.2312 28.5357 56.3909 28.5357L56.396 28.5409Z" fill="#E9537C"/>
<path id="Vector_27" d="M45.0506 16.0767C44.6076 15.9535 44.0152 15.9843 43.4279 15.9689C42.0988 15.9278 40.816 16.2101 39.5385 16.518C39.1212 16.6206 38.7297 16.5436 38.4772 16.2203C38.1991 15.8714 38.3227 15.4557 38.5391 15.1119C39.0285 14.3217 39.6518 13.906 40.6821 14.0497C41.2127 14.1216 41.8154 14.0189 42.3873 13.9471C43.4845 13.8137 44.5818 13.7983 45.6276 14.2139C46.05 14.3833 46.5033 14.6244 46.4415 15.2043C46.39 15.6867 45.8027 16.0818 45.0558 16.0818L45.0506 16.0767Z" fill="#E9537C"/>
<path id="Vector_28" d="M65.4369 19.3306C64.5354 19.3306 63.7317 18.53 63.7266 17.6474C63.7266 16.9752 64.6641 16.0618 65.5348 16.0567C66.5754 16.0515 67.1317 16.9957 67.1884 17.8168C67.2502 18.7199 66.4929 19.3357 65.442 19.3357L65.4369 19.3306Z" fill="#E9537C"/>
</g>
</g>
<defs>
<clipPath id="clip0_303_11503">
<rect width="146" height="56" fill="white"/>
</clipPath>
</defs>
</svg>
